<?xml version="1.0" standalone="no"?><!DOCTYPE svg PUBLIC "-//W3C//DTD SVG 1.1//EN" "http://www.w3.org/Graphics/SVG/1.1/DTD/svg11.dtd"><svg t="1536724202114" class="icon" style="" viewBox="0 0 1170 1024" version="1.1" xmlns="http://www.w3.org/2000/svg" p-id="5465" xmlns:xlink="http://www.w3.org/1999/xlink" width="73.125" height="64"><defs><style type="text/css"></style></defs><path d="M585.142857 384q68 0 116.285714 48.285714T749.714286 548.571429t-48.285715 116.285714T585.142857 713.142857t-116.285714-48.285714T420.571429 548.571429t48.285714-116.285715T585.142857 384z m402.285714-237.714286q60.571429 0 103.428572 42.857143t42.857143 103.428572v512q0 60.571429-42.857143 103.428571t-103.428572 42.857143H182.857143q-60.571429 0-103.428572-42.857143t-42.857142-103.428571V292.571429q0-60.571429 42.857142-103.428572t103.428572-42.857143h128l29.142857-77.714285q10.857143-28 39.714286-48.285715T438.857143 0h292.571428q30.285714 0 59.142858 20.285714T830.285714 68.571429l29.142857 77.714285h128z m-402.285714 658.285715q105.714286 0 180.857143-75.142858T841.142857 548.571429t-75.142857-180.857143T585.142857 292.571429 404.285714 367.714286 329.142857 548.571429t75.142857 180.857142T585.142857 804.571429z" p-id="5466" fill="#707070"></path></svg>