<?xml version="1.0" encoding="utf-8"?>
<svg version="1.1" xmlns="http://www.w3.org/2000/svg" xmlns:xlink="http://www.w3.org/1999/xlink" x="0px" y="0px" viewBox="0 0 64 64" style="enable-background:new 0 0 64 64;" xml:space="preserve">
<path fill="#707070" d="M23.3,5.9H13c-3.9,0-7,3.1-7,7v10.3c0,3.9,3.1,7,7,7h10.3c3.9,0,7-3.1,7-7V12.9C30.3,9,27.2,5.9,23.3,5.9z
	 M27.7,22.6c0,2.8-2.2,5-5,5h-9.2c-2.8,0-5-2.2-5-5v-9.2c0-2.8,2.2-5,5-5h9.2c2.8,0,5,2.2,5,5V22.6z"/>
<path fill="#707070" d="M60.5,57.5l-4.7-4.3c1.7-2.1,2.7-4.7,2.7-7.6c0-6.8-5.6-12.2-12.5-12.2c-6.9,0-12.5,5.5-12.5,12.2
	c0,6.7,5.6,12.2,12.5,12.2c3.1,0,5.9-1.1,8.1-2.9l4.7,4.4c0.3,0.2,0.6,0.3,0.9,0.3c0.3,0,0.7-0.1,0.9-0.4C61,58.7,61,57.9,60.5,57.5
	z M46,55.3c-5.5,0-10-4.4-10-9.8c0-5.4,4.5-9.8,10-9.8c5.5,0,10,4.4,10,9.8C55.9,50.9,51.5,55.3,46,55.3z"/>
<path fill="#707070" d="M51.4,5.9H41.1c-3.9,0-7,3.1-7,7v10.3c0,3.9,3.1,7,7,7h10.3c3.9,0,7-3.1,7-7V12.9C58.4,9,55.3,5.9,51.4,5.9z
	 M55.9,22.6c0,2.8-2.2,5-5,5h-9.2c-2.8,0-5-2.2-5-5v-9.2c0-2.8,2.2-5,5-5h9.2c2.8,0,5,2.2,5,5V22.6z"/>
<path fill="#707070" d="M23.3,34H13c-3.9,0-7,3.1-7,7v10.3c0,3.9,3.1,7,7,7h10.3c3.9,0,7-3.1,7-7V41C30.3,37.1,27.2,34,23.3,34z
	 M27.7,50.7c0,2.8-2.2,5-5,5h-9.2c-2.8,0-5-2.2-5-5v-9.2c0-2.8,2.2-5,5-5h9.2c2.8,0,5,2.2,5,5V50.7z"/>
</svg>
