<?xml version="1.0" encoding="utf-8"?>
<!-- Generator: Adobe Illustrator 22.1.0, SVG Export Plug-In . SVG Version: 6.00 Build 0)  -->
<svg version="1.1" id="图层_1" xmlns="http://www.w3.org/2000/svg" xmlns:xlink="http://www.w3.org/1999/xlink" x="0px" y="0px"
	 viewBox="0 0 982.8 307.5" style="enable-background:new 0 0 982.8 307.5;" xml:space="preserve">
<style type="text/css">
	.st0{fill:url(#SVGID_1_);}
	.st1{fill:#FDFDFD;}
	.st2{fill:#FEFEFE;}
	.st3{fill:#FCFCFC;}
</style>
<g>
	<linearGradient id="SVGID_1_" gradientUnits="userSpaceOnUse" x1="0" y1="153.7545" x2="982.7892" y2="153.7545">
		<stop  offset="0" style="stop-color:#FF8E4C"/>
		<stop  offset="1" style="stop-color:#FF614C"/>
	</linearGradient>
	<path class="st0" d="M347.5,0c114.6,0,229.3,0,343.9,0c2.3,0,3.1,0.3,3.5,2.9c1.4,9.5,9.2,16,18.6,16c9.3,0,17.3-6.7,18.5-16.1
		c0.3-2.6,1.3-2.7,3.4-2.7c21.8,0,43.6,0,65.4,0c59.4,0,118.7,0,178.1,0c3.8,0,3.8,0,3.8,3.9c0,0.5-0.1,0.9,0,1.4
		c0.3,2.1-0.2,3-2.6,3.2c-6.2,0.5-10.7,5.9-10.6,12.1c0.1,6.1,4.6,11.3,10.6,11.8c2.4,0.2,3,1.1,2.6,3.2c0,0.3,0,0.6,0,0.8
		c0,4.4,0,4.4-4.1,5.4c-5.7,1.5-9.5,6.8-9.1,12.6c0.4,5.7,4.7,10.7,10.5,11.1c2.6,0.2,3,1.2,2.8,3.4c-0.1,1.6,0.4,3.5-0.2,4.9
		c-0.7,1.8-2.9,0.8-4.4,1.2c-5.5,1.8-9.1,7-8.7,12.7c0.5,5.7,4.8,10.5,10.6,11c2.5,0.2,2.9,1.2,2.6,3.2c0,0.3,0,0.6,0,0.8
		c0,4.3,0,4.3-4.2,5.4c-5.7,1.5-9.5,6.8-9.1,12.6c0.4,5.9,4.9,10.7,10.8,11.2c2.1,0.2,2.8,0.8,2.5,2.8c0,0.2,0,0.4,0,0.6
		c0,1.7,0.4,3.5-0.2,4.9c-0.7,1.8-2.9,0.7-4.4,1.2c-5.5,1.8-9.1,7-8.7,12.7c0.5,5.7,4.9,10.5,10.6,11c2.2,0.2,2.9,0.9,2.6,2.9
		c-0.1,0.4,0,0.7,0,1.1c0,1.5,0.4,3.2-0.2,4.4c-0.7,1.4-2.6,0.6-4,1c-5.7,1.6-9.5,6.8-9.1,12.7c0.4,5.9,4.9,10.6,10.8,11.2
		c2.1,0.2,2.8,0.8,2.5,2.8c0,0.2,0,0.4,0,0.6c0,1.7,0.4,3.5-0.2,4.9c-0.7,1.7-2.9,0.7-4.4,1.2c-5.5,1.8-9.1,7-8.6,12.7
		c0.5,5.7,4.9,10.5,10.7,11c2.2,0.2,2.9,0.9,2.6,2.9c-0.1,0.4,0,0.7,0,1.1c0,1.5,0.4,3.2-0.2,4.4c-0.7,1.4-2.6,0.6-4,1
		c-5.7,1.6-9.5,6.8-9,12.7c0.4,5.9,4.9,10.6,10.8,11.1c2.1,0.2,2.8,0.9,2.4,2.8c0,0.3,0,0.6,0,0.8c0,1.6,0.4,3.3-0.2,4.7
		c-0.7,1.7-2.8,0.7-4.2,1.1c-5.5,1.7-9.3,6.8-8.9,12.6c0.4,5.9,4.8,10.7,10.7,11.2c2.3,0.2,2.6,1,2.6,3c-0.1,6,0,6.1-6.1,6.1
		c-80.7,0-161.4,0-242,0c-1.7,0-2.2-0.3-2.4-2.2c-1.2-9.6-8.9-16.1-18.6-16.2c-9.8,0-17.5,6.5-18.7,16.1c-0.2,2-0.9,2.4-2.7,2.2
		c-0.5-0.1-0.9,0-1.4,0c-227.5,0-455.1,0-682.6,0c-0.6,0-1.3,0-1.9,0c-6.2,0-6.1,0-6.2-6.3c0-2,0.5-2.6,2.5-2.7
		c6.2-0.6,10.8-5.8,10.8-12c0-6.2-4.5-11.5-10.8-12c-2.4-0.2-2.7-1.1-2.5-3c0-0.1,0-0.2,0-0.3c0-1.7-0.4-3.5,0.2-4.9
		c0.7-1.8,2.9-0.8,4.4-1.3c5.5-1.8,9.1-7,8.7-12.7c-0.4-5.7-4.8-10.5-10.6-11c-2.4-0.2-3-1.1-2.6-3.2c0-0.3,0-0.6,0-0.8
		c0-4.4,0-4.4,4.1-5.4c5.7-1.5,9.5-6.8,9.1-12.6C13,213.4,8.6,208.4,2.9,208c-2.6-0.2-3-1.2-2.8-3.4c0.1-1.6-0.4-3.5,0.2-4.9
		c0.7-1.8,2.9-0.8,4.4-1.2c5.5-1.8,9.1-7,8.7-12.7c-0.5-5.7-4.8-10.5-10.6-11c-2.5-0.2-2.9-1.1-2.6-3.2c0-0.3,0-0.6,0-0.8
		c0-4.4,0-4.4,4.2-5.4c5.7-1.5,9.5-6.8,9.1-12.6C13,146.8,8.5,142,2.6,141.4c-2.1-0.2-2.8-0.8-2.5-2.8c0-0.2,0-0.4,0-0.6
		c0-1.7-0.4-3.5,0.2-4.9c0.7-1.8,2.9-0.8,4.4-1.2c5.5-1.8,9.1-7,8.7-12.7c-0.5-5.6-4.7-10.5-10.4-10.9c-2.7-0.2-3.2-1.3-2.9-3.5
		c0-0.2,0-0.4,0-0.6c0-4.3,0-4.3,4.2-5.4c5.7-1.5,9.5-6.8,9.1-12.6C13,80.3,8.5,75.5,2.6,75c-2.1-0.2-2.8-0.8-2.5-2.8
		c0-0.2,0-0.4,0-0.6c0-1.7-0.4-3.5,0.2-4.9C1,65,3.2,66,4.7,65.5c5.5-1.8,9.1-7,8.6-12.7c-0.5-5.7-4.9-10.5-10.6-11
		c-2.2-0.2-2.9-0.9-2.6-2.9c0.1-0.4,0-0.7,0-1.1c0-1.5-0.4-3.2,0.2-4.4c0.7-1.4,2.6-0.6,4-1c5.7-1.6,9.5-6.8,9.1-12.7
		C13,13.8,8.5,9,2.6,8.5C0.5,8.3,0.1,7.7,0.1,5.7C0.2,0.1,0.1,0,5.8,0C119.7,0,233.6,0,347.5,0z"/>
	<path class="st1" d="M710.7,27.8c0-0.8,0.1-1.7,0-2.5c-0.5-2.6,0.7-3.2,3.1-3.1c1.8,0.1,2.7,0.4,2.5,2.4c-0.2,2.2-0.1,4.4,0,6.6
		c0.1,1.6-0.2,2.3-2,2.2c-3.5-0.1-3.5,0-3.5-3.4C710.7,29.3,710.7,28.6,710.7,27.8z"/>
	<path class="st1" d="M716.3,44.7c0,0.9-0.1,1.9,0,2.8c0.4,2.3-0.5,2.9-2.8,2.9c-2.4,0-3-0.7-2.8-2.9c0.2-1.5,0-3.1,0-4.7
		c0-3.5,1.4-4.5,4.7-3.6c1,0.3,0.8,0.9,0.8,1.4C716.3,42,716.3,43.3,716.3,44.7z"/>
	<path class="st2" d="M716.3,61.6c0,0.8-0.1,1.7,0,2.5c0.4,2.3-0.3,3.2-2.9,3.1c-2.1-0.1-3-0.5-2.7-2.7c0.2-1.8,0.2-3.7,0-5.5
		c-0.3-2.3,0.4-3.2,2.9-3c2,0.1,3.1,0.4,2.7,2.7C716.1,59.5,716.3,60.6,716.3,61.6z"/>
	<path class="st1" d="M716.3,78.4c0,0.7-0.1,1.5,0,2.2c0.4,2.4-0.4,3.4-3,3.2c-1.9-0.1-2.8-0.3-2.6-2.5c0.2-2,0-4,0.1-6.1
		c0-0.8-0.6-2.2,0.5-2.4c1.5-0.3,3.3-0.4,4.6,0.1c1,0.4,0.3,2.2,0.4,3.3C716.3,77,716.3,77.7,716.3,78.4z"/>
	<path class="st3" d="M710.7,94.8c0-0.6,0-1.3,0-1.9c0-3.4,1.3-4.3,4.6-3.4c1.1,0.3,0.9,1,0.9,1.7c0,2.6-0.1,5.2,0.1,7.7
		c0.2,2.2-1.3,1.9-2.5,1.7c-1.1-0.2-3.2,1.3-3.1-1.5C710.8,97.6,710.7,96.2,710.7,94.8z"/>
	<path class="st1" d="M716.3,111.9c0,0.8-0.1,1.7,0,2.5c0.5,2.6-0.7,3.2-3.1,3.1c-1.8-0.1-2.7-0.3-2.5-2.4c0.2-2.2,0.1-4.4,0-6.6
		c-0.1-1.6,0.2-2.3,2-2.2c3.5,0.1,3.5,0,3.5,3.4C716.3,110.4,716.3,111.1,716.3,111.9z"/>
	<path class="st2" d="M716.3,128.7c0,0.7-0.1,1.5,0,2.2c0.5,2.6-0.4,3.5-3.2,3.3c-1.8-0.1-2.6-0.4-2.4-2.4c0.2-2.4,0.1-4.8,0-7.2
		c-0.1-2.4,1.6-1.6,2.6-1.5c1.1,0.1,3-1.2,3,1.4C716.2,125.9,716.3,127.3,716.3,128.7z"/>
	<path class="st1" d="M716.3,145.5c0,0.9-0.1,1.9,0,2.8c0.3,2.2-0.6,2.6-2.7,2.7c-2.5,0.1-3.2-0.6-2.9-3c0.2-2.2,0.1-4.4,0-6.6
		c-0.1-2.6,1.9-1.4,2.9-1.5c1.1-0.1,2.8-0.8,2.6,1.5C716.2,142.7,716.3,144.1,716.3,145.5z"/>
	<path class="st1" d="M710.7,162.1c0-0.7,0.1-1.5,0-2.2c-0.4-2.6,0.4-3.5,3.2-3.3c1.8,0.1,2.6,0.4,2.4,2.4c-0.2,2.4-0.1,4.8,0,7.2
		c0.1,2.3-1.5,1.7-2.6,1.6c-1.1-0.1-3,1.1-3-1.5C710.7,164.8,710.7,163.4,710.7,162.1z"/>
	<path class="st2" d="M710.7,178.9c0-0.9,0.1-1.9,0-2.8c-0.4-2.4,0.6-2.8,2.8-2.8c2.4-0.1,3,0.7,2.8,2.9c-0.2,2.1-0.2,4.2,0,6.4
		c0.1,1.6-0.5,2-2,1.9c-3.6,0-3.6,0-3.6-3.4C710.7,180.3,710.7,179.6,710.7,178.9z"/>
	<path class="st1" d="M710.7,195.6c0-0.9,0.1-1.9,0-2.8c-0.4-2.3,0.6-2.8,2.8-2.9c2.4,0,3,0.7,2.8,2.9c-0.2,1.5,0,3.1,0,4.7
		c0,3.5-1.4,4.5-4.7,3.6c-1-0.3-0.8-0.8-0.8-1.4C710.7,198.4,710.7,197,710.7,195.6z"/>
	<path class="st3" d="M716.3,212.6c0,0.6,0,1.3,0,1.9c0,3.6-1,4.3-4.5,3.6c-1.1-0.2-1-0.9-1-1.6c0-2.7,0.1-5.3,0-8
		c-0.1-2.4,1.6-1.6,2.6-1.5c1.1,0.1,3-1.2,2.9,1.4C716.2,209.8,716.3,211.2,716.3,212.6z"/>
	<path class="st1" d="M716.3,229.1c0,0.7,0,1.5,0,2.2c0,3.5-1,4.2-4.6,3.5c-1.2-0.2-0.9-0.9-0.9-1.6c0-2.7,0-5.3,0-8
		c0-1.2,0.4-1.5,1.6-1.5C716.3,223.5,716.3,223.5,716.3,229.1z"/>
	<path class="st2" d="M710.7,245.9c0-0.8,0.1-1.7,0-2.5c-0.4-2.3,0.3-3.2,2.9-3.1c2.1,0.1,3,0.5,2.7,2.7c-0.2,1.8-0.2,3.7,0,5.5
		c0.3,2.3-0.4,3.2-2.9,3c-2-0.1-3.1-0.4-2.7-2.7C710.8,248,710.7,246.9,710.7,245.9z"/>
	<path class="st1" d="M716.3,262.7c0,1-0.1,2,0,3c0.3,2.2-0.6,2.6-2.7,2.7c-2.4,0.1-3.2-0.6-3-3c0.2-2.2,0.1-4.4,0-6.6
		c-0.1-2.6,1.8-1.4,2.9-1.5c1-0.1,2.8-0.8,2.6,1.5C716.2,260.1,716.3,261.4,716.3,262.7z"/>
	<path class="st1" d="M716.3,279.6c0,0.9-0.1,1.9,0,2.8c0.4,2.3-0.6,2.8-2.8,2.9c-2.4,0-3-0.7-2.8-2.9c0.2-2.1,0.2-4.2,0-6.3
		c-0.1-1.6,0.5-2,2-1.9c3.6,0,3.6,0,3.6,3.4C716.3,278.2,716.3,278.9,716.3,279.6z"/>
</g>
</svg>
