<?xml version="1.0" standalone="no"?><!DOCTYPE svg PUBLIC "-//W3C//DTD SVG 1.1//EN" "http://www.w3.org/Graphics/SVG/1.1/DTD/svg11.dtd"><svg t="1550851166028" class="icon" style="" viewBox="0 0 1024 1024" version="1.1" xmlns="http://www.w3.org/2000/svg" p-id="16427" xmlns:xlink="http://www.w3.org/1999/xlink" width="200" height="200"><defs><style type="text/css"></style></defs><path d="M850.201835 540.183486 836.495266 540.183486 864.293578 878.385321C864.293578 899.137761 847.468037 915.963303 826.715596 915.963303L201.981651 915.963303C181.229211 915.963303 164.40367 899.137761 164.40367 878.385321L192.201982 540.183486 173.798165 540.183486C153.045725 540.183486 136.220183 523.357945 136.220183 502.605505L136.220183 380.477064C136.220183 359.724624 153.045725 342.899083 173.798165 342.899083L413.357798 342.899083 413.357798 201.981651C413.357798 150.095853 455.416954 108.036697 507.302752 108.036697L521.394495 108.036697C573.275596 108.036697 615.33945 150.095853 615.33945 201.981651L615.33945 342.899083 850.201835 342.899083C870.954275 342.899083 887.779817 359.724624 887.779817 380.477064L887.779817 502.605505C887.779817 523.357945 870.954275 540.183486 850.201835 540.183486ZM211.376147 887.779817 347.59633 887.779817 347.59633 699.889908C347.59633 692.106569 353.904734 685.798165 361.688073 685.798165 369.471413 685.798165 375.779817 692.106569 375.779817 699.889908L375.779817 887.779817 507.302752 887.779817 507.302752 699.889908C507.302752 692.106569 513.611156 685.798165 521.394495 685.798165 529.177835 685.798165 535.486239 692.106569 535.486239 699.889908L535.486239 887.779817 648.220183 887.779817 648.220183 699.889908C648.220183 692.106569 654.528587 685.798165 662.311927 685.798165 670.095266 685.798165 676.40367 692.106569 676.40367 699.889908L676.40367 887.779817 817.321101 887.779817C827.697321 887.779817 836.110092 879.367046 836.110092 868.990826L808.325872 540.183486 220.371376 540.183486 192.587156 868.990826C192.587156 879.367046 200.999927 887.779817 211.376147 887.779817ZM859.59633 389.87156C859.59633 379.495339 851.18356 371.082569 840.807339 371.082569L587.155963 371.082569 587.155963 366.385321 587.155963 366.385321 587.155963 201.981651C587.155963 165.662532 557.713615 136.220183 521.394495 136.220183L507.302752 136.220183C470.983633 136.220183 441.541284 165.662532 441.541284 201.981651L441.541284 342.899083 441.541284 342.899083 441.541284 371.082569 183.192661 371.082569C172.81644 371.082569 164.40367 379.495339 164.40367 389.87156L164.40367 493.211009C164.40367 503.587229 172.81644 512 183.192661 512L840.807339 512C851.18356 512 859.59633 503.587229 859.59633 493.211009L859.59633 389.87156Z" p-id="16428" fill="#707070"></path></svg>