<?xml version="1.0" standalone="no"?><!DOCTYPE svg PUBLIC "-//W3C//DTD SVG 1.1//EN" "http://www.w3.org/Graphics/SVG/1.1/DTD/svg11.dtd"><svg t="1557674181413" class="icon" style="" viewBox="0 0 1024 1024" version="1.1" xmlns="http://www.w3.org/2000/svg" p-id="10603" data-spm-anchor-id="a313x.7781069.0.i1" xmlns:xlink="http://www.w3.org/1999/xlink" width="64" height="64"><defs><style type="text/css"></style></defs><path d="M884.394667 51.2h-546.133334a42.666667 42.666667 0 0 0-41.984 42.666667v88.746666H142.336a45.056 45.056 0 0 0-45.056 45.056v700.074667a45.056 45.056 0 0 0 45.056 45.056H750.933333a45.056 45.056 0 0 0 45.056-45.056v-86.698667h88.064a42.666667 42.666667 0 0 0 42.666667-42.666666V93.866667a42.666667 42.666667 0 0 0-42.325333-42.666667z m-122.197334 876.544a10.922667 10.922667 0 0 1-10.922666 10.922667H142.336a10.922667 10.922667 0 0 1-10.922667-10.922667V227.669333a10.922667 10.922667 0 0 1 10.922667-10.922666H750.933333a10.922667 10.922667 0 0 1 10.922667 10.922666z m130.730667-129.024a8.533333 8.533333 0 0 1-8.533333 8.533333h-88.064v-580.266666A45.056 45.056 0 0 0 750.933333 182.613333H330.410667v-88.746666a8.533333 8.533333 0 0 1 8.533333-8.533334h546.133333a8.533333 8.533333 0 0 1 8.533334 8.533334z" fill="#656565" p-id="10604"></path><path d="M648.533333 368.298667H244.394667a17.066667 17.066667 0 0 0 0 34.133333H648.533333a17.066667 17.066667 0 0 0 0-34.133333zM648.533333 570.368H244.394667a17.066667 17.066667 0 0 0 0 34.133333H648.533333a17.066667 17.066667 0 0 0 0-34.133333zM648.533333 753.322667H244.394667a17.066667 17.066667 0 0 0 0 34.133333H648.533333a17.066667 17.066667 0 0 0 0-34.133333z" fill="#656565" p-id="10605"></path></svg>