<?xml version="1.0" encoding="utf-8"?>
<!-- Generator: Adobe Illustrator 22.1.0, SVG Export Plug-In . SVG Version: 6.00 Build 0)  -->
<svg version="1.1" id="图层_1" xmlns="http://www.w3.org/2000/svg" xmlns:xlink="http://www.w3.org/1999/xlink" x="0px" y="0px"
	 viewBox="0 0 64 64" style="enable-background:new 0 0 64 64;" xml:space="preserve">
<style type="text/css">
	.st0{fill:#FFFFFF;}
</style>
<path class="st0" d="M32,4C16.5,4,4,16.5,4,32s12.5,28,28,28s28-12.5,28-28S47.5,4,32,4z M46.8,29L32.4,43.4c-1.1,1.1-2.9,1.1-4,0
	l-9.7-10.1c-1.1-1.1-1.1-2.5,0-3.6c1.1-1.1,2.5-1.1,3.6,0l7.9,7.5L42.9,25c1.1-1.1,2.9-1.1,4,0C47.9,26.1,47.9,27.9,46.8,29z"/>
</svg>
