<?xml version="1.0" encoding="utf-8"?>
<!-- Generator: Adobe Illustrator 22.1.0, SVG Export Plug-In . SVG Version: 6.00 Build 0)  -->
<svg version="1.1" id="图层_1" xmlns="http://www.w3.org/2000/svg" xmlns:xlink="http://www.w3.org/1999/xlink" x="0px" y="0px"
	 viewBox="0 0 212 221.5" style="enable-background:new 0 0 212 221.5;" xml:space="preserve">
<style type="text/css">
	.st0{fill:url(#SVGID_1_);}
	.st1{clip-path:url(#SVGID_3_);fill:#E84641;}
	.st2{fill:#E84641;}
	.st3{fill:url(#SVGID_4_);}
	.st4{fill:#F9F3DD;}
	.st5{display:none;fill:#FFE523;}
	.st6{display:none;fill:#FB9702;}
	.st7{fill:#F9B200;}
	.st8{fill:#D3AEFF;}
	.st9{fill:#FFABE7;}
	.st10{fill:#F79A8D;}
	.st11{fill:#3785E0;}
	.st12{fill:#B9EA39;}
	.st13{fill:#84E4B7;}
	.st14{fill:#7EE3F7;}
</style>
<linearGradient id="SVGID_1_" gradientUnits="userSpaceOnUse" x1="106" y1="221.5" x2="106" y2="9.5">
	<stop  offset="0" style="stop-color:#ECDB84"/>
	<stop  offset="1" style="stop-color:#FDF0A9"/>
</linearGradient>
<path class="st0" d="M106,9.5C47.5,9.5,0,57,0,115.5s47.5,106,106,106s106-47.5,106-106S164.5,9.5,106,9.5z M106,210.4
	c-51.9,0-94-42.1-94-94c0-51.9,42.1-94,94-94s94,42.1,94,94C200,168.3,157.9,210.4,106,210.4z"/>
<g>
	<defs>
		<circle id="SVGID_2_" cx="106" cy="116.4" r="94"/>
	</defs>
	<clipPath id="SVGID_3_">
		<use xlink:href="#SVGID_2_"  style="overflow:visible;"/>
	</clipPath>
	<rect x="19.7" y="148.8" class="st1" width="171.6" height="72.7"/>
</g>
<path class="st2" d="M19.7,37v56.3h171.6V37c0-5.5-4.5-10-10-10H29.7C24.2,27,19.7,31.5,19.7,37z"/>
<linearGradient id="SVGID_4_" gradientUnits="userSpaceOnUse" x1="105.5" y1="74.6667" x2="105.5" y2="99.3333">
	<stop  offset="0" style="stop-color:#000000;stop-opacity:0"/>
	<stop  offset="1" style="stop-color:#000000"/>
</linearGradient>
<path class="st3" d="M19.7,74.7h171.6v24.7L19.7,99.1V74.7z"/>
<path class="st4" d="M32,106.2H179V8c0-4.4-3.6-8-8-8H40c-4.4,0-8,3.6-8,8V106.2z"/>
<path class="st2" d="M19.7,76.2L19.7,76.2l0,74.5h171.6V76.2l-0.2,0.1C136.6,91.3,74.1,91.3,19.7,76.2z"/>
<path class="st5" d="M116.2,96c0,5.9-4.8,10.7-10.7,10.7S94.8,101.9,94.8,96c0-5.9,4.8-10.7,10.7-10.7
	C111.4,85.3,116.2,90.1,116.2,96"/>
<path class="st6" d="M104.4,99.4h-2.8v-1.6h2.8v-0.9h-2.8v-1.6h2l-2.4-4.7h2.4l1.5,3.1c0.2,0.4,0.3,0.8,0.4,1c0.1-0.3,0.2-0.6,0.4-1
	l1.6-3.1h2.4l-2.4,4.6h2v1.6h-2.8v0.9h2.8v1.6h-2.8v2h-2.1L104.4,99.4z"/>
<path class="st7" d="M24.9,49.9l6.4-6.5l3.7,4.8l-7.2,4.8C27.9,53.1,24.9,49.9,24.9,49.9z"/>
<path class="st8" d="M176.5,22.8l-1.4,9.5l6-1l1.7-9.6L176.5,22.8z"/>
<path class="st9" d="M32.9,9.7l-3.2,8.9l7.2,0.9l4-7C40.9,12.5,32.9,9.7,32.9,9.7z"/>
<path class="st10" d="M44.3,111.7l3.1-3.9l4.9,3.9l-3.7,3.6C48.6,115.4,44.3,111.7,44.3,111.7z"/>
<path class="st11" d="M165.7,104.3c3.4,2.3,4,3.7,2.5,4.9c-1.8,1.4-2,3-1,4.6c0.3,0.6,0.8,1.1,1.3,1.5l0.3,0.3l0.2,0.2
	c0.1,0.1,0.1,0.1,0.3,0.1c0.4,0.2,0.5,0.4,0.6,0.7c0.3,0.8-0.1,1.9-2.3,3.6c-0.3,0.3-0.3,0.6-0.1,0.9c0.3,0.3,0.6,0.3,0.9,0.1
	c2.6-2.1,3.3-3.9,2.6-5.3c-0.3-0.5-0.5-0.8-1.1-1.2l-0.3-0.1l-1.3-1.5c-0.6-1.1-0.5-2,0.6-2.9c2.6-1.9,1.5-4.5-2.6-7.1
	c-0.4-0.2-0.8,0-0.9,0.2C165.4,103.7,165.4,104.2,165.7,104.3z"/>
<path class="st11" d="M31.3,92.2c-1.3-4.8-0.7-6.8,1.9-6.6c2.7,0.1,4-1.1,4.4-3.3c0.1-0.8,0.1-1.6,0-2.4v-0.4v-0.4
	c0,0,0-0.3-0.1-0.3c-0.1-0.4-0.1-0.8,0-1.2c0.3-1.1,1.7-1.6,5.2-1.6c0.4,0,0.7-0.3,0.7-0.7s-0.3-0.7-0.7-0.7c-4-0.1-6,0.8-6.4,2.5
	c-0.1,0.5-0.1,1.2,0,1.9c0-0.1,0.1,0.4,0.1,0.4V80c0.1,0.7,0.1,1.3,0,2c-0.3,1.5-1.2,2.3-3.1,2.1c-3.7-0.3-4.8,2.8-3.2,8.4
	c0.1,0.4,0.5,0.5,0.8,0.4C31.1,93,31.4,92.6,31.3,92.2z"/>
<path class="st12" d="M166.9,82.5L166,92l-6.2-1.4l2.6-8.7C162.4,81.9,166.9,82.5,166.9,82.5z"/>
<path class="st13" d="M169.9,58.5l5.1,7.9l5.1-5.1l-3.1-7.5C177,53.9,169.9,58.5,169.9,58.5z"/>
<path class="st14" d="M154.7,32.9l3.4,6.2l3.1-3.3l-3.3-6.3L154.7,32.9z"/>
</svg>
