<?xml version="1.0" encoding="utf-8"?>
<!-- Generator: Adobe Illustrator 22.1.0, SVG Export Plug-In . SVG Version: 6.00 Build 0)  -->
<svg version="1.1" id="图层_1" xmlns="http://www.w3.org/2000/svg" xmlns:xlink="http://www.w3.org/1999/xlink" x="0px" y="0px"
	 viewBox="0 0 981 307.5" style="enable-background:new 0 0 981 307.5;" xml:space="preserve">
<style type="text/css">
	.st0{fill:#DCDCDC;}
	.st1{fill:#FDFDFD;}
	.st2{fill:#FEFEFE;}
</style>
<g>
	<path class="st0" d="M650.1,307.5c-109,0-218,0-327,0c-4.5,0-4,0.5-4-4c0-1.8-0.1-3.7,0-5.5c0.1-1.5-0.5-2.1-2.1-2.1
		c-1.5,0-1.9,0.7-1.9,2c0.1,2.5-0.1,5,0,7.5c0.1,1.7-0.6,2.4-2.3,2.2c-0.4,0-0.7,0-1.1,0c-102.7,0-205.5,0-308.2,0
		c-3.6,0-3.6,0-3.6-3.6c0-1.6-0.4-3.4,0.3-4.6c0.7-1.4,2.7-0.4,4.1-0.7c6.7-1.3,11.1-6.7,10.6-13.4c-0.5-6-6.6-11.5-12.5-10.9
		c-2,0.2-2.6-0.6-2.5-2.5c0.1-1.8-0.4-3.9,0.2-5.5c0.8-2,3.1-0.7,4.7-1.1c7.1-1.5,10.7-7.7,10-13.5c-0.7-6.1-6.9-11.2-12.5-10.6
		c-1.7,0.2-2.7-0.4-2.4-2.3c0-0.1,0-0.2,0-0.3c0-1.8-0.4-3.9,0.2-5.5c0.8-1.9,3.1-0.7,4.8-1c7.1-1.5,10.7-7.8,9.9-13.6
		c-0.8-6.1-6.9-11.2-12.5-10.6c-1.8,0.2-2.5-0.5-2.4-2.3c0.1-1.8-0.4-3.8,0.2-5.5c0.8-2.3,3.2-0.9,4.9-1.2c7-1.5,10.6-7.8,9.9-13.6
		c-0.8-6-6.8-11.1-12.6-10.6c-1.8,0.2-2.6-0.6-2.3-2.4c0-0.2,0-0.4,0-0.6c0-1.7-0.4-3.7,0.2-5.2c0.8-1.8,3-0.5,4.5-0.9
		c6.7-1.6,10.8-6.8,10.1-13.4c-0.6-5.9-6.6-11.4-12.6-10.8c-1.9,0.2-2.5-0.6-2.3-2.4c0-0.2,0-0.4,0-0.6c0-1.7-0.4-3.7,0.3-5.2
		c0.8-1.7,3-0.5,4.6-0.9c6.7-1.6,10.8-6.9,10.1-13.4c-0.6-5.9-6.7-11.4-12.7-10.8c-1.6,0.2-2.4-0.4-2.3-2.1c0.1-1.9-0.4-4.1,0.2-5.8
		c0.8-2.1,3.2-0.7,4.9-1.2c6.5-1.8,10.5-7,9.8-13.4c-0.7-6.1-6.9-11.3-12.4-10.7c-1.9,0.2-2.8-0.5-2.5-2.5c0-0.3,0-0.6,0-0.8
		c0-1.7-0.4-3.6,0.3-4.9c0.8-1.5,2.9-0.5,4.3-0.8c6.7-1.5,11-7,10.3-13.5c-0.7-6.1-6.8-11.2-12.4-10.7c-2,0.2-2.7-0.6-2.5-2.5
		c0.2-1.8-0.4-3.9,0.2-5.5c0.8-2,3.1-0.7,4.7-1.1c6.6-1.7,10.8-7.1,10-13.5C14.3,13,8.2,7.8,2.6,8.4c-2,0.2-2.5-0.7-2.5-2.5
		c0-5.8-0.1-5.8,5.6-5.8c96,0,192,0,288,0c1.5,0,3.1-0.3,4.4,0.3c1.4,0.7,0.4,2.5,0.8,3.8c2.1,7.4,6.7,12.2,14.2,14
		c1.8,0.4,2.6,1,2.3,2.8c-0.2,1.4,0.1,2.4,2,2.4c2,0,2-1.2,1.9-2.6c-0.1-1.7,0.3-2.3,2.2-2.6c8.3-1.7,13.8-7.7,14.9-16
		c0.2-1.7,0.8-2.3,2.4-2.1c0.6,0.1,1.3,0,1.9,0c212.1,0,424.2,0,636.3,0c4.7,0,4.1-0.5,4.1,4.1c0,99.8,0,199.6,0,299.3
		c0,4.3,0.5,3.9-3.8,3.9C868.2,307.5,759.2,307.5,650.1,307.5z"/>
	<path class="st1" d="M315.3,77.5c0.4-1.3-1.3-4.2,2.4-3.8c0.6,0.1,1.3,0.1,1.3,0.8c0.1,2.3,0.2,4.6-0.1,6.8c-0.1,1-1.4,0.6-2.1,0.7
		c-0.8,0-1.5-0.2-1.5-1.2C315.3,79.9,315.3,78.8,315.3,77.5z"/>
	<path class="st1" d="M319.1,229.7c0,0.8,0,1.6,0,2.5c0.1,1.4-0.7,1.7-1.9,1.7c-1.1,0-2-0.1-2-1.6c0-1.4,0-2.7,0-4.1
		c0-1.5-0.1-2.7,2-2.6c2,0,1.9,1.3,1.8,2.6C319.1,228.6,319.1,229.1,319.1,229.7z"/>
	<path class="st2" d="M319.1,31.3c-0.5,1.2,1.3,3.8-2.2,3.7c-1.3-0.1-1.8-0.6-1.7-1.8c0.1-1.4,0.1-2.8,0-4.1c-0.1-1.5,0.7-1.8,2-1.8
		c1.2,0,2,0.3,1.9,1.7C319.1,29.6,319.1,30.4,319.1,31.3z"/>
	<path class="st2" d="M319.1,43c-0.4,1.3,1.2,3.9-2.2,3.6c-1.1-0.1-1.7-0.4-1.7-1.6c0-1.2,0-2.4,0-3.6c-0.1-1.5-0.1-2.7,2.1-2.6
		c2.1,0,1.8,1.3,1.8,2.6C319.1,41.9,319.1,42.3,319.1,43z"/>
	<path class="st2" d="M315.3,54c0.2-1.4-0.9-4,2.5-3.5c0.6,0.1,1.2,0.1,1.2,0.8c0.1,2,0.1,4,0,6c-0.1,1.2-1.2,0.8-2,0.9
		c-0.9,0-1.7-0.1-1.7-1.2C315.3,56.1,315.3,55.2,315.3,54z"/>
	<path class="st2" d="M315.3,65.7c0.4-1.3-1.1-3.9,2.3-3.6c1.2,0.1,1.7,0.5,1.6,1.7c0,1.2,0,2.4,0,3.6c0,1.3,0.2,2.5-1.8,2.6
		c-2.1,0-2.1-1.2-2-2.7C315.3,66.8,315.3,66.4,315.3,65.7z"/>
	<path class="st2" d="M315.3,89.4c0.2-1.4-0.9-4,2.5-3.5c0.6,0.1,1.2,0.1,1.2,0.8c0.1,2,0.1,4,0,6c-0.1,1.2-1.2,0.8-2,0.9
		c-0.9,0-1.7-0.1-1.7-1.2C315.3,91.5,315.3,90.6,315.3,89.4z"/>
	<path class="st2" d="M319.1,101.7c-0.4,1.2,1.2,3.9-2.2,3.7c-1.1-0.1-1.7-0.4-1.7-1.6c0-1.2,0-2.4,0-3.6c-0.1-1.5-0.1-2.7,2.1-2.6
		c2.1,0,1.8,1.3,1.8,2.6C319.1,100.5,319.1,101,319.1,101.7z"/>
	<path class="st2" d="M319.1,113.3c-0.4,1.2,1.2,3.9-2.2,3.7c-1.1-0.1-1.7-0.4-1.7-1.6c0-1.2,0-2.4,0-3.6c-0.1-1.5-0.1-2.7,2.1-2.6
		c2.1,0,1.8,1.3,1.8,2.6C319.1,112.2,319.1,112.6,319.1,113.3z"/>
	<path class="st2" d="M315.3,124.3c0.2-1.4-0.9-4,2.5-3.5c0.6,0.1,1.2,0.1,1.2,0.8c0.1,2,0.1,4,0,6c-0.1,1.2-1.2,0.8-2,0.9
		c-0.9,0.1-1.7-0.1-1.7-1.2C315.3,126.4,315.3,125.5,315.3,124.3z"/>
	<path class="st2" d="M319.1,136.6c-0.4,1.2,1.2,3.9-2.2,3.6c-1.1-0.1-1.7-0.4-1.7-1.6c0-1.2,0-2.4,0-3.6c-0.1-1.5-0.1-2.7,2.1-2.6
		c2.1,0,1.8,1.3,1.8,2.6C319.1,135.5,319.1,135.9,319.1,136.6z"/>
	<path class="st2" d="M319.1,148.1c0,0.6,0,1.3,0,1.9c0.1,1.5-0.7,1.8-2,1.8c-1.2,0-1.9-0.3-1.9-1.7c0.1-1.2,0-2.4,0-3.6
		c0-1.3-0.1-2.5,1.9-2.5c1.9,0,2.1,1,2,2.4C319.1,147,319.1,147.6,319.1,148.1z"/>
	<path class="st2" d="M319.1,159.8c-0.5,1.2,1.2,3.9-2.2,3.7c-1.1-0.1-1.7-0.4-1.7-1.6c0-1.2,0-2.4,0-3.6c0-1.5-0.1-2.7,2.1-2.7
		c2.1,0,1.8,1.3,1.8,2.6C319.1,158.7,319.1,159.2,319.1,159.8z"/>
	<path class="st2" d="M315.3,170.8c0.2-1.4-0.9-4,2.5-3.5c0.6,0.1,1.2,0.1,1.2,0.8c0.1,2,0.1,4,0,6c-0.1,1.2-1.2,0.8-2,0.9
		c-0.9,0.1-1.7,0-1.7-1.2C315.3,172.9,315.3,172,315.3,170.8z"/>
	<path class="st2" d="M319.1,183.1c-0.5,1.2,1.2,3.8-2.2,3.7c-1.1-0.1-1.7-0.4-1.7-1.6c0-1.4,0.1-2.8,0-4.1
		c-0.1-1.5,0.5-2.1,2.1-2.1c1.5,0,2,0.7,1.8,2C319.1,181.6,319.1,182.2,319.1,183.1z"/>
	<path class="st2" d="M319.1,194.8c-0.4,1.3,1.2,3.9-2.2,3.6c-1.1-0.1-1.7-0.4-1.7-1.6c0-1.2,0-2.4,0-3.6c-0.1-1.5,0-2.7,2.1-2.6
		c2.1,0.1,1.8,1.4,1.8,2.6C319.1,193.6,319.1,194.1,319.1,194.8z"/>
	<path class="st2" d="M319.1,206.4c-0.5,1.2,1.3,3.8-2.2,3.7c-1.3-0.1-1.8-0.6-1.7-1.8c0.1-1.4,0.1-2.8,0-4.1
		c-0.1-1.5,0.7-1.8,2-1.8c1.2,0,2,0.3,1.9,1.7C319.1,204.7,319.1,205.4,319.1,206.4z"/>
	<path class="st2" d="M319.1,218c-0.5,1.2,1.2,3.9-2.2,3.7c-1.1-0.1-1.7-0.4-1.7-1.6c0-1.2,0-2.4,0-3.6c0-1.5-0.1-2.7,2.1-2.7
		c2,0,1.8,1.3,1.8,2.6C319.1,216.9,319.1,217.3,319.1,218z"/>
	<path class="st2" d="M315.3,241.2c0.1-1.5-0.9-4,2.5-3.5c0.6,0.1,1.2,0.2,1.2,0.8c0.1,2,0.1,4,0,6c-0.1,1.2-1.2,0.8-2,0.9
		c-0.9,0.1-1.7-0.1-1.7-1.2C315.3,243.2,315.3,242.3,315.3,241.2z"/>
	<path class="st2" d="M319.1,253.4c-0.4,1.3,1.2,3.9-2.2,3.6c-1.1-0.1-1.7-0.4-1.7-1.6c0-1.2,0-2.4,0-3.6c-0.1-1.5,0-2.7,2.1-2.6
		c2.1,0.1,1.8,1.4,1.8,2.6C319.1,252.3,319.1,252.8,319.1,253.4z"/>
	<path class="st2" d="M315.3,264.4c0.2-1.4-0.9-4,2.5-3.5c0.6,0.1,1.2,0.1,1.2,0.8c0.1,2,0.1,4,0,6c-0.1,1.2-1.2,0.8-2,0.9
		c-0.9,0.1-1.7-0.1-1.7-1.2C315.3,266.5,315.3,265.6,315.3,264.4z"/>
	<path class="st2" d="M315.3,276.1c0.1-0.9-0.4-2.2,0.3-3.1c0.6-0.8,1.7-0.4,2.6-0.4c0.8,0.1,0.9,0.7,1,1.4c0,1.2,0,2.4,0,3.6
		c0,1.4,0.3,2.7-2,2.7c-2.3,0-1.9-1.4-1.9-2.8C315.3,277.1,315.3,276.7,315.3,276.1z"/>
	<path class="st2" d="M319.1,288.2c-0.3,1.4,1.2,4.2-2.5,3.7c-0.6-0.1-1.2-0.1-1.2-0.8c-0.1-2-0.1-4,0-6c0.1-1.2,1.2-0.8,2-0.9
		c0.9-0.1,1.7,0.1,1.7,1.2C319.1,286.3,319.1,287.1,319.1,288.2z"/>
</g>
</svg>
