<?xml version="1.0" encoding="utf-8"?>
<!-- Generator: Adobe Illustrator 22.1.0, SVG Export Plug-In . SVG Version: 6.00 Build 0)  -->
<svg version="1.1" id="图层_1" xmlns="http://www.w3.org/2000/svg" xmlns:xlink="http://www.w3.org/1999/xlink" x="0px" y="0px"
	 viewBox="0 0 633.6 198.6" style="enable-background:new 0 0 633.6 198.6;" xml:space="preserve">
<style type="text/css">
	.st0{fill:#FB766B;}
	.st1{fill:#FEFDFD;}
	.st2{fill:#FEFCFC;}
	.st3{fill:#FEFDFC;}
	.st4{fill:#FEFEFD;}
	.st5{fill:#FEFEFE;}
</style>
<g>
	<path class="st0" d="M425.5,198.5c-68.7,0-137.3,0-206,0c-1.6,0-2.2-0.4-2.5-2c-0.9-5.2-4.1-8.5-9.3-9.6c-1.3-0.3-1.7-0.7-1.5-2
		c0.1-0.9,0-1.5-1.3-1.5c-1.3,0-1.4,0.7-1.2,1.6c0.2,1.3-0.3,1.7-1.5,2c-5.3,1.3-8.6,5-9.2,10.4c-0.1,0.9-0.4,1.3-1.3,1.2
		c-0.4,0-0.8,0-1.3,0c-61.4,0-122.8,0-184.2,0c-1.5,0-3.1,0-4.6-0.1c-2.9-0.2-1-2.4-1.4-3.7c-0.3-0.9-0.4-2.1,1.4-2
		c4.7,0.1,8.1-3.3,8.2-7.6c0.1-4.4-3.4-8-7.8-8c-1.6,0-2-0.5-1.8-1.9c0.1-1.1-0.3-2.4,0.2-3.4c0.5-1.2,2-0.4,3.1-0.6
		c4-0.8,6.8-4.5,6.4-8.6c-0.4-4-3.8-7.1-7.9-7c-1.5,0-1.9-0.5-1.7-1.8c0-0.2,0-0.4,0-0.5c0-1-0.3-2.2,0.1-3c0.5-1,1.8-0.3,2.8-0.5
		c4-0.6,6.9-4.2,6.7-8.4c-0.2-3.9-3.7-7.3-7.7-7.2c-1.8,0-2.2-0.6-2-2.1c0-0.2,0-0.5,0-0.7c0-2.7,0-2.7,2.7-3c4-0.4,7.1-4,7-8.1
		c-0.1-4-3.5-7.6-7.4-7.5c-2,0-2.5-0.6-2.3-2.4c0.1-0.3,0-0.7,0-1.1c-0.2-1.7,0.2-2.5,2.2-2.4c4.1,0.1,7.4-3.6,7.4-7.8
		c0-4.2-3.4-7.8-7.5-7.8c-1.9,0-2.4-0.6-2.2-2.3c0-0.3,0-0.6,0-0.9c0-2.4,0-2.4,2.5-2.6c4-0.3,7.2-3.8,7.2-8c0-4.1-3.4-7.7-7.4-7.7
		c-2,0-2.5-0.6-2.2-2.4c0-0.1,0-0.2,0-0.4c0-2.8,0-2.8,2.8-3.1c4-0.5,7-4.1,6.9-8.2c-0.1-3.9-3.6-7.5-7.5-7.4c-2,0-2.4-0.6-2.1-2.3
		c0-0.3,0-0.6,0-0.9c0-2.4,0-2.4,2.5-2.6c4-0.3,7.2-3.9,7.2-8c0-4.1-3.4-7.7-7.4-7.7c-2,0-2.5-0.7-2.2-2.4c0-0.1,0-0.2,0-0.4
		c0-2.8,0-2.8,2.8-3.1c4-0.5,7-4.1,6.9-8.2C9.7,8.9,6.3,5.4,2.3,5.5c-2,0.1-2.2-0.7-2.2-2.3C0.3,0,0.2,0,3.4,0C66,0,128.5,0,191,0
		c1.5,0,1.9,0.4,2.1,1.9c0.6,4.8,4.2,8.8,9,9.9c1.2,0.3,1.8,0.7,1.6,2c-0.2,1.1,0.4,1.3,1.3,1.3c1,0,1.3-0.4,1.2-1.3
		c-0.2-1.2,0.3-1.6,1.4-1.9c5.5-1.3,8.7-4.9,9.5-10.5c0.2-1.2,0.5-1.6,1.6-1.4c0.3,0,0.6,0,0.9,0C356.8,0,494,0,631.1,0
		c2.5,0,2.5,0,2.5,2.4c0,64.6,0,129.1,0,193.7c0,2.8,0.4,2.4-2.3,2.4C562.7,198.5,494.1,198.5,425.5,198.5z"/>
	<path class="st1" d="M203.7,20c0.1-1-0.7-2.7,1.7-2.4c0.5,0.1,0.8,0.2,0.8,0.7c0,1.2,0,2.4,0,3.6c0,0.8-0.6,0.7-1.1,0.7
		c-0.5,0-1.3,0.3-1.3-0.7C203.7,21.3,203.7,20.7,203.7,20z"/>
	<path class="st1" d="M203.7,27.5c0.1-1-0.7-2.7,1.7-2.4c0.5,0.1,0.8,0.2,0.8,0.7c0,1.2,0,2.4,0,3.6c0,0.8-0.6,0.7-1.1,0.7
		c-0.5,0-1.3,0.3-1.3-0.7C203.7,28.8,203.7,28.2,203.7,27.5z"/>
	<path class="st1" d="M203.7,35c0.2-1-0.7-2.7,1.7-2.4c0.6,0.1,0.8,0.3,0.8,0.9c0,1.1,0,2.1,0,3.2c0,0.9-0.5,1-1.2,0.9
		c-0.6,0-1.4,0.2-1.4-0.9C203.7,36.2,203.7,35.7,203.7,35z"/>
	<path class="st2" d="M203.7,42.5c0-1.1-0.5-2.7,1.7-2.4c0.6,0.1,0.8,0.3,0.8,0.9c0,1.1,0,2.1,0,3.2c0,0.9-0.5,1-1.1,0.9
		c-0.6,0-1.4,0.2-1.4-0.9C203.7,43.7,203.7,43.1,203.7,42.5z"/>
	<path class="st2" d="M203.7,50.1c0.1-1.1-0.5-2.7,1.7-2.4c0.6,0.1,0.8,0.3,0.8,0.9c0,1.1,0,2.1,0,3.2c0,0.9-0.5,1-1.1,0.9
		c-0.6,0-1.4,0.2-1.4-0.9C203.7,51.3,203.7,50.7,203.7,50.1z"/>
	<path class="st2" d="M203.7,57.7c0.2-0.9-0.7-2.6,1.6-2.3c0.7,0.1,1,0.3,0.9,1c0,1,0,2,0,3c0.1,0.9-0.5,1-1.2,1.1
		c-0.8,0-1.4-0.1-1.3-1.1C203.8,58.8,203.7,58.3,203.7,57.7z"/>
	<path class="st3" d="M203.7,65.2c0.2-0.9-0.7-2.6,1.6-2.3c0.7,0.1,1,0.3,0.9,1c0,1,0,2,0,3c0.1,0.9-0.5,1.1-1.2,1.1
		c-0.8,0-1.4-0.1-1.3-1.1C203.8,66.3,203.7,65.9,203.7,65.2z"/>
	<path class="st1" d="M203.7,72.8c0.2-0.9-0.8-2.6,1.6-2.4c0.7,0.1,1,0.2,1,0.9c0,0.8,0,1.5,0,2.3c0,0.8,0.3,1.8-1.2,1.8
		c-1.6,0-1.3-1-1.3-1.9C203.7,73.4,203.7,73.2,203.7,72.8z"/>
	<path class="st1" d="M203.7,80.3c0.2-0.9-0.8-2.6,1.5-2.4c0.7,0.1,1,0.2,1,0.9c0,1-0.1,2,0,3c0.1,0.9-0.4,1.1-1.2,1.1
		c-0.8,0-1.4-0.1-1.3-1.1C203.8,81.4,203.7,80.9,203.7,80.3z"/>
	<path class="st4" d="M203.7,87.9c0.2-0.9-0.8-2.7,1.6-2.4c0.7,0.1,0.9,0.3,0.9,1c0,0.8,0,1.5,0,2.3c0,0.8,0.4,1.8-1.2,1.8
		c-1.5,0-1.4-0.9-1.3-1.8C203.7,88.5,203.7,88.3,203.7,87.9z"/>
	<path class="st5" d="M203.7,95.6c0-0.6,0-1.2,0-1.8c0-1,0.7-0.8,1.2-0.8c0.6,0,1.3-0.2,1.3,0.8c0,0.8,0,1.7,0,2.5
		c0,0.9,0.2,1.8-1.3,1.8c-1.5,0-1.1-1-1.2-1.8C203.7,96,203.7,95.8,203.7,95.6C203.7,95.6,203.7,95.6,203.7,95.6z"/>
	<path class="st5" d="M206.2,103c0,0.6,0,1.2,0,1.8c0,1-0.7,0.8-1.2,0.8c-0.6,0-1.3,0.2-1.3-0.8c0-0.8,0-1.7,0-2.5
		c0-0.9-0.2-1.8,1.3-1.8c1.5,0,1.1,1,1.2,1.8C206.2,102.5,206.2,102.8,206.2,103C206.2,103,206.2,103,206.2,103z"/>
	<path class="st4" d="M203.7,110.4c0.3-0.8-0.9-2.6,1.5-2.4c0.7,0.1,1.1,0.2,1,1c0,1-0.1,2,0,3c0.1,1-0.5,1-1.2,1
		c-0.8,0-1.4,0-1.3-1.1C203.8,111.5,203.7,111.1,203.7,110.4z"/>
	<path class="st1" d="M206.2,118.3c-0.2,0.9,0.7,2.6-1.6,2.3c-0.7-0.1-0.9-0.3-0.9-1c0-1,0.1-1.9,0-2.9c-0.1-1,0.3-1.2,1.2-1.2
		c0.8,0,1.4,0.1,1.3,1.2C206.2,117.2,206.2,117.7,206.2,118.3z"/>
	<path class="st1" d="M206.2,125.8c0,2.3-0.3,2.7-1.8,2.4c-0.3-0.1-0.6-0.1-0.6-0.5c0-1.4-0.1-2.7,0.1-4.1c0.1-0.8,1-0.4,1.5-0.4
		c0.6-0.1,0.9,0.2,0.9,0.8C206.2,124.6,206.2,125.2,206.2,125.8z"/>
	<path class="st3" d="M206.2,133.4c-0.3,0.8,0.8,2.5-1.4,2.3c-0.7-0.1-1.1-0.2-1.1-1c0-0.8,0-1.5,0-2.3c0-0.9-0.2-1.7,1.3-1.7
		c1.5,0,1.2,0.9,1.2,1.8C206.2,132.7,206.2,133,206.2,133.4z"/>
	<path class="st2" d="M203.7,140.4c0.1-0.6-0.3-1.4,0.2-2c0.4-0.5,1.1-0.2,1.7-0.2c0.7,0,0.6,0.6,0.6,1.1c0,0.7,0,1.4,0,2.1
		c0,0.9,0.2,1.9-1.3,1.8c-1.5,0-1.1-1-1.2-1.8C203.7,141.1,203.7,140.8,203.7,140.4z"/>
	<path class="st2" d="M206.2,148.5c-0.1,1,0.7,2.7-1.7,2.4c-0.5-0.1-0.8-0.2-0.8-0.7c0-1.2,0-2.4,0-3.6c0-0.8,0.6-0.7,1.1-0.7
		c0.5,0,1.3-0.2,1.3,0.7C206.2,147.2,206.2,147.8,206.2,148.5z"/>
	<path class="st2" d="M206.2,156.1c-0.2,0.8,0.8,2.5-1.5,2.3c-0.7-0.1-1.1-0.3-1.1-1c0-0.8,0-1.7,0-2.5c-0.1-0.9,0.1-1.5,1.3-1.5
		c1.3,0,1.3,0.7,1.2,1.6C206.2,155.3,206.2,155.6,206.2,156.1z"/>
	<path class="st1" d="M206.2,163.5c-0.1,1,0.7,2.7-1.7,2.4c-0.5-0.1-0.8-0.2-0.8-0.7c0-1.2,0-2.4,0-3.6c0-0.8,0.6-0.7,1.1-0.7
		c0.5,0,1.3-0.3,1.3,0.7C206.2,162.2,206.2,162.8,206.2,163.5z"/>
	<path class="st1" d="M203.7,170.8c0-2.4,0.3-2.7,1.8-2.4c0.3,0.1,0.6,0.1,0.6,0.5c0,1.4,0.1,2.7,0,4.1c-0.1,0.8-1,0.4-1.5,0.4
		c-0.6,0.1-0.9-0.2-0.9-0.8C203.7,172,203.7,171.4,203.7,170.8z"/>
	<path class="st1" d="M206.2,178.5c-0.1,1.1,0.7,2.9-1.7,2.5c-0.5-0.1-0.8-0.2-0.8-0.7c0-1.1,0-2.3,0-3.4c0-1.1,0.7-0.9,1.4-0.9
		c0.6,0,1.2,0,1.2,0.9C206.2,177.4,206.2,178,206.2,178.5z"/>
</g>
</svg>
