<?xml version="1.0" encoding="utf-8"?>
<!-- Generator: Adobe Illustrator 22.1.0, SVG Export Plug-In . SVG Version: 6.00 Build 0)  -->
<svg version="1.1" id="图层_1" xmlns="http://www.w3.org/2000/svg" xmlns:xlink="http://www.w3.org/1999/xlink" x="0px" y="0px"
	 viewBox="0 0 64 64" style="enable-background:new 0 0 64 64;" xml:space="preserve">
<style type="text/css">
	.st0{fill:#707070;}
</style>
<path class="st0" d="M10.3,54.5c-3,0-5.4-2.4-5.4-5.4v-8.6c0-0.8,0.2-2.7,2.1-3.8l0.3-0.1c1.7-0.6,3.5-1.6,3.5-4.7
	c0-2.6-2.3-4.1-3.7-4.7c-2.1-1.1-2.1-2.7-2.1-3.9v-8.6c0-3,2.4-5.4,5.4-5.4h43.3c3,0,5.4,2.4,5.4,5.4v8.6c0,1.5-0.1,2.6-1.9,3.8
	c-3,1.6-3.8,2.6-3.8,4.8c0,1.9,0.6,3.1,3.7,4.7l0.2,0.1c1.2,0.9,1.9,1.7,1.9,3.7v8.6c0,3-2.4,5.4-5.4,5.4H10.3z M10.3,11.7
	c-1.8,0-3.2,1.4-3.2,3.2v8.6c0,1.2,0.1,1.5,0.9,1.9c3.1,1.4,4.9,3.9,4.9,6.7c0,3.3-1.6,5.6-4.8,6.7l-0.1,0l-0.1,0
	c-0.7,0.5-0.9,1.4-0.9,1.8v8.6c0,1.8,1.5,3.2,3.2,3.2h43.3c1.8,0,3.2-1.4,3.2-3.2v-8.6c0-1.1-0.1-1.3-0.9-1.9
	c-3-1.5-4.9-3.2-4.9-6.7c0-3.4,1.7-5,4.9-6.7c0.8-0.6,0.9-0.8,0.9-1.9v-8.6c0-1.8-1.5-3.2-3.2-3.2H10.3z"/>
<path class="st0" d="M31.2,43.8c-0.2,0-0.3-0.1-0.3-0.3v-5.8h-7.3c-0.2,0-0.3-0.2-0.3-0.3v-1.5c0-0.2,0.1-0.3,0.3-0.3h7.3v-3.9h-7.3
	c-0.2,0-0.3-0.1-0.3-0.3v-1.5c0-0.2,0.1-0.3,0.3-0.3h6.8l-7-7.5c-0.1-0.1-0.1-0.4,0-0.5l1-1.1c0-0.1,0.1-0.1,0.2-0.1
	c0,0,0.1,0,0.2,0.1l7.3,7.8l7.3-7.8c0.1-0.1,0.1-0.1,0.2-0.1c0.1,0,0.1,0,0.2,0.1l1,1.1c0.1,0.1,0.1,0.4,0,0.5l-6.9,7.5h6.8
	c0.1,0,0.2,0,0.2,0.1c0.1,0.1,0.1,0.1,0.1,0.2v1.5c0,0.2-0.1,0.3-0.3,0.3h-7.3v3.9h7.3c0.2,0,0.3,0.1,0.3,0.3v1.5
	c0,0.2-0.1,0.3-0.3,0.3h-7.3v5.8c0,0.2-0.1,0.3-0.3,0.3H31.2z"/>
</svg>
