<?xml version="1.0" encoding="utf-8"?>
<!-- Generator: Adobe Illustrator 23.0.3, SVG Export Plug-In . SVG Version: 6.00 Build 0)  -->
<svg version="1.1" id="图层_1" xmlns="http://www.w3.org/2000/svg" xmlns:xlink="http://www.w3.org/1999/xlink" x="0px" y="0px"
	 width="64px" height="64px" viewBox="0 0 64 64" style="enable-background:new 0 0 64 64;" xml:space="preserve">
<style type="text/css">
	.st0{fill:#707070;}
</style>
<path class="st0" d="M54.2,46.2l-0.4-0.1l-0.1-0.4c-1.1-3.4-2.8-6.3-5.1-8.6c-2-2-4.3-3.6-7-4.7c-3.3-1.4-6.4-1.8-7.9-1.9l-0.6,0
	v-6.4c0,0,0-0.1,0-0.1L33,23.4l0.6-0.1c4.6-0.8,7.9-4.8,7.9-9.4c0-5.3-4.3-9.6-9.5-9.6s-9.5,4.3-9.5,9.6c0,4.6,3.3,8.6,7.8,9.4
	l0.6,0.1L30.8,24c0,0.1,0,0.1,0,0.2v6.4l-0.6,0c-1.5,0.1-4.5,0.5-7.9,1.9c-2.7,1.1-5.1,2.7-7,4.7c-2.3,2.3-4,5.2-5.1,8.6L10,46.1
	l-0.4,0.1c-3.1,0.7-5.4,3.5-5.4,6.7c0,3.8,3.1,6.8,6.8,6.8c3.8,0,6.8-3.1,6.8-6.8c0-3-1.9-5.6-4.8-6.5l-0.7-0.2l0.2-0.6
	c1.9-5.1,5.4-8.8,10.4-10.9c2.9-1.3,5.6-1.6,7-1.7l0.7-0.1v13.3l-0.5,0.1c-3,0.8-5.2,3.5-5.2,6.6c0,3.8,3.1,6.8,6.8,6.8
	c3.8,0,6.8-3.1,6.8-6.8c0-3.1-2.1-5.9-5.2-6.6l-0.5-0.1V32.8l0.7,0.1c1.3,0.1,4,0.5,6.9,1.7c5.1,2.1,8.6,5.8,10.5,11l0.2,0.6
	l-0.6,0.2c-2.8,0.9-4.7,3.5-4.7,6.5c0,3.8,3.1,6.8,6.8,6.8c3.8,0,6.8-3.1,6.8-6.8C59.7,49.6,57.4,46.8,54.2,46.2z M15.6,52.9
	c0,2.5-2,4.5-4.5,4.5c-2.5,0-4.5-2-4.5-4.5c0-2.5,2-4.5,4.5-4.5C13.6,48.4,15.6,50.4,15.6,52.9z M24.8,13.8c0-4,3.2-7.2,7.2-7.2
	c4,0,7.2,3.2,7.2,7.2c0,4-3.2,7.2-7.2,7.2C28,21.1,24.8,17.8,24.8,13.8z M36.5,52.9c0,2.5-2,4.5-4.5,4.5s-4.5-2-4.5-4.5
	c0-2.5,2-4.5,4.5-4.5C34.4,48.4,36.5,50.4,36.5,52.9z M52.9,57.4c-2.5,0-4.5-2-4.5-4.5c0-2.5,2-4.5,4.5-4.5s4.5,2,4.5,4.5
	C57.4,55.4,55.4,57.4,52.9,57.4L52.9,57.4z"/>
</svg>
