<?xml version="1.0" encoding="utf-8"?>
<!-- Generator: Adobe Illustrator 23.0.3, SVG Export Plug-In . SVG Version: 6.00 Build 0)  -->
<svg version="1.1" id="图层_1" xmlns="http://www.w3.org/2000/svg" xmlns:xlink="http://www.w3.org/1999/xlink" x="0px" y="0px"
	 width="64px" height="64px" viewBox="0 0 64 64" style="enable-background:new 0 0 64 64;" xml:space="preserve">
<style type="text/css">
	.st0{fill:#5C5C5C;}
	.st1{fill:#3E3A39;}
	.st2{fill:#F7BD75;}
	.st3{fill:#EE8086;}
	.st4{fill:#FAD0AD;}
</style>
<path class="st0" d="M42.2,58.3c-7.3,0-13.2-2.7-13.2-6.1V52h-0.5c-10.9,0-19.8-3.9-19.8-8.6V28.8c0,0,0-0.1,0-0.1V14.2
	c0-0.2,0-0.4,0-0.6V13c1.2-4.3,9.5-7.3,19.8-7.3c10.6,0,18.2,2.9,19.5,7.3v13.2c4.1,0.8,6.7,2.5,7.3,4.6v21.4
	C55.3,55.6,49.4,58.3,42.2,58.3z M31.3,52.2c0,1.2,4.2,3.7,10.9,3.7s10.7-2.5,10.7-3.7v-6.3c-2.6,1.6-5.7,2.6-8.8,2.7
	c-0.7,0-1.3,0.1-2,0.1c-0.7,0-1.6,0-2.5-0.1c-2.9-0.1-5.8-1.1-8.3-2.6L31.3,52.2z M11.1,43.4c0,2.5,6.8,6.2,17.4,6.2H29V37.8h-0.7
	c-7.2,0-13.9-1.8-17.2-4.7V43.4z M31.3,42.3c0.5,1.9,4.7,4,10.8,4h1.4c1.1-0.1,2.1-0.2,3.2-0.4c3.4-0.7,5.8-2.1,6.2-3.6v-7
	c-1.5,1-3.3,1.8-5.1,2.1c-0.6,0.1-1.2,0.3-1.9,0.4c-1.3,0.2-2.5,0.3-3.8,0.3c-2.3,0-4.5-0.3-6.7-0.9c-1.2-0.3-2.4-0.8-3.5-1.4
	l-0.6-0.4L31.3,42.3z M42.2,28c-6.4,0-10.3,1.9-10.9,3.3v0.1c0,0.1,0,0.2,0,0.4c0.1,0.4,0.3,0.7,0.6,1c1.1,1,2.3,1.6,3.7,2
	c1.4,0.4,2.8,0.7,4.2,0.8c0.8,0.1,1.5,0.1,2.2,0.1c1.2,0,2.5-0.1,3.7-0.3c0.7-0.1,1.2-0.2,1.8-0.4c2.9-0.7,4.9-2,5.2-3.4
	c0-0.1,0-0.3,0-0.4c-0.5-1.1-2.5-2.2-5.3-2.8c-0.6-0.1-1.2-0.2-1.9-0.3C44.6,28.1,43.4,28,42.2,28L42.2,28z M11.1,28.8
	c0.1,3.2,7.1,6.7,17.2,6.7H29v-4.6c0.8-3,6.4-5.2,13.2-5.2c1.1,0,2.3,0.1,3.4,0.2V18c-3.4,2.9-10,4.7-17.3,4.7S14.4,21,11.1,18.2
	L11.1,28.8z M28.5,8c-9.6,0-16.4,2.7-17.4,5.4v0.5c0.1,0.8,0.4,1.5,1,2c2.6,2.7,9.1,4.5,16.3,4.5c10.2,0,17.3-3.6,17.3-6.8v-0.3
	C44.5,10.3,37.3,8,28.5,8z"/>
<path class="st0" d="M42.2,58.2c-7.2,0-13.1-2.7-13.1-6v-0.3h-0.6c-10.8,0-19.6-3.8-19.6-8.4V28.8c0,0,0-0.1,0-0.1V14.2
	c0-0.2,0-0.4,0-0.6V13c1.2-4.2,9.4-7.2,19.6-7.2C39,5.8,46.6,8.6,47.9,13v13.3c4.1,0.8,6.7,2.5,7.3,4.5v21.4
	C55.2,55.5,49.3,58.2,42.2,58.2z M31.2,52.2c0,1.4,4.2,3.9,11,3.9S53,53.6,53,52.2v-6.6c-2.7,1.7-5.7,2.7-8.9,2.8
	c-0.7,0-1.3,0.1-2,0.1s-1.6,0-2.5-0.1c-3-0.1-5.9-1.1-8.4-2.8L31.2,52.2z M11,43.4c0,2.6,6.8,6.3,17.5,6.3h0.6V37.7h-0.8
	c-7.4,0-14.1-1.9-17.3-4.9L11,43.4z M31.2,42.3c0.5,2,4.7,4.1,10.8,4.1h1.4c1.1-0.1,2.2-0.2,3.2-0.4c3.4-0.7,5.9-2.1,6.3-3.7v-7.3
	c-1.6,1.1-3.4,1.9-5.2,2.3c-0.6,0.1-1.2,0.3-1.9,0.3c-1.3,0.2-2.5,0.3-3.8,0.3c-2.3,0-4.5-0.3-6.7-0.9c-1.2-0.3-2.4-0.8-3.4-1.4
	c-0.3-0.2-0.5-0.3-0.8-0.5L31.2,42.3z M42.2,27.9c-6.5,0-10.4,2-11,3.3v0.2c0,0.1,0,0.3,0,0.4c0.1,0.4,0.3,0.8,0.6,1.1
	c1.1,1,2.3,1.7,3.7,2c1.4,0.4,2.8,0.7,4.2,0.8c0.8,0.1,1.5,0.1,2.2,0.1c1.3,0,2.5-0.1,3.8-0.3c0.7-0.1,1.2-0.2,1.9-0.4
	c2.9-0.7,4.9-2.1,5.3-3.4c0-0.1,0-0.3,0-0.4v-0.1c-0.5-1.1-2.5-2.2-5.3-2.8c-0.6-0.1-1.2-0.2-1.9-0.3C44.6,28,43.4,27.9,42.2,27.9z
	 M11,28.8c0.1,3.3,7.1,6.8,17.3,6.8h0.8v-4.7c0.8-3,6.3-5.1,13.1-5.1c1.2,0,2.4,0.1,3.6,0.2v-8.2c-3.3,3-9.9,4.9-17.4,4.9
	S14.2,20.9,11,18L11,28.8z M28.5,7.9c-9.6,0-16.5,2.7-17.5,5.4v0.5c0.1,0.8,0.4,1.5,1,2.1c2.6,2.7,9.1,4.5,16.3,4.5
	c10.3,0,17.4-3.6,17.4-6.9c0,0,0,0,0-0.1v-0.3C44.5,10.2,37.3,7.9,28.5,7.9z"/>
<path class="st1" d="M42.2,58.2c-7.2,0-13.1-2.7-13.1-6v-0.3h-0.6c-10.8,0-19.6-3.8-19.6-8.4V14.2c0-0.2,0-0.4,0-0.6V13
	c1.2-4.2,9.4-7.2,19.6-7.2C39,5.8,46.6,8.6,47.9,13v13.3c4.1,0.8,6.7,2.5,7.3,4.5v21.4C55.2,55.5,49.3,58.2,42.2,58.2z M31.2,52.2
	c0,1.4,4.2,3.9,11,3.9S53,53.6,53,52.2v-6.6c-2.7,1.7-5.7,2.7-8.9,2.8c-0.7,0-1.3,0.1-2,0.1s-1.6,0-2.5-0.1c-3-0.1-5.9-1.1-8.4-2.8
	L31.2,52.2z M11,43.4c0,2.6,6.8,6.3,17.5,6.3h0.6V37.7h-0.8c-7.4,0-14.1-1.9-17.3-4.9L11,43.4z M31.2,42.3c0.5,2,4.7,4.1,10.8,4.1
	h1.4c1.1-0.1,2.2-0.2,3.2-0.4c3.4-0.7,5.9-2.1,6.3-3.7v-7.3c-1.6,1.1-3.4,1.9-5.2,2.3c-0.6,0.1-1.2,0.3-1.9,0.3
	c-1.3,0.2-2.5,0.3-3.8,0.3c-2.3,0-4.5-0.3-6.7-0.9c-1.2-0.3-2.4-0.8-3.4-1.4c-0.3-0.2-0.5-0.3-0.8-0.5L31.2,42.3z M42.2,27.9
	c-6.5,0-10.4,2-11,3.3v0.2c0,0.1,0,0.3,0,0.4c0.1,0.4,0.3,0.8,0.6,1.1c1.1,1,2.3,1.7,3.7,2c1.4,0.4,2.8,0.7,4.2,0.8
	c0.8,0.1,1.5,0.1,2.2,0.1c1.3,0,2.5-0.1,3.8-0.3c0.7-0.1,1.2-0.2,1.9-0.4c2.9-0.7,4.9-2.1,5.3-3.4c0-0.1,0-0.3,0-0.4v-0.1
	c-0.5-1.1-2.5-2.2-5.3-2.8c-0.6-0.1-1.2-0.2-1.9-0.3C44.6,28,43.4,27.9,42.2,27.9z M11,28.8c0.1,3.3,7.1,6.8,17.3,6.8h0.8v-4.7
	c0.8-3,6.3-5.1,13.1-5.1c1.2,0,2.4,0.1,3.6,0.2v-8.2c-3.3,3-9.9,4.9-17.4,4.9S14.2,20.9,11,18L11,28.8z M28.5,7.9
	c-9.6,0-16.5,2.7-17.5,5.4v0.5c0.1,0.8,0.4,1.5,1,2.1c2.6,2.7,9.1,4.5,16.3,4.5c10.3,0,17.4-3.6,17.4-6.9v-0.3
	C44.5,10.2,37.3,7.9,28.5,7.9z"/>
<path class="st2" d="M29.2,30.9v4.8h-0.9c-10.3,0-17.3-3.6-17.5-6.9V17.7c3.1,3,9.9,4.9,17.5,4.9c7.9,0,14.5-2,17.6-5.1v8.6
	c-1.2-0.1-2.5-0.2-3.7-0.2C35.8,25.9,30,27.9,29.2,30.9L29.2,30.9z"/>
<path class="st3" d="M10.9,13.3c1-2.7,7.9-5.5,17.6-5.5c9,0,16.2,2.3,17.4,5.5v0.3c0,3.3-7.2,7-17.5,7c-7.2,0-13.8-1.9-16.4-4.6
	c-0.6-0.6-1-1.3-1-2.2v-0.2L10.9,13.3z"/>
<path class="st4" d="M28.5,49.9c-10.8,0-17.6-3.8-17.6-6.5V32.6c3.1,3,9.6,5,17.5,5h0.9v12.3L28.5,49.9z"/>
</svg>
