<?xml version="1.0" encoding="utf-8"?>
<!-- Generator: Adobe Illustrator 22.1.0, SVG Export Plug-In . SVG Version: 6.00 Build 0)  -->
<svg version="1.1" id="图层_1" xmlns="http://www.w3.org/2000/svg" xmlns:xlink="http://www.w3.org/1999/xlink" x="0px" y="0px"
	 viewBox="0 0 64 64" style="enable-background:new 0 0 64 64;" xml:space="preserve">
<style type="text/css">
	.st0{fill:#707070;}
</style>
<path class="st0" d="M24.9,43.5c-0.4,0-0.7-0.1-1-0.4c-0.6-0.6-0.6-1.5,0-2.1l26.6-26.6c0.6-0.6,1.5-0.6,2.1,0
	c0.6,0.6,0.6,1.5,0,2.1L25.9,43.1C25.6,43.4,25.2,43.5,24.9,43.5z"/>
<path class="st0" d="M52.7,32c-0.9,0-1.5,0.6-1.5,1.5v14.8c0,1.6-1.3,3-3,3H15.7c-1.6,0-3-1.3-3-3V15.7c0-1.6,1.3-3,3-3h14.8
	c0.9,0,1.5-0.6,1.5-1.5c0-0.9-0.6-1.5-1.5-1.5H15.7c-3.3,0-5.9,2.7-5.9,5.9v32.5c0,3.3,2.7,5.9,5.9,5.9h32.5c3.3,0,5.9-2.7,5.9-5.9
	V33.5C54.2,32.6,53.6,32,52.7,32z"/>
</svg>
