<?xml version="1.0" encoding="utf-8"?>
<!-- Generator: Adobe Illustrator 22.1.0, SVG Export Plug-In . SVG Version: 6.00 Build 0)  -->
<svg version="1.1" id="图层_1" xmlns="http://www.w3.org/2000/svg" xmlns:xlink="http://www.w3.org/1999/xlink" x="0px" y="0px"
	 viewBox="0 0 720 376.4" style="enable-background:new 0 0 720 376.4;" xml:space="preserve">
<style type="text/css">
	.st0{fill:#FFFFFF;}
	.st1{fill:#DCDCDC;}
</style>
<g>
	<path class="st0" d="M0.2,266.2c10.4,1.4,15.6,6.2,15.7,14.2c0.1,8.2-4.9,13-15.9,14.8c0,1.3,0,2.7,0,4.1c0,1.4,0,2.7,0,4
		c10.1,1.1,15.5,5.9,15.9,13.8c0.2,3.4-0.8,6.6-2.9,9.3c-3.2,4.2-7.7,5.7-12.8,5.7c0,3,0,5.7,0,8.3c9.9,1,15.5,6.1,15.7,14.1
		c0.2,8.3-5.2,13.4-15.7,14.8c0,2.3,0,4.7,0,7c161.9,0,323.6,0,485.2,0c1.9-9.7,7.2-14.8,15.1-14.8c8.1-0.1,13.3,5,15.4,14.8
		c68,0,135.9,0,203.9,0c0-2.4,0-4.7,0-6.9c-9.6-1.4-14.8-6.1-15.1-13.8c-0.2-3.4,0.8-6.6,2.9-9.3c3.1-4,7.3-5.7,12.3-5.8
		c0-2.9,0-5.6,0-8.2c-10.4-2-15.3-6.8-15.2-14.8c0.1-7.8,5.2-12.6,15.3-14.3c0-1.3,0-2.7,0-4.1c0-1.4,0-2.7,0-4
		c-9.8-1.4-15-6.1-15.3-13.8c-0.2-3.4,0.8-6.6,2.9-9.3c3.1-4,7.3-5.7,12.3-5.8c0-2.9,0-5.6,0-8.2c-10.4-2-15.3-6.8-15.2-14.8
		c0.1-7.8,5.1-12.6,15.2-14.3c0-2.7,0-5.4,0-8.1c-9.6-1.4-14.8-6.1-15.1-13.8c-0.2-3.4,0.8-6.6,2.9-9.3c3.1-4,7.3-5.7,12.3-5.7
		c0-2.9,0-5.6,0-8.2c-10.3-1.9-15.2-6.6-15.2-14.5c0-7.9,5-12.8,15.2-14.5c0-2.7,0-5.4,0-8.1c-9.6-1.4-15.1-6.1-15-13.8
		c0-3,1.1-6.4,2.7-9c2.6-4.4,7.3-5.9,12.5-6c0-2.3,0-4.3,0-6.3c0-0.6-0.1-1.3-0.2-1.9c-10.2-1.9-15.2-6.6-15.2-14.5
		c0-7.9,5-12.7,15.2-14.5c0-2.7,0-5.4,0-8.1c-9.6-1.3-15.1-6.1-15-13.8c0-3,1.1-6.4,2.7-9c2.6-4.4,7.3-5.9,12.5-6c0-2.3,0-4.3,0-6.3
		c0-0.6-0.1-1.3-0.2-1.9c-10.2-1.8-15.2-6.6-15.2-14.5c0-7.9,5-12.7,15.1-14.5c0-2.1,0-4.3,0-6.4c-68.1,0-136.1,0-203.9,0
		c-1.5,9-6.7,14.4-14.3,14.8c-3.6,0.2-7-0.8-9.9-3c-3.9-2.9-5.7-7.1-6.1-11.7c-162,0-323.7,0-485.4,0c0,2.3,0,4.4,0,6.4
		c9.8,1,15.2,5.7,15.7,13.5c0.2,3.4-0.7,6.6-2.7,9.4c-3.2,4.4-7.8,5.9-13,5.9c0,2.9,0,5.6,0,8.2c10.7,1.8,15.8,6.4,15.8,14.5
		c0,8.1-5.2,13-15.7,14.5c0,2.7,0,5.4,0,8.1c10.1,1.2,15.5,6,15.7,14c0.1,3.5-0.9,6.6-3,9.3c-3.2,4.1-7.6,5.6-12.6,5.5
		c0,2.9,0,5.7,0,8.3c9.7,1,15.2,5.7,15.7,13.5c0.2,3.4-0.7,6.6-2.7,9.4c-3.2,4.3-7.8,5.9-13,5.9c0,3,0,5.6,0,8.2
		c10.6,1.6,15.8,6.4,15.8,14.5c0,8.1-5.1,12.8-15.7,14.5c0,2.7,0,5.4,0,8.1c10,1.2,15.3,5.9,15.7,13.7c0.2,3.4-0.8,6.6-2.9,9.3
		c-3.2,4.2-7.7,5.8-13,5.8c0,1.6,0,3,0,4.4c0,1.3,0,2.7,0,3.9c10.2,1,15.9,6.2,15.9,14.4c0,8.2-5.4,13.3-15.7,14.5
		C0.2,260.7,0.2,263.5,0.2,266.2z"/>
	<path class="st1" d="M0.2,266.2c0-2.7,0-5.4,0-8.2c10.3-1.3,15.8-6.3,15.7-14.5c0-8.2-5.7-13.4-15.9-14.4c0-1.3,0-2.6,0-3.9
		c0-1.4,0-2.7,0-4.4c5.3,0,9.8-1.5,13-5.8c2.1-2.8,3-5.9,2.9-9.3c-0.4-7.9-5.7-12.6-15.7-13.7c0-2.7,0-5.4,0-8.1
		c10.6-1.7,15.7-6.4,15.7-14.5c0-8.1-5.2-12.9-15.8-14.5c0-2.6,0-5.3,0-8.2c5.2,0,9.8-1.6,13-5.9c2.1-2.8,3-5.9,2.7-9.4
		c-0.5-7.8-5.9-12.5-15.7-13.5c0-2.7,0-5.4,0-8.3c5,0,9.4-1.5,12.6-5.5c2.1-2.7,3.1-5.8,3-9.3c-0.2-8-5.6-12.8-15.7-14
		c0-2.7,0-5.4,0-8.1C10.7,71,15.9,66.1,15.9,58c0-8.1-5-12.8-15.8-14.5c0-2.6,0-5.3,0-8.2c5.2,0,9.8-1.6,13-5.9c2-2.8,3-5.9,2.7-9.4
		C15.4,12.2,10,7.5,0.2,6.5c0-2,0-4.1,0-6.4c161.7,0,323.4,0,485.4,0c0.4,4.7,2.2,8.8,6.1,11.7c2.9,2.2,6.2,3.2,9.9,3
		c7.6-0.4,12.8-5.8,14.3-14.8c67.9,0,135.8,0,203.9,0c0,2.1,0,4.2,0,6.4c-10.2,1.8-15.1,6.6-15.1,14.5c0,7.9,5,12.7,15.2,14.5
		c0.1,0.6,0.2,1.2,0.2,1.9c0,2,0,4,0,6.3c-5.2,0.1-9.8,1.6-12.5,6c-1.6,2.6-2.7,6-2.7,9c-0.1,7.7,5.4,12.4,15,13.8
		c0,2.7,0,5.4,0,8.1c-10.2,1.8-15.2,6.6-15.2,14.5c0,7.9,4.9,12.7,15.2,14.5c0.1,0.6,0.2,1.2,0.2,1.9c0,2,0,4,0,6.3
		c-5.2,0.1-9.8,1.6-12.5,6c-1.6,2.6-2.7,6-2.7,9c-0.1,7.7,5.4,12.4,15,13.8c0,2.7,0,5.4,0,8.1c-10.1,1.8-15.2,6.6-15.2,14.5
		c0,7.9,4.9,12.6,15.2,14.5c0,2.6,0,5.3,0,8.2c-5,0.1-9.2,1.7-12.3,5.7c-2.1,2.7-3.1,5.9-2.9,9.3c0.4,7.7,5.5,12.4,15.1,13.8
		c0,2.7,0,5.4,0,8.1c-10,1.7-15,6.4-15.2,14.3c-0.1,8,4.8,12.9,15.2,14.8c0,2.6,0,5.3,0,8.2c-5,0.1-9.2,1.7-12.3,5.8
		c-2.1,2.7-3.1,5.9-2.9,9.3c0.4,7.7,5.5,12.4,15.3,13.8c0,1.3,0,2.6,0,4c0,1.4,0,2.7,0,4.1c-10.2,1.7-15.2,6.5-15.3,14.3
		c-0.1,8,4.8,12.8,15.2,14.8c0,2.6,0,5.3,0,8.2c-5,0.1-9.2,1.7-12.3,5.8c-2.1,2.7-3,5.9-2.9,9.3c0.4,7.7,5.5,12.4,15.1,13.8
		c0,2.2,0,4.5,0,6.9c-68,0-135.9,0-203.9,0c-2-9.8-7.3-14.8-15.4-14.8c-7.9,0.1-13.2,5.2-15.1,14.8c-161.7,0-323.4,0-485.2,0
		c0-2.4,0-4.7,0-7c10.5-1.4,15.9-6.5,15.7-14.8c-0.2-8-5.8-13.1-15.7-14.1c0-2.7,0-5.4,0-8.3c5.1,0,9.6-1.5,12.8-5.7
		c2.1-2.7,3.1-5.9,2.9-9.3c-0.4-7.9-5.8-12.6-15.9-13.8c0-1.3,0-2.7,0-4c0-1.4,0-2.7,0-4.1c11-1.9,16-6.6,15.9-14.8
		C15.8,272.4,10.5,267.6,0.2,266.2z M502.7,26.4c0-2.9,0-5.8,0-8.6c-1.5,0-2.8,0-4,0c0,3,0,5.8,0,8.6
		C500.1,26.4,501.3,26.4,502.7,26.4z M502.7,39.7c0-2.9,0-5.8,0-8.6c-1.5,0-2.8,0-4,0c0,3,0,5.8,0,8.6
		C500.1,39.7,501.3,39.7,502.7,39.7z M502.7,53c0-2.9,0-5.8,0-8.6c-1.5,0-2.8,0-4,0c0,3,0,5.8,0,8.6C500.1,53,501.3,53,502.7,53z
		 M502.7,66.3c0-2.9,0-5.8,0-8.6c-1.5,0-2.8,0-4,0c0,3,0,5.8,0,8.6C500.1,66.3,501.3,66.3,502.7,66.3z M502.7,79.6
		c0-2.9,0-5.8,0-8.6c-1.5,0-2.8,0-4,0c0,3,0,5.8,0,8.6C500.1,79.6,501.3,79.6,502.7,79.6z M498.6,84.2c0,2.9,0,5.7,0,8.5
		c1.5,0,2.8,0,4.1,0c0-3,0-5.8,0-8.5C501.2,84.2,500,84.2,498.6,84.2z M498.6,97.5c0,3,0,5.8,0,8.6c1.5,0,2.8,0,4.1,0
		c0-3,0-5.8,0-8.6C501.3,97.5,500,97.5,498.6,97.5z M498.6,119.3c1.6,0,2.9,0,4.1,0c0-3,0-5.8,0-8.5c-1.5,0-2.7,0-4.1,0
		C498.6,113.7,498.6,116.4,498.6,119.3z M498.6,124.1c0,3,0,5.8,0,8.5c1.5,0,2.8,0,4.1,0c0-2.9,0-5.7,0-8.5
		C501.4,124.1,500.1,124.1,498.6,124.1z M498.7,137.3c0,2.9,0,5.8,0,8.6c1.5,0,2.8,0,4,0c0-3,0-5.8,0-8.6
		C501.3,137.3,500.1,137.3,498.7,137.3z M498.7,150.6c0,2.9,0,5.8,0,8.6c1.5,0,2.8,0,4,0c0-3,0-5.8,0-8.6
		C501.3,150.6,500.1,150.6,498.7,150.6z M498.6,163.9c0,3,0,5.8,0,8.6c1.5,0,2.8,0,4.1,0c0-3,0-5.8,0-8.6
		C501.3,163.9,500,163.9,498.6,163.9z M498.7,177.1c0,2.9,0,5.8,0,8.6c1.5,0,2.8,0,4,0c0-3,0-5.8,0-8.6
		C501.3,177.1,500.1,177.1,498.7,177.1z M502.7,199.1c0-3,0-5.8,0-8.5c-1.5,0-2.8,0-4.1,0c0,2.9,0,5.7,0,8.5
		C500,199.1,501.2,199.1,502.7,199.1z M502.8,203.8c-1.6,0-2.8,0-4.2,0c0,2.9,0,5.7,0,8.5c1.5,0,2.8,0,4.2,0
		C502.8,209.4,502.8,206.7,502.8,203.8z M498.6,217c0,3,0,5.8,0,8.6c1.5,0,2.8,0,4.1,0c0-3,0-5.8,0-8.6
		C501.3,217,500.1,217,498.6,217z M498.6,230.4c0,3,0,5.8,0,8.5c1.5,0,2.8,0,4.1,0c0-2.9,0-5.7,0-8.5
		C501.4,230.4,500.1,230.4,498.6,230.4z M502.8,243.7c-1.5,0-2.8,0-4.1,0c0,3,0,5.8,0,8.5c1.5,0,2.8,0,4.1,0
		C502.8,249.3,502.8,246.5,502.8,243.7z M498.6,265.6c1.5,0,2.8,0,4.2,0c0-2.9,0-5.7,0-8.6c-1.4,0-2.8,0-4.2,0
		C498.6,259.9,498.6,262.6,498.6,265.6z M498.6,278.9c1.5,0,2.8,0,4.2,0c0-2.9,0-5.7,0-8.6c-1.5,0-2.8,0-4.2,0
		C498.6,273.2,498.6,276,498.6,278.9z M502.7,292.2c0-3.1,0-5.9,0-8.6c-1.5,0-2.7,0-4,0c0,2.9,0,5.7,0,8.6
		C500.1,292.2,501.3,292.2,502.7,292.2z M498.6,296.9c0,2.9,0,5.7,0,8.6c1.5,0,2.8,0,4.1,0c0-3,0-5.8,0-8.6
		C501.2,296.9,500,296.9,498.6,296.9z M502.8,310.2c-1.5,0-2.8,0-4.2,0c0,2.9,0,5.7,0,8.6c1.5,0,2.8,0,4.2,0
		C502.8,315.8,502.8,313.1,502.8,310.2z M502.7,332.1c0-3,0-5.8,0-8.5c-1.5,0-2.8,0-4.1,0c0,2.9,0,5.7,0,8.5
		C500,332.1,501.3,332.1,502.7,332.1z M498.6,336.7c0,3,0,5.8,0,8.5c1.5,0,2.8,0,4.1,0c0-2.9,0-5.7,0-8.5
		C501.4,336.7,500.1,336.7,498.6,336.7z M502.7,358.7c0-2.9,0-5.8,0-8.6c-1.5,0-2.8,0-4,0c0,3,0,5.8,0,8.6
		C500.1,358.7,501.3,358.7,502.7,358.7z"/>
	<path class="st0" d="M502.7,26.4c-1.4,0-2.6,0-4,0c0-2.8,0-5.6,0-8.6c1.2,0,2.6,0,4,0C502.7,20.6,502.7,23.5,502.7,26.4z"/>
	<path class="st0" d="M502.7,39.7c-1.4,0-2.6,0-4,0c0-2.8,0-5.6,0-8.6c1.2,0,2.6,0,4,0C502.7,33.9,502.7,36.8,502.7,39.7z"/>
	<path class="st0" d="M502.7,53c-1.4,0-2.6,0-4,0c0-2.8,0-5.6,0-8.6c1.2,0,2.6,0,4,0C502.7,47.2,502.7,50.1,502.7,53z"/>
	<path class="st0" d="M502.7,66.3c-1.4,0-2.6,0-4,0c0-2.8,0-5.6,0-8.6c1.2,0,2.6,0,4,0C502.7,60.5,502.7,63.4,502.7,66.3z"/>
	<path class="st0" d="M502.7,79.6c-1.4,0-2.6,0-4,0c0-2.8,0-5.6,0-8.6c1.2,0,2.6,0,4,0C502.7,73.8,502.7,76.7,502.7,79.6z"/>
	<path class="st0" d="M498.6,84.2c1.4,0,2.6,0,4.1,0c0,2.8,0,5.6,0,8.5c-1.3,0-2.6,0-4.1,0C498.6,89.9,498.6,87.1,498.6,84.2z"/>
	<path class="st0" d="M498.6,97.5c1.4,0,2.7,0,4.1,0c0,2.8,0,5.6,0,8.6c-1.3,0-2.7,0-4.1,0C498.6,103.2,498.6,100.5,498.6,97.5z"/>
	<path class="st0" d="M498.6,119.3c0-2.9,0-5.6,0-8.5c1.4,0,2.6,0,4.1,0c0,2.7,0,5.5,0,8.5C501.4,119.3,500.1,119.3,498.6,119.3z"/>
	<path class="st0" d="M498.6,124.1c1.5,0,2.7,0,4.1,0c0,2.8,0,5.6,0,8.5c-1.3,0-2.6,0-4.1,0C498.6,129.9,498.6,127.1,498.6,124.1z"
		/>
	<path class="st0" d="M498.7,137.3c1.4,0,2.6,0,4,0c0,2.8,0,5.6,0,8.6c-1.2,0-2.6,0-4,0C498.7,143,498.7,140.2,498.7,137.3z"/>
	<path class="st0" d="M498.7,150.6c1.4,0,2.6,0,4,0c0,2.8,0,5.6,0,8.6c-1.2,0-2.6,0-4,0C498.7,156.3,498.7,153.5,498.7,150.6z"/>
	<path class="st0" d="M498.6,163.9c1.4,0,2.7,0,4.1,0c0,2.8,0,5.6,0,8.6c-1.3,0-2.7,0-4.1,0C498.6,169.7,498.6,167,498.6,163.9z"/>
	<path class="st0" d="M498.7,177.1c1.4,0,2.6,0,4,0c0,2.8,0,5.6,0,8.6c-1.2,0-2.6,0-4,0C498.7,182.9,498.7,180.1,498.7,177.1z"/>
	<path class="st0" d="M502.7,199.1c-1.5,0-2.7,0-4.1,0c0-2.8,0-5.6,0-8.5c1.3,0,2.6,0,4.1,0C502.7,193.3,502.7,196.1,502.7,199.1z"
		/>
	<path class="st0" d="M502.8,203.8c0,2.9,0,5.6,0,8.5c-1.4,0-2.7,0-4.2,0c0-2.8,0-5.6,0-8.5C500,203.8,501.2,203.8,502.8,203.8z"/>
	<path class="st0" d="M498.6,217c1.5,0,2.7,0,4.1,0c0,2.8,0,5.6,0,8.6c-1.3,0-2.6,0-4.1,0C498.6,222.8,498.6,220.1,498.6,217z"/>
	<path class="st0" d="M498.6,230.4c1.5,0,2.7,0,4.1,0c0,2.9,0,5.6,0,8.5c-1.3,0-2.6,0-4.1,0C498.6,236.2,498.6,233.4,498.6,230.4z"
		/>
	<path class="st0" d="M502.8,243.7c0,2.8,0,5.5,0,8.5c-1.3,0-2.6,0-4.1,0c0-2.7,0-5.5,0-8.5C500,243.7,501.3,243.7,502.8,243.7z"/>
	<path class="st0" d="M498.6,265.6c0-3,0-5.7,0-8.6c1.4,0,2.7,0,4.2,0c0,2.9,0,5.7,0,8.6C501.3,265.6,500.1,265.6,498.6,265.6z"/>
	<path class="st0" d="M498.6,278.9c0-2.9,0-5.6,0-8.6c1.4,0,2.7,0,4.2,0c0,2.8,0,5.6,0,8.6C501.4,278.9,500.1,278.9,498.6,278.9z"/>
	<path class="st0" d="M502.7,292.2c-1.4,0-2.6,0-4,0c0-2.9,0-5.7,0-8.6c1.3,0,2.6,0,4,0C502.7,286.3,502.7,289.1,502.7,292.2z"/>
	<path class="st0" d="M498.6,296.9c1.4,0,2.6,0,4.1,0c0,2.8,0,5.6,0,8.6c-1.3,0-2.6,0-4.1,0C498.6,302.6,498.6,299.8,498.6,296.9z"
		/>
	<path class="st0" d="M502.8,310.2c0,2.9,0,5.6,0,8.6c-1.4,0-2.7,0-4.2,0c0-2.8,0-5.6,0-8.6C500,310.2,501.2,310.2,502.8,310.2z"/>
	<path class="st0" d="M502.7,332.1c-1.5,0-2.7,0-4.1,0c0-2.8,0-5.6,0-8.5c1.3,0,2.6,0,4.1,0C502.7,326.3,502.7,329,502.7,332.1z"/>
	<path class="st0" d="M498.6,336.7c1.5,0,2.7,0,4.1,0c0,2.8,0,5.6,0,8.5c-1.3,0-2.6,0-4.1,0C498.6,342.5,498.6,339.7,498.6,336.7z"
		/>
	<path class="st0" d="M502.7,358.7c-1.4,0-2.6,0-4,0c0-2.8,0-5.6,0-8.6c1.2,0,2.6,0,4,0C502.7,352.9,502.7,355.8,502.7,358.7z"/>
</g>
</svg>
