<?xml version="1.0" encoding="utf-8"?>
<!-- Generator: Adobe Illustrator 22.1.0, SVG Export Plug-In . SVG Version: 6.00 Build 0)  -->
<svg version="1.1" id="图层_1" xmlns="http://www.w3.org/2000/svg" xmlns:xlink="http://www.w3.org/1999/xlink" x="0px" y="0px"
	 viewBox="0 0 129 30.8" style="enable-background:new 0 0 129 30.8;" xml:space="preserve">
<style type="text/css">
	.st0{fill:#333333;}
</style>
<g>
	<path class="st0" d="M10.5,17.5l-2.8,0.8V26c0,0.9-0.1,1.7-0.3,2.2c-0.2,0.6-0.5,1-1.1,1.3c-0.5,0.3-1.1,0.5-1.9,0.6
		c-0.7,0.1-1.6,0.2-2.7,0.2c-0.1-0.5-0.2-1.1-0.4-1.9c-0.2-0.7-0.4-1.4-0.7-1.9c0.6,0,1.1,0,1.6,0s0.9,0,1.1,0
		c0.4,0,0.6-0.2,0.6-0.6v-6.5l-3.1,0.9L0,16.7c0.6-0.1,1.2-0.3,1.8-0.4c0.7-0.2,1.4-0.3,2.1-0.5V9.9H0.5V6.3h3.4V0.1h3.7v6.2h2.7
		v3.6H7.7v4.8l2.3-0.6L10.5,17.5z M30.6,15.4v3.7h-4v11.5h-3.9V19.1H19c-0.1,1.4-0.4,2.8-0.9,4.2c-0.4,1.4-1.1,2.8-1.9,4
		s-2,2.4-3.4,3.5c-0.3-0.4-0.7-0.8-1.2-1.4c-0.5-0.6-1-1-1.5-1.3c1.2-0.7,2.1-1.6,2.8-2.6c0.7-1,1.2-2,1.5-3.1
		c0.3-1.1,0.6-2.2,0.7-3.3H11v-3.7h4.4v-5H12V6.7h4c-0.2-0.7-0.6-1.6-1.1-2.5s-0.9-1.8-1.4-2.6L17,0.2C17.5,1,18.1,1.9,18.6,3
		c0.5,1,0.9,1.9,1.2,2.6l-2.5,1.1h5.4c0.5-1,1-2,1.5-3.3C24.6,2.1,25,1,25.3,0l4.1,1.4C29,2.3,28.5,3.2,28,4.1
		c-0.5,0.9-1,1.8-1.4,2.6h3.2v3.7h-3.2v5H30.6z M19.2,15.4h3.5v-5h-3.5V15.4z"/>
	<path class="st0" d="M34.5,1.3h27.9v29.4h-4.2v-1.1H38.5v1.1h-4V1.3z M38.5,26.1h19.7V4.9H38.5V26.1z M57,9.4v3.4H53v8.3
		c0,0.9-0.1,1.6-0.3,2.1s-0.6,0.9-1.1,1.2c-0.5,0.3-1.2,0.5-1.9,0.6s-1.6,0.1-2.6,0.1c-0.1-0.5-0.3-1.1-0.5-1.8
		c-0.3-0.7-0.5-1.2-0.7-1.7c0.6,0,1.2,0,1.8,0c0.6,0,0.9,0,1.2,0c0.4,0,0.6-0.2,0.6-0.5v-4.4c-1.2,1.2-2.5,2.3-3.9,3.3
		s-2.7,1.8-3.9,2.5c-0.2-0.4-0.6-0.8-1.1-1.3c-0.5-0.5-0.9-1-1.4-1.3c1.5-0.8,3-1.8,4.5-3s2.9-2.6,4.2-4.1h-7.9V9.4h9.4V5.9H53v3.5
		H57z"/>
	<path class="st0" d="M96.4,25.1v3.6H82.8v2h-3.7V13.1c-0.3,0.5-0.7,0.9-1,1.4c-0.3,0.4-0.7,0.9-1.1,1.2c-0.1-0.1-0.2-0.2-0.3-0.4
		c-0.1-0.1-0.3-0.3-0.4-0.5l0.4,2.6c-0.5,0.2-1,0.3-1.6,0.5c-0.5,0.2-1.1,0.3-1.6,0.5v7.9c0,0.9-0.1,1.7-0.3,2.2
		c-0.2,0.6-0.6,1-1.1,1.3c-0.5,0.3-1.1,0.5-1.9,0.6s-1.6,0.1-2.7,0.1c-0.1-0.5-0.2-1.1-0.4-1.9c-0.2-0.7-0.4-1.4-0.7-1.9
		c0.6,0,1.1,0,1.6,0s0.9,0,1.1,0c0.2,0,0.3,0,0.4-0.1c0.1-0.1,0.1-0.2,0.1-0.4v-6.7l-3.2,0.8l-0.9-3.7c0.6-0.1,1.2-0.3,1.9-0.4
		c0.7-0.2,1.4-0.3,2.2-0.5v-6H66V6.1h3.6v-6h3.8v6h3.2v3.6h-3.2v5l2.1-0.6c-0.2-0.2-0.5-0.5-0.7-0.7c-0.2-0.2-0.5-0.4-0.6-0.6
		c1-1,1.9-2.1,2.8-3.5C77.9,8,78.7,6.5,79.5,5c0.7-1.5,1.3-3.1,1.8-4.7l3.7,1c-0.3,0.8-0.5,1.5-0.8,2.2c-0.3,0.7-0.6,1.5-0.9,2.2
		h4.5c-0.2-0.6-0.5-1.3-0.8-2s-0.7-1.4-1-2l3.4-1.3c0.4,0.7,0.9,1.4,1.3,2.3s0.7,1.6,0.9,2.2l-2,0.9h6.2v3.6h-5.3v2.9h4.9v3.4h-4.9
		v2.9h4.8v3.5h-4.8v3.1H96.4z M86.8,12.2V9.3h-4v2.9H86.8z M86.8,18.6v-2.9h-4v2.9H86.8z M82.8,22.1v3.1h4v-3.1H82.8z"/>
	<path class="st0" d="M128.5,12.5h-17.9c-0.4,0.7-0.9,1.5-1.4,2.2c-0.5,0.7-1,1.4-1.5,2.1v13.9h-3.7V20.6c-0.5,0.4-1,0.8-1.5,1.2
		c-0.5,0.4-1.1,0.8-1.6,1.1c-0.2-0.3-0.4-0.6-0.7-1c-0.3-0.4-0.6-0.8-1-1.2c-0.3-0.4-0.6-0.7-0.9-1c3.2-1.7,5.8-4.1,7.9-7.1h-6.6
		V9.1h8.7c0.1-0.2,0.2-0.5,0.3-0.7s0.2-0.5,0.3-0.8H106V5.4h-6.6V2h6.6V0.1h3.8V2h8.6V0.1h3.8V2h6.4v3.4h-6.4v2.1h-3.8V5.4h-8.6v0.8
		l3.3,0.8c-0.1,0.3-0.3,0.7-0.4,1c-0.1,0.3-0.3,0.7-0.4,1h16.1V12.5z M129,20.7V24h-7.5V27c0,0.9-0.1,1.5-0.3,2
		c-0.2,0.5-0.6,0.8-1.3,1.1c-0.6,0.3-1.3,0.4-2.2,0.5c-0.8,0-1.8,0.1-3,0.1c-0.1-0.5-0.2-1-0.5-1.7s-0.5-1.2-0.7-1.6
		c0.7,0,1.4,0.1,2.1,0.1c0.7,0,1.2,0,1.4,0c0.2,0,0.4-0.1,0.5-0.1s0.1-0.2,0.1-0.4v-3h-8.4v-3.3h8.4V19c0.4-0.2,0.9-0.5,1.3-0.8
		c0.5-0.3,0.9-0.6,1.3-0.9h-8.5v-3h12.1l0.8-0.2l2.3,1.8c-1.6,1.5-3.4,2.9-5.5,4.1v0.6H129z"/>
</g>
</svg>
