<?xml version="1.0" encoding="utf-8"?>
<!-- Generator: Adobe Illustrator 22.1.0, SVG Export Plug-In . SVG Version: 6.00 Build 0)  -->
<svg version="1.1" id="图层_1" xmlns="http://www.w3.org/2000/svg" xmlns:xlink="http://www.w3.org/1999/xlink" x="0px" y="0px"
	 viewBox="0 0 33 33" style="enable-background:new 0 0 33 33;" xml:space="preserve">
<style type="text/css">
	.st0{fill:#FAFAFA;}
	.st1{fill:#D6D6D6;}
	.st2{clip-path:url(#SVGID_2_);}
	.st3{fill:#BCBCBC;}
</style>
<g>
	<path class="st0" d="M16.5,32.8c-9,0-16.4-7.3-16.4-16.3S7.5,0.1,16.5,0.1s16.3,7.3,16.3,16.4S25.5,32.8,16.5,32.8z"/>
	<path class="st1" d="M16.5,0.3c8.9,0,16.2,7.3,16.2,16.2s-7.3,16.2-16.2,16.2S0.3,25.4,0.3,16.5S7.6,0.3,16.5,0.3 M16.5,0
		C7.4,0,0,7.4,0,16.5S7.4,33,16.5,33S33,25.6,33,16.5S25.6,0,16.5,0L16.5,0z"/>
</g>
<g>
	<defs>
		<path id="SVGID_1_" d="M16.5,16.5V-0.8l3.4,0.3L16.5,16.5 M16.5,16.5l9.6-14.4l-3-1.6L16.5,16.5 M16.5,16.5l14.4-9.6l-2.2-2.6
			L16.5,16.5 M16.5,16.5l17-3.4l-1-3.2L16.5,16.5 M16.5,16.5l17,3.4l0.3-3.4L16.5,16.5 M16.5,16.5l14.4,9.6l1.6-3L16.5,16.5
			 M16.5,16.5l9.6,14.4l2.6-2.2L16.5,16.5 M16.5,16.5l3.4,17l3.2-1L16.5,16.5 M16.5,16.5l-3.4,17l3.4,0.3L16.5,16.5 M16.5,16.5
			L6.9,30.9l3,1.6L16.5,16.5 M16.5,16.5L2.1,26.1l2.2,2.6L16.5,16.5 M16.5,16.5l-17,3.4l1,3.2L16.5,16.5 M16.5,16.5l-17-3.4
			l-0.3,3.4L16.5,16.5 M16.5,16.5L2.1,6.9l-1.6,3L16.5,16.5 M16.5,16.5L6.9,2.1L4.3,4.3L16.5,16.5 M16.5,16.5l-3.4-17l-3.2,1
			L16.5,16.5"/>
	</defs>
	<clipPath id="SVGID_2_">
		<use xlink:href="#SVGID_1_"  style="overflow:visible;"/>
	</clipPath>
	<g class="st2">
		<circle class="st0" cx="16.5" cy="16.5" r="16.5"/>
	</g>
</g>
<path class="st3" d="M16.1,19.8c-0.4,0-0.6-0.3-0.6-0.6v-0.5c0-0.4,0-0.8,0.2-1.2c0.1-0.3,0.4-0.6,0.8-0.9h0
	c0.4-0.3,0.7-0.5,0.9-0.7s0.4-0.4,0.5-0.6c0.2-0.3,0.3-0.6,0.3-1.1c0-0.3,0-0.5-0.1-0.7c-0.1-0.2-0.2-0.4-0.4-0.6c0,0,0,0,0,0
	c-0.4-0.4-0.9-0.6-1.5-0.6c-0.6,0-1,0.2-1.4,0.7c-0.3,0.3-0.5,0.8-0.6,1.5c0,0.3-0.4,0.6-0.7,0.5c-0.4,0-0.6-0.4-0.6-0.7
	c0-0.4,0.1-0.7,0.2-1c0.2-0.5,0.4-0.9,0.7-1.2c0.3-0.3,0.6-0.6,1-0.7c0.4-0.2,0.8-0.3,1.3-0.3c1,0,1.8,0.3,2.4,0.9
	c0.6,0.6,0.9,1.3,0.9,2.2c0,0.3,0,0.6-0.1,0.9c-0.1,0.3-0.2,0.5-0.3,0.8c-0.2,0.2-0.4,0.5-0.7,0.8s-0.7,0.6-1.1,0.9
	c-0.2,0.1-0.3,0.3-0.4,0.4c-0.1,0.1-0.1,0.4-0.1,0.6v0.5C16.8,19.6,16.5,19.8,16.1,19.8L16.1,19.8L16.1,19.8z"/>
<path class="st3" d="M15.3,21.5c0,0.5,0.4,0.9,0.9,0.9s0.9-0.4,0.9-0.9s-0.4-0.9-0.9-0.9S15.3,21,15.3,21.5L15.3,21.5z"/>
</svg>
