<?xml version="1.0" encoding="utf-8"?>
<!-- Generator: Adobe Illustrator 22.1.0, SVG Export Plug-In . SVG Version: 6.00 Build 0)  -->
<svg version="1.1" id="图层_1" xmlns="http://www.w3.org/2000/svg" xmlns:xlink="http://www.w3.org/1999/xlink" x="0px" y="0px"
	 viewBox="0 0 128.2 30.5" style="enable-background:new 0 0 128.2 30.5;" xml:space="preserve">
<style type="text/css">
	.st0{fill:#333333;}
</style>
<g>
	<path class="st0" d="M10.4,20v5.1c0.9,0.3,1.9,0.5,3,0.6c1.1,0.1,2.3,0.2,3.7,0.2c0.5,0,1.2,0,2.1,0c0.9,0,1.9,0,3.1,0
		c1.1,0,2.3,0,3.4,0c1.1,0,2.2,0,3.2,0c1,0,1.8,0,2.3-0.1c-0.3,0.5-0.6,1.1-0.8,1.8c-0.3,0.8-0.5,1.4-0.6,2H17.1
		c-2,0-3.8-0.1-5.4-0.4c-1.6-0.2-2.9-0.7-4.1-1.3s-2.2-1.6-3-2.8c-0.2,1-0.4,2-0.6,2.8c-0.2,0.9-0.5,1.7-0.9,2.4
		c-0.2-0.1-0.5-0.3-0.9-0.6S1.4,29.4,1,29.2c-0.4-0.2-0.7-0.4-1-0.5c0.5-1.1,0.9-2.4,1.2-3.8c0.3-1.5,0.5-3.1,0.5-4.8
		c0.1-1.7,0.1-3.5,0.2-5.4l3.4,0.2c0,0.8,0,1.5,0,2.2c0,0.7-0.1,1.5-0.1,2.2C5.7,20.8,6.3,22,7,22.8v-9.7H0.9V9.7h5.5v-3H1.6V3.3
		h4.7V0H10v3.3h4.6v3.4H10v3h5.2v0.8c1.1-0.7,1.9-1.5,2.5-2.5c0.6-1,1.1-2.2,1.3-3.5h-3.5V1.2h14.3c0,0.7,0,1.1,0,1.3
		c-0.1,2.7-0.3,4.7-0.4,6c-0.2,1.3-0.5,2.2-0.9,2.7c-0.3,0.4-0.6,0.6-1,0.8s-0.8,0.3-1.2,0.3c-0.4,0-0.9,0.1-1.6,0.1
		c-0.6,0-1.3,0-2.1,0c0-0.5-0.1-1-0.3-1.7c-0.2-0.6-0.4-1.2-0.7-1.6c0.6,0.1,1.1,0.1,1.6,0.1c0.5,0,0.8,0,1.1,0
		c0.4,0,0.7-0.1,0.9-0.3c0.1-0.2,0.3-0.7,0.4-1.3C25.9,6.9,26,5.9,26,4.4h-3.4c-0.7,4-2.6,7-5.5,8.8c-0.2-0.2-0.5-0.5-0.9-0.8
		c-0.4-0.3-0.8-0.6-1.1-0.9v1.5h-4.7v3.5h4.3V20H10.4z M16.4,23.9V13.6h12.7v10.3H16.4z M20,16.8v4h5.3v-4H20z"/>
	<path class="st0" d="M39.7,0.1l3.5,1.2c-0.4,1.2-0.9,2.4-1.4,3.6C41.2,6,40.6,7.2,40,8.4v22h-3.6V14.1c-0.3,0.4-0.6,0.8-0.9,1.1
		S35,16,34.7,16.3c-0.1-0.3-0.3-0.7-0.5-1.2c-0.2-0.5-0.5-1-0.8-1.5c-0.3-0.5-0.5-0.9-0.7-1.3c0.9-1,1.8-2.1,2.7-3.4
		c0.9-1.3,1.7-2.7,2.4-4.2S39.1,1.6,39.7,0.1z M60.8,26.5h2.5v3.3H41.4v-3.3h2.8v-18h5.6c0.1-0.3,0.1-0.7,0.2-1.1
		c0.1-0.4,0.1-0.8,0.2-1.1h-7.4V3h7.8c0-0.5,0.1-1,0.1-1.5c0-0.5,0.1-0.9,0.1-1.4L55,0.2c-0.1,0.5-0.1,0.9-0.2,1.4
		C54.7,2,54.6,2.5,54.5,3h8v3.3h-8.7c-0.1,0.4-0.2,0.8-0.3,1.2c-0.1,0.4-0.2,0.7-0.3,1.1h7.5V26.5z M57.2,11.3h-9.6v1.8h9.6V11.3z
		 M57.2,17.6v-1.8h-9.6v1.8H57.2z M57.2,20.2h-9.6V22h9.6V20.2z M47.6,24.7v1.8h9.6v-1.8H47.6z"/>
	<path class="st0" d="M77.1,15.2l0.3,3.6l-2.8,0.9v10.7H71v-9.6l-4.4,1.3l-0.8-3.9c0.7-0.2,1.5-0.3,2.4-0.6c0.9-0.2,1.8-0.4,2.8-0.7
		V10h-1.8c-0.2,0.9-0.3,1.8-0.5,2.6c-0.2,0.8-0.4,1.5-0.5,2.2c-0.3-0.2-0.8-0.5-1.4-0.8c-0.6-0.3-1.1-0.5-1.5-0.7
		c0.3-0.9,0.5-1.9,0.8-3.1c0.2-1.2,0.4-2.4,0.5-3.7c0.1-1.3,0.3-2.6,0.3-4l3,0.6c-0.1,1.1-0.2,2.1-0.3,3.2H71V0h3.7v6.3h2.5V10h-2.5
		v5.9L77.1,15.2z M95.8,12.7h-3.5v2.9h3.2v3.6h-3.2v6.8c0,1-0.1,1.7-0.3,2.3s-0.6,1-1.3,1.3c-0.6,0.3-1.4,0.5-2.3,0.5
		c-0.9,0.1-1.9,0.1-3.1,0.1c-0.1-0.6-0.2-1.2-0.4-1.9c-0.2-0.7-0.4-1.4-0.7-1.9c0.8,0,1.5,0.1,2.3,0.1c0.7,0,1.3,0,1.5,0
		c0.3,0,0.4-0.1,0.5-0.1c0.1-0.1,0.1-0.2,0.1-0.4v-6.7H82c0.7,0.7,1.4,1.5,2.1,2.4c0.7,0.9,1.3,1.7,1.6,2.4l-3,2
		c-0.3-0.7-0.8-1.5-1.5-2.5c-0.7-1-1.4-1.8-2-2.6l2.7-1.7h-3.8v-3.6h10.5v-2.9H77.4V9.2h7.5V6.4h-5.6V2.9h5.6V0h3.7v2.9h5.7v3.5
		h-5.7v2.8h7.1V12.7z"/>
	<path class="st0" d="M127.4,22.5H115c-0.7,1.3-1.6,2.4-2.8,3.5c-1.2,1-2.7,1.9-4.6,2.7c-1.9,0.7-4.2,1.4-7,1.9
		c-0.1-0.5-0.4-1.1-0.8-1.7c-0.4-0.6-0.8-1.2-1.1-1.6c3.1-0.5,5.6-1.1,7.4-1.9s3.2-1.7,4.2-2.8H98.9v-3.4h6.9
		c-0.6-0.4-1.4-0.8-2.4-1.3c-0.9-0.4-1.8-0.8-2.7-1l1.7-2.3c0.7,0.2,1.4,0.4,2.1,0.7s1.4,0.6,2.1,0.9c0.7,0.3,1.2,0.6,1.7,1l-1.6,2
		h5.3c0.3-0.9,0.5-2,0.6-3.1c0.1-1.1,0.2-2.3,0.3-3.6h4c-0.1,1.2-0.2,2.4-0.3,3.5c-0.1,1.1-0.3,2.2-0.6,3.1h11.3V22.5z M104.4,13.9
		l1.9-2.1h-6.8V8.4h11.9V6.3h-9.8V3h9.8V0.2h4V3h10.1v3.3h-10.1v2.1h9.1l0.6-0.2l2.8,1.1c-0.6,1.2-1.2,2.4-1.9,3.6
		c-0.7,1.2-1.5,2.2-2.2,3.1l-2.9-1.7c0.3-0.3,0.6-0.7,0.8-1.2c0.3-0.4,0.6-0.9,0.8-1.4h-16.1c0.6,0.2,1.3,0.4,2,0.7
		c0.7,0.3,1.4,0.6,2,0.9c0.6,0.3,1.2,0.6,1.6,0.9l-2,2.4c-0.4-0.3-0.9-0.7-1.5-1s-1.3-0.7-2-1C105.7,14.4,105,14.1,104.4,13.9z
		 M114.4,26.2l1.7-2.9c1.5,0.3,2.9,0.7,4.4,1.1c1.5,0.4,2.9,0.9,4.3,1.3s2.5,0.9,3.5,1.3l-2.1,3.2c-0.9-0.5-2-0.9-3.3-1.4
		c-1.3-0.5-2.6-1-4.1-1.4S115.8,26.6,114.4,26.2z"/>
</g>
</svg>
