<?xml version="1.0" standalone="no"?><!DOCTYPE svg PUBLIC "-//W3C//DTD SVG 1.1//EN" "http://www.w3.org/Graphics/SVG/1.1/DTD/svg11.dtd"><svg t="1558084691827" class="icon" style="" viewBox="0 0 1024 1024" version="1.1" xmlns="http://www.w3.org/2000/svg" p-id="8905" xmlns:xlink="http://www.w3.org/1999/xlink" width="64" height="64"><defs><style type="text/css"></style></defs><path d="M512 100c55.637 0 109.589 10.888 160.356 32.361 49.056 20.749 93.121 50.461 130.972 88.311 37.85 37.851 67.563 81.916 88.312 130.972C913.112 402.411 924 456.363 924 512c0 55.638-10.888 109.589-32.36 160.356-20.749 49.057-50.462 93.121-88.312 130.972-37.851 37.851-81.916 67.563-130.972 88.312C621.589 913.112 567.637 924 512 924s-109.589-10.888-160.357-32.36c-49.056-20.749-93.121-50.461-130.971-88.312s-67.563-81.915-88.311-130.972C110.888 621.589 100 567.638 100 512c0-55.637 10.888-109.589 32.361-160.357 20.749-49.056 50.461-93.121 88.311-130.971s81.916-67.563 130.971-88.311C402.411 110.888 456.363 100 512 100m0-40C262.367 60 60 262.367 60 512s202.367 452 452 452c249.632 0 452-202.367 452-452S761.632 60 512 60z" fill="#ffffff" p-id="8906"></path><path d="M492 743h40v31.676h-40z" fill="#ffffff" p-id="8907"></path><path d="M512 743m-20 0a20 20 0 1 0 40 0 20 20 0 1 0-40 0Z" fill="#ffffff" p-id="8908"></path><path d="M492 774.676a20 18.324 0 1 0 40 0 20 18.324 0 1 0-40 0Z" fill="#ffffff" p-id="8909"></path><path d="M532 653h-40v-49.033c0-52.679 28.302-101.828 73.946-128.587l3.079-2.323 0.791-0.489C602.492 452.37 622 417.819 622 380.143 622 319.961 572.654 271 512 271s-110 48.961-110 109.143c0 15.086 3.243 29.961 9.641 44.211l-36.492 16.381C366.424 421.299 362 400.913 362 380.143 362 297.905 429.29 231 512 231s150 66.905 150 149.143c0 51.325-26.272 98.332-70.336 125.941l-3.582 2.704-1.085 0.623C553.073 528.904 532 565.136 532 603.967V653z" fill="#ffffff" p-id="8910"></path><path d="M512 653m-20 0a20 20 0 1 0 40 0 20 20 0 1 0-40 0Z" fill="#ffffff" p-id="8911"></path><path d="M393.395 432.544m-20 0a20 20 0 1 0 40 0 20 20 0 1 0-40 0Z" fill="#ffffff" p-id="8912"></path></svg>