<?xml version="1.0" standalone="no"?><!DOCTYPE svg PUBLIC "-//W3C//DTD SVG 1.1//EN" "http://www.w3.org/Graphics/SVG/1.1/DTD/svg11.dtd"><svg t="1564713811852" class="icon" viewBox="0 0 1024 1024" version="1.1" xmlns="http://www.w3.org/2000/svg" p-id="8964" xmlns:xlink="http://www.w3.org/1999/xlink" width="64" height="64"><defs><style type="text/css"></style></defs><path d="M696.448491 128C569.060284 128 511.998084 238.181587 511.998084 238.181587 511.998084 238.181587 454.917333 128.018624 327.547675 128 307.642688 128 286.031029 130.681905 262.638495 136.902434 89.578266 182.941799-5.327526 414.926561 208.692826 622.99767 422.676076 831.050159 511.998084 910.222221 511.998084 910.222221 511.998084 910.222221 601.338641 831.050159 815.32189 622.99767 1029.323695 414.926561 934.417903 182.941799 761.35767 136.902434 737.965137 130.681905 716.353481 128 696.448491 128M327.529124 128 327.547675 165.248677C429.929434 165.267302 477.215369 251.870476 479.088998 255.371852L512.016636 318.899471 544.925717 255.371852C545.389487 254.459259 592.786731 165.248677 696.448491 165.248677 714.090283 165.248677 732.73382 167.83746 751.859674 172.921905 821.833216 191.527619 876.61367 246.655661 894.830537 316.776296 918.185967 406.601481 879.785852 508.476612 789.517756 596.234496 640.499337 741.113229 551.585451 823.786667 511.998084 860.029628 472.410718 823.786667 383.496829 741.113229 234.496961 596.234496 144.210313 508.457988 105.828749 406.601481 129.165631 316.776296 147.382497 246.655661 202.181502 191.527619 272.136495 172.921905 291.280899 167.818836 309.905883 165.248677 327.529124 165.248677L327.529124 128" p-id="8965" fill="#ffffff"></path></svg>