<?xml version="1.0" standalone="no"?><!DOCTYPE svg PUBLIC "-//W3C//DTD SVG 1.1//EN" "http://www.w3.org/Graphics/SVG/1.1/DTD/svg11.dtd"><svg t="1539929890160" class="icon" style="" viewBox="0 0 1024 1024" version="1.1" xmlns="http://www.w3.org/2000/svg" p-id="5615" xmlns:xlink="http://www.w3.org/1999/xlink" width="64" height="64"><defs><style type="text/css"></style></defs><path d="M465.92 650.24c-5.12 0-15.36 0-20.48-5.12-35.84-35.84-51.2-81.92-51.2-133.12s20.48-97.28 56.32-133.12L624.64 204.8c71.68-71.68 189.44-71.68 261.12 0 35.84 35.84 56.32 81.92 56.32 133.12s-20.48 97.28-56.32 133.12l-102.4 102.4c-10.24 10.24-25.6 10.24-35.84 0s-10.24-25.6 0-35.84l102.4-102.4c20.48-25.6 35.84-61.44 35.84-97.28s-15.36-66.56-40.96-92.16c-51.2-51.2-138.24-51.2-189.44 0L481.28 419.84c-25.6 20.48-35.84 56.32-35.84 92.16s15.36 71.68 40.96 92.16c10.24 10.24 10.24 25.6 0 35.84-10.24 5.12-15.36 10.24-20.48 10.24z" fill="#3db1b0" p-id="5616"></path><path d="M302.08 972.8c-46.08 0-97.28-20.48-133.12-56.32-35.84-35.84-56.32-81.92-56.32-133.12s20.48-97.28 56.32-133.12L261.12 563.2c10.24-10.24 25.6-10.24 35.84 0s10.24 25.6 0 35.84L204.8 691.2c-25.6 25.6-40.96 56.32-40.96 92.16s15.36 71.68 40.96 92.16c51.2 51.2 138.24 51.2 189.44 0l174.08-174.08c25.6-25.6 40.96-56.32 40.96-92.16s-15.36-71.68-40.96-92.16c-10.24-10.24-10.24-25.6 0-35.84s25.6-10.24 35.84 0c35.84 35.84 56.32 81.92 56.32 133.12s-20.48 97.28-56.32 133.12L430.08 921.6c-35.84 30.72-81.92 51.2-128 51.2z" fill="#3db1b0" p-id="5617"></path></svg>