<?xml version="1.0" encoding="utf-8"?>
<!-- Generator: Adobe Illustrator 23.0.3, SVG Export Plug-In . SVG Version: 6.00 Build 0)  -->
<svg version="1.1" id="图层_1" xmlns="http://www.w3.org/2000/svg" xmlns:xlink="http://www.w3.org/1999/xlink" x="0px" y="0px"
	 width="64px" height="64px" viewBox="0 0 64 64" style="enable-background:new 0 0 64 64;" xml:space="preserve">
<style type="text/css">
	.st0{fill:#515151;}
</style>
<path class="st0" d="M32.9,24.5h9.2c0.7,0,1.2-0.5,1.2-1.2c0-0.3-0.1-0.5-0.2-0.7L29.9,5c-0.4-0.5-1.2-0.6-1.7-0.2
	C28.2,4.8,28.1,4.9,28,5L14.9,22.5c-0.4,0.5-0.3,1.3,0.2,1.7c0.2,0.2,0.5,0.2,0.7,0.2h9.1v35.1h8V24.5L32.9,24.5z M24.9,56.3h8v2.2
	c0-11.6,8.8-20.8,19.9-20.8v-8.3c-7.6,0-14.8,3.1-19.9,8.6L24.9,56.3L24.9,56.3z"/>
</svg>
