<?xml version="1.0" encoding="utf-8"?>
<!-- Generator: Adobe Illustrator 23.0.3, SVG Export Plug-In . SVG Version: 6.00 Build 0)  -->
<svg version="1.1" id="图层_1" xmlns="http://www.w3.org/2000/svg" xmlns:xlink="http://www.w3.org/1999/xlink" x="0px" y="0px"
	 width="64px" height="64px" viewBox="0 0 64 64" style="enable-background:new 0 0 64 64;" xml:space="preserve">
<style type="text/css">
	.st0{fill:#515151;}
</style>
<path class="st0" d="M32,20.4c-6.4,0-11.6,5.2-11.6,11.6S25.6,43.6,32,43.6S43.6,38.4,43.6,32S38.4,20.4,32,20.4z"/>
<path class="st0" d="M58.8,29.8h-1.9c-1-12-10.6-21.6-22.7-22.7V5.2c0-0.3-0.2-0.5-0.5-0.5h-3.4c-0.3,0-0.5,0.2-0.5,0.5v1.9
	c-12,1-21.6,10.6-22.7,22.7H5.2c-0.3,0-0.5,0.2-0.5,0.5v3.4c0,0.3,0.2,0.5,0.5,0.5h1.9c1,12,10.6,21.6,22.7,22.7v1.9
	c0,0.3,0.2,0.5,0.5,0.5h3.4c0.3,0,0.5-0.2,0.5-0.5v-1.9c12-1,21.6-10.6,22.7-22.7h1.9c0.3,0,0.5-0.2,0.5-0.5v-3.4
	C59.3,30,59,29.8,58.8,29.8z M50.7,39.9c-2.9,6.8-9.2,11.5-16.5,12.3v-1.7c0-0.3-0.2-0.5-0.5-0.5h-3.4c-0.3,0-0.5,0.2-0.5,0.5v1.7
	c-9.5-1-17-8.5-18-18h1.7c0.3,0,0.5-0.2,0.5-0.5v-3.4c0-0.3-0.2-0.5-0.5-0.5h-1.7c1-9.5,8.5-17,18-18v1.7c0,0.3,0.2,0.5,0.5,0.5h3.4
	c0.3,0,0.5-0.2,0.5-0.5v-1.7c9.5,1,17,8.5,18,18h-1.7c-0.3,0-0.5,0.2-0.5,0.5v3.4c0,0.3,0.2,0.5,0.5,0.5h1.7
	C52,36.2,51.5,38.1,50.7,39.9z"/>
</svg>
