<?xml version="1.0" standalone="no"?><!DOCTYPE svg PUBLIC "-//W3C//DTD SVG 1.1//EN" "http://www.w3.org/Graphics/SVG/1.1/DTD/svg11.dtd"><svg t="1576741187469" class="icon" viewBox="0 0 1024 1024" version="1.1" xmlns="http://www.w3.org/2000/svg" p-id="41592" xmlns:xlink="http://www.w3.org/1999/xlink" width="64" height="64"><defs><style type="text/css"></style></defs><path d="M138.916339 512a76.809483 76.809483 0 0 1 76.800451-76.809483c42.419064 0 76.79142 34.381387 76.791421 76.809483s-34.372356 76.809483-76.791421 76.809483A76.800452 76.800452 0 0 1 138.916339 512z m245.365883 0c0-70.713492 57.338437-127.997742 128.006773-127.997742 70.69543 0 127.997742 57.28425 127.997742 127.997742 0 70.704461-57.293281 128.006773-127.997742 128.006773-70.668336 0-128.006773-57.302312-128.006773-128.006773z m347.200536 0a76.818514 76.818514 0 0 1 76.800452-76.809483c42.437126 0 76.818514 34.381387 76.818513 76.809483s-34.381387 76.809483-76.818513 76.809483A76.818514 76.818514 0 0 1 731.482758 512z" fill="#515151" p-id="41593"></path></svg>