<?xml version="1.0" standalone="no"?><!DOCTYPE svg PUBLIC "-//W3C//DTD SVG 1.1//EN" "http://www.w3.org/Graphics/SVG/1.1/DTD/svg11.dtd"><svg t="1553959214088" class="icon" style="" viewBox="0 0 1024 1024" version="1.1" xmlns="http://www.w3.org/2000/svg" p-id="2211" xmlns:xlink="http://www.w3.org/1999/xlink" width="64" height="64"><defs><style type="text/css"></style></defs><path d="M475.733333 320s0 2.133333-2.133333 6.4c-10.666667 64-93.866667 571.733333-91.733333 578.133333 2.133333 6.4 4.266667 12.8 17.066666 12.8 12.8 0 123.733333 2.133333 136.533334 0 10.666667-2.133333 19.2-6.4 21.333333-21.333333s25.6-166.4 32-183.466667c6.4-17.066667 12.8-17.066667 27.733333-19.2 14.933333-2.133333 91.733333 6.4 142.933334-21.333333 44.8-23.466667 83.2-57.6 113.066666-138.666667 57.6-151.466667-34.133333-230.4-119.466666-230.4-87.466667 0-224 2.133333-249.6 0-29.866667-2.133333-27.733333 14.933333-27.733334 17.066667z" fill="#019CDE" p-id="2212"></path><path d="M324.266667 166.4l-106.666667 657.066667s-4.266667 14.933333 27.733333 14.933333h125.866667c10.666667 0 19.2-8.533333 21.333333-17.066667l36.266667-217.6s2.133333-27.733333 46.933333-27.733333c40.533333 0 102.4 4.266667 123.733334-2.133333 21.333333-4.266667 100.266667-10.666667 149.333333-72.533334s64-91.733333 72.533333-164.266666c6.4-51.2-4.266667-123.733333-55.466666-160-55.466667-38.4-119.466667-38.4-119.466667-38.4s-268.8-2.133333-290.133333 0-32 27.733333-32 27.733333z" fill="#193D75" p-id="2213"></path><path d="M823.466667 324.266667c-21.333333-12.8-46.933333-19.2-70.4-19.2-87.466667 0-224 2.133333-249.6 0-27.733333-2.133333-25.6 12.8-25.6 14.933333 0 0 0 2.133333-2.133334 6.4-4.266667 29.866667-25.6 149.333333-44.8 273.066667 2.133333-8.533333 10.666667-23.466667 44.8-21.333334 40.533333 0 102.4 4.266667 123.733334-2.133333 21.333333-4.266667 100.266667-10.666667 149.333333-72.533333 51.2-59.733333 64-91.733333 72.533333-164.266667 2.133333-4.266667 2.133333-10.666667 2.133334-14.933333z" fill="#012269" p-id="2214"></path></svg>