<?xml version="1.0" standalone="no"?><!DOCTYPE svg PUBLIC "-//W3C//DTD SVG 1.1//EN" "http://www.w3.org/Graphics/SVG/1.1/DTD/svg11.dtd"><svg t="1553398881782" class="icon" style="" viewBox="0 0 1024 1024" version="1.1" xmlns="http://www.w3.org/2000/svg" p-id="8851" xmlns:xlink="http://www.w3.org/1999/xlink" width="64" height="64"><defs><style type="text/css"></style></defs><path d="M891 177.7H133c-17.7 0-34.8 7.8-47.3 21.7-12.5 13.9-19.6 32.8-19.6 52.5v59.4h891.8v-59.4c0-41-29.9-74.2-66.9-74.2z" fill="#0790F2" p-id="8852"></path><path d="M66.1 356.8v421.5c0 37.6 29.9 68.1 66.9 68.1h758c36.9 0 66.9-30.5 66.9-68.1V356.8H66.1z m312.2 355.8H244.6c-20.5 0-44.8-20.1-44.8-44.6 0-24.6 24.2-44.5 44.8-44.5h133.7c20.5 0 44.5 19.9 44.5 44.5 0 24.5-24 44.6-44.5 44.6z m44.6-133.7H244.6c-18.5 0-44.7-19.7-44.7-44.2 0-24.6 26.3-44.9 44.7-44.9h178.3c18.5 0 44.5 20.4 44.5 44.9 0 24.6-26.1 44.2-44.5 44.2z" fill="#36404A" p-id="8853"></path></svg>