<?xml version="1.0" encoding="utf-8"?>
<!-- Generator: Adobe Illustrator 22.1.0, SVG Export Plug-In . SVG Version: 6.00 Build 0)  -->
<svg version="1.1" id="图层_1" xmlns="http://www.w3.org/2000/svg" xmlns:xlink="http://www.w3.org/1999/xlink" x="0px" y="0px"
	 viewBox="0 0 64 64" style="enable-background:new 0 0 64 64;" xml:space="preserve">
<style type="text/css">
	.st0{fill:#009FE9;}
	.st1{fill:#FFFFFF;}
</style>
<path class="st0" d="M58.3,49.6v0.3c0,4.7-3.8,8.4-8.4,8.4l0,0H14.1c-4.7,0-8.4-3.8-8.4-8.4c0,0,0,0,0,0V14.1c0-4.7,3.8-8.4,8.4-8.4
	h35.8c4.7,0,8.4,3.8,8.4,8.4l0,0C58.3,14.1,58.3,49.6,58.3,49.6z"/>
<path class="st1" d="M49.1,39c-2.1-0.7-4.9-1.8-8.1-2.9c2-3.6,3.6-7.5,4.6-11.5H35.2v-3.2h12.6v-2.2l-12.6,0.1V13h-5.2
	c-0.9,0-1.1,1.1-1.1,1.1v5.3H16.2v2.1h12.6v3.2H18.3v2.1h21.1c-0.9,2.6-2,5.2-3.3,7.6c-6.6-2.2-13.7-4-18.2-2.8
	c-2.2,0.5-4.2,1.6-5.8,3.3c-4.9,6-1.3,15.1,9,15.1c6.2,0,12.1-3.5,16.8-9.1c6.9,3.4,20.5,9.1,20.5,9.1v-8.1
	C58.3,41.7,56.7,41.5,49.1,39z M20.1,46.5c-8.2,0-10.5-6.4-6.5-10c1.3-1.2,2.9-2,4.7-2.4c4.8-0.5,9.8,1.8,15.1,4.5
	C29.5,43.4,24.8,46.5,20.1,46.5z"/>
</svg>
