<?xml version="1.0" encoding="utf-8"?>
<!-- Generator: Adobe Illustrator 22.1.0, SVG Export Plug-In . SVG Version: 6.00 Build 0)  -->
<svg version="1.1" id="Layer_1" xmlns="http://www.w3.org/2000/svg" xmlns:xlink="http://www.w3.org/1999/xlink" x="0px" y="0px"
	 viewBox="0 0 200 200" style="enable-background:new 0 0 200 200;" xml:space="preserve">
<style type="text/css">
	.st0{fill:url(#SVGID_1_);}
	.st1{fill:#FFFFFF;}
</style>
<linearGradient id="SVGID_1_" gradientUnits="userSpaceOnUse" x1="178" y1="24" x2="22" y2="180" gradientTransform="matrix(1 0 0 -1 0 202)">
	<stop  offset="0" style="stop-color:#6CA7FF"/>
	<stop  offset="1" style="stop-color:#5F4EC6"/>
</linearGradient>
<rect x="22" y="22" class="st0" width="156" height="156"/>
<path class="st1" d="M94,82.8c0-3.7,3-5.1,8-5.1c7.1,0,16.1,2.2,23.2,6v-22c-7.7-3-15.4-4.3-23.2-4.3c-19,0-31.6,9.9-31.6,26.4
	c0,25.7,35.5,21.7,35.5,32.8c0,4.3-3.7,5.7-9,5.7c-7.7,0-17.6-3.2-25.5-7.5v22.2c8.7,3.7,17.5,5.3,25.5,5.3
	c19.4,0,32.8-9.6,32.8-26.4C129.6,88.3,94,93.3,94,82.8z"/>
</svg>
