<?xml version="1.0" standalone="no"?><!DOCTYPE svg PUBLIC "-//W3C//DTD SVG 1.1//EN" "http://www.w3.org/Graphics/SVG/1.1/DTD/svg11.dtd"><svg t="1564924296249" class="icon" viewBox="0 0 1024 1024" version="1.1" xmlns="http://www.w3.org/2000/svg" p-id="2032" xmlns:xlink="http://www.w3.org/1999/xlink" width="64" height="64"><defs><style type="text/css"></style></defs><path d="M951.081247 551.061644c-13.544481-19.527752-44.020586-35.840276-105.770975 4.65809 5.680373-28.478612-14.710027-46.088688-38.740326-46.088688-21.334911 0-46.276976 6.119371-66.083068 28.441773-28.472472-41.557488-57.709353-36.606733-114.653273 2.575661-21.73707 14.979156-40.851407 27.729551-55.124482 36.680411-3.787256 2.37407-6.843872 4.164856-9.903557 6.009877 5.606695 1.242294 11.250228 2.338255 17.477046 2.338255 79.918167 0 143.016251 0 143.016251 77.014024 0 59.112306-61.895699 76.137051-94.591355 76.868715H478.594169c-60.987003 0-120.734782-70.584592-120.734782-70.584591s70.563102 32.077579 120.734782 32.077579h147.785881c0.183172 0 60.258409-2.63092 60.258409-38.361703 0-32.734542-16.20303-38.507012-108.354823-38.507012-60.113099 0-120.954793-39.383986-120.954793-39.383985s-60.876486-26.457582-79.55387-39.426965c-44.201711-30.671557-79.591733-59.751872-156.77972-25.994024-48.934502 21.408589-155.796322 53.749158-155.796322 53.749158V755.765863l139.681296 14.830776c44.698015 0 52.305273-14.012132 88.24174 6.520508 34.735106 19.837814 141.670603 81.544201 168.430061 95.939049 82.140789 44.171012 117.347638 4.602831 157.034522-20.823258 33.860179-21.6286 273.618774-197.832717 298.813597-217.5989 39.36045-30.835286 51.630914-57.706283 33.6811-83.572394z" p-id="2033" fill="#d6204b"></path><path d="M376.215454 348.796988c-21.593807 0-38.940894 17.401322-38.940894 38.868239 0 21.422915 17.434068 38.868239 38.940894 38.868239h97.097432v77.694523c0 21.525246 17.401322 38.909172 38.868239 38.909172 21.422915 0 38.868239-17.420765 38.86824-38.909172v-77.694523h97.096408c21.593807 0 38.940894-17.401322 38.940894-38.868239 0-21.422915-17.434068-38.868239-38.940894-38.868239h-97.096408v-38.86824h97.096408c21.593807 0 38.940894-17.401322 38.940894-38.868239 0-21.422915-17.434068-38.868239-38.940894-38.868239h-48.798403l72.996525-72.996525c15.192004-15.192004 15.172561-39.84345 0.024559-54.991452-15.178701-15.178701-39.743166-15.223726-54.992475 0.02456l-105.195877 105.195877-105.195877-105.194854c-15.248286-15.248286-39.812751-15.20326-54.991452-0.024559-15.148002 15.148002-15.168468 39.799448 0.024559 54.991452l72.996525 72.996524h-48.798403c-21.593807 0-38.940894 17.401322-38.940894 38.868239 0 21.422915 17.434068 38.868239 38.940894 38.86824h97.097432v38.868239h-97.097432z" p-id="2034" fill="#d6204b"></path></svg>