<?xml version="1.0" encoding="utf-8"?>
<!-- Generator: Adobe Illustrator 22.1.0, SVG Export Plug-In . SVG Version: 6.00 Build 0)  -->
<svg version="1.1" id="图层_1" xmlns="http://www.w3.org/2000/svg" xmlns:xlink="http://www.w3.org/1999/xlink" x="0px" y="0px"
	 viewBox="0 0 42.5 42.6" style="enable-background:new 0 0 42.5 42.6;" xml:space="preserve">
<style type="text/css">
	.st0{fill:#FFFFFF;}
</style>
<path class="st0" d="M21.3,0C9.5,0,0,9.5,0,21.3s9.5,21.3,21.3,21.3S42.5,33,42.5,21.2C42.5,9.5,33,0,21.3,0z M21.3,40.9
	c-10.9,0-19.7-8.8-19.7-19.7S10.4,1.5,21.3,1.5S41,10.3,41,21.2S32.2,40.9,21.3,40.9z"/>
<path class="st0" d="M29.2,19.8l-10.6-6.1c-1.1-0.6-2.5,0.2-2.5,1.4v12.3c0,1.3,1.4,2.1,2.5,1.4l10.6-6.1
	C30.3,22,30.3,20.4,29.2,19.8z"/>
</svg>
