<?xml version="1.0" encoding="utf-8"?>
<!-- Generator: Adobe Illustrator 23.0.3, SVG Export Plug-In . SVG Version: 6.00 Build 0)  -->
<svg version="1.1" id="图层_1" xmlns="http://www.w3.org/2000/svg" xmlns:xlink="http://www.w3.org/1999/xlink" x="0px" y="0px"
	 width="64px" height="64px" viewBox="0 0 64 64" style="enable-background:new 0 0 64 64;" xml:space="preserve">
<style type="text/css">
	.st0{fill:#707070;}
</style>
<path class="st0" d="M43.6,58.4c-8.5,0-13.1-3.2-13.1-6.2V33.6c0-3,4.6-6.2,13.1-6.2c8.5,0,13.1,3.2,13.1,6.2v18.5l0,0.2
	C56.7,55.3,52,58.4,43.6,58.4z M32.6,52.2c0,1.7,4.2,4.1,11,4.1s11-2.4,11-4.1v-5.8l-1.2,0.6c-1.7,0.9-4.8,2-9.9,2
	c-5.1,0-8.2-1.1-9.9-2l-1.2-0.6V52.2z M32.6,42.9c0,1.7,4.2,4.1,11,4.1s11-2.4,11-4.1v-5.8l-1.2,0.6c-1.7,0.9-4.8,2-9.9,2
	c-5.1,0-8.2-1.1-9.9-2l-1.2-0.6V42.9z M43.6,29.5c-6.8,0-11,2.4-11,4.1s4.2,4.1,11,4.1s11-2.4,11-4.1S50.5,29.5,43.6,29.5z
	 M26.3,52.8c-9.5-0.2-19-3.5-19-9v-29c0-5.7,10.1-9.1,19.8-9.1C36.9,5.7,47,9,47,14.7v9.8h-2.1V19l-1.2,0.8
	c-3.6,2.4-9.9,3.9-16.5,3.9c-6.6,0-12.9-1.5-16.5-3.9L9.3,19v10.2c0,3.3,6.8,6.8,17,7v2.1c-6.3-0.1-12.2-1.6-15.7-3.9l-1.2-0.8v10.2
	c0,3.3,6.8,6.8,17,7V52.8z M27.1,7.7c-10.6,0-17.8,3.6-17.8,7s7.1,7,17.8,7s17.8-3.6,17.8-7S37.7,7.7,27.1,7.7z"/>
</svg>
