<?xml version="1.0" standalone="no"?><!DOCTYPE svg PUBLIC "-//W3C//DTD SVG 1.1//EN" "http://www.w3.org/Graphics/SVG/1.1/DTD/svg11.dtd"><svg t="1568446009269" class="icon" viewBox="0 0 1024 1024" version="1.1" xmlns="http://www.w3.org/2000/svg" p-id="7967" xmlns:xlink="http://www.w3.org/1999/xlink" width="64" height="64"><defs><style type="text/css"></style></defs><path d="M0 512c0 283.307 228.693 512 512 512s512-228.693 512-512S795.307 0 512 0 0 228.693 0 512z" fill="#FBE945" p-id="7968"></path><path d="M119.467 512c0 139.947 75.093 269.653 194.56 337.92s269.653 71.68 392.533 0S901.12 651.947 901.12 512c0-215.04-174.08-392.533-392.533-392.533S119.467 296.96 119.467 512z" fill="#FBB11B" p-id="7969"></path><path d="M904.533 512c0-85.333-27.306-167.253-78.506-232.107-61.44-47.786-146.774-75.093-228.694-75.093C378.88 204.8 204.8 378.88 204.8 597.333c0 85.334 27.307 167.254 78.507 232.107 61.44 47.787 146.773 78.507 232.106 78.507 215.04-3.414 389.12-177.494 389.12-395.947z" fill="#FDC72F" p-id="7970"></path><path d="M552.96 286.72l85.333 170.667L819.2 491.52 692.907 631.467l20.48 187.733-160.427-81.92-167.253 81.92 27.306-187.733L286.72 491.52l177.493-34.133L552.96 286.72" fill="#FBB11B" p-id="7971"></path><path d="M512 245.76l92.16 167.253 174.08 37.547-126.293 139.947 20.48 187.733L512 692.907 351.573 778.24l20.48-187.733L245.76 450.56l174.08-37.547L512 245.76" fill="#FBE945" p-id="7972"></path></svg>