<?xml version="1.0" encoding="utf-8"?>
<!-- Generator: Adobe Illustrator 23.0.3, SVG Export Plug-In . SVG Version: 6.00 Build 0)  -->
<svg version="1.1" id="图层_1" xmlns="http://www.w3.org/2000/svg" xmlns:xlink="http://www.w3.org/1999/xlink" x="0px" y="0px"
	 width="64px" height="64px" viewBox="0 0 64 64" style="enable-background:new 0 0 64 64;" xml:space="preserve">
<style type="text/css">
	.st0{fill:#EE8086;}
	.st1{fill:#3E3A39;}
	.st2{fill:#FFFFFF;}
	.st3{fill:#FAD0AD;}
	.st4{fill:#F7BD75;}
</style>
<path class="st0" d="M47.2,39.9l-9.9-16.3l8.1-14.6L38,5.7l-5.5,9.9l-5.9-9.7l-7.3,3.5L28,23.6l-9.4,16.6l7.4,3.3l6.8-11.9l7,11.8
	L47.2,39.9z"/>
<path class="st1" d="M48.2,40.2L38.1,23.5l8.4-15l-8.8-3.9l-5.2,9.4l-5.6-9.2l-8.6,4.1l8.9,14.7l-9.5,16.9l8.8,3.9L32.8,33l6.8,11.3
	L48.2,40.2z M38.3,6.6l6.1,2.7l-7.1,12.8l-3.9-6.5L38.3,6.6z M36.4,23.5l-3.7,6.6l-3.9-6.5l3.7-6.6L36.4,23.5z M20.4,9.6l6-2.8
	l5.3,8.8l-3.7,6.6C27.9,22.1,20.4,9.6,20.4,9.6z M25.8,42.6l-6.1-2.7l8.3-14.8l3.9,6.5L25.8,42.6z M37.3,25l8.8,14.7l-6,2.8
	l-6.5-10.8C33.6,31.7,37.3,25,37.3,25z"/>
<path class="st2" d="M12.2,17.9h41.5v40H12.2V17.9z"/>
<path class="st1" d="M54.8,58.9H11.1V16.8h43.7V58.9z M13.3,56.7h39.3V18.9H13.3C13.3,18.9,13.3,56.7,13.3,56.7z"/>
<path class="st3" d="M7.6,14.3h50.6V32H7.6V14.3z"/>
<path class="st1" d="M59.3,33.1H6.5V13.2h52.8V33.1z M8.7,30.9h48.5V15.4H8.7C8.7,15.4,8.7,30.9,8.7,30.9z"/>
<path class="st0" d="M28.8,14.3h8.3v43.5h-8.3V14.3z"/>
<path class="st1" d="M37.8,58.5h-9.7v-45h9.7C37.8,13.6,37.8,58.5,37.8,58.5z M29.5,57.1h6.8V15h-6.8C29.5,15,29.5,57.1,29.5,57.1z
	 M18.4,28.7h-6.8v-6.4h0.7V28h6V28.7z M50,54.2h-7.3v-0.7h6.6v-6.2H50V54.2z"/>
<path class="st4" d="M1.5,52.4c0,5.2,4.2,9.4,9.4,9.4s9.4-4.2,9.4-9.4c0,0,0,0,0,0c0-5.2-4.2-9.4-9.4-9.4
	C5.7,43.1,1.5,47.3,1.5,52.4C1.5,52.4,1.5,52.4,1.5,52.4z"/>
<path class="st1" d="M10.9,42.8c-5.3,0-9.7,4.3-9.7,9.7s4.3,9.7,9.7,9.7c5.3,0,9.7-4.3,9.7-9.7S16.3,42.8,10.9,42.8z M10.9,61.1
	c-4.8,0-8.6-3.9-8.6-8.6s3.9-8.6,8.6-8.6s8.6,3.9,8.6,8.6C19.6,57.2,15.7,61.1,10.9,61.1z"/>
<path class="st1" d="M12.5,50.2c-0.4-0.4-0.8-0.6-1.5-0.6c-0.7,0-1.2,0.4-1.2,1c0,1.6,3.3,1.2,3.3,3.4c0,1-0.7,1.7-1.8,1.8v1h-0.7
	v-1c-0.8-0.1-1.5-0.4-2-0.8l0.4-0.5c0.5,0.4,1.1,0.7,1.8,0.7c0.9,0,1.4-0.4,1.4-1.2c0-1.8-3.3-1.4-3.3-3.4c0-0.9,0.7-1.6,1.7-1.7v-1
	h0.7v1c0.7,0.1,1.2,0.4,1.7,0.8L12.5,50.2"/>
<path class="st1" d="M17,49.5c-0.1-0.1-0.3-0.2-0.5-0.1c-0.1,0.1-0.2,0.3-0.1,0.5c0.4,0.8,0.6,1.7,0.6,2.6c0,3.3-2.7,6-6,6
	c-0.2,0-0.4,0.1-0.4,0.4c0,0.2,0.1,0.4,0.4,0.4c3.7,0,6.8-3.1,6.8-6.8C17.6,51.3,17.4,50.3,17,49.5 M10.9,46.3
	c1.6,0,3.1,0.6,4.2,1.7c0.1,0.1,0.1,0.1,0.2,0.1s0.2,0,0.2-0.1c0.1-0.1,0.1-0.4,0-0.5c-1.2-1.2-2.9-1.9-4.7-1.9
	c-0.2,0-0.4,0.1-0.4,0.4C10.4,46.3,10.7,46.3,10.9,46.3 M8.6,58c-2.3-0.9-3.7-3.1-3.7-5.5c0-2.3,1.4-4.5,3.5-5.4
	c0.1-0.1,0.3-0.3,0.1-0.4c-0.1-0.1-0.3-0.3-0.4-0.1c-2.4,1.1-3.9,3.5-3.9,6.1c0,2.7,1.6,5.2,4.1,6.2h0.1c0.1,0,0.3-0.1,0.3-0.2
	C8.8,58.2,8.8,58,8.6,58"/>
</svg>
