<?xml version="1.0" encoding="utf-8"?>
<!-- Generator: Adobe Illustrator 22.1.0, SVG Export Plug-In . SVG Version: 6.00 Build 0)  -->
<svg version="1.1" id="图层_1" xmlns="http://www.w3.org/2000/svg" xmlns:xlink="http://www.w3.org/1999/xlink" x="0px" y="0px"
	 viewBox="0 0 265 63.7" style="enable-background:new 0 0 265 63.7;" xml:space="preserve">
<style type="text/css">
	.st0{fill:#3db1b0;}
</style>
<g>
	<path class="st0" d="M0,2.5h25.4L24.7,0h10.9l0.7,2.5h27.1v8.4H0V2.5z M0,16.7h11.6l-1.9-3.9H21l1.7,3.9h18.1l1.9-3.9h10.9
		l-1.9,3.9h5.6c1.7,0,3.2,0.7,4.4,2.2c1.2,1.5,1.8,3.2,1.8,5.2v29.8c0,1.5-0.2,2.8-0.6,3.8c-0.4,1.2-1,2.2-1.7,3.2
		c-0.6,0.8-1.5,1.5-2.5,2.1c-1,0.5-2,0.7-3.1,0.7h-8.6l2.8-7.6h1.5c0.6,0,1.2-0.3,1.6-0.9c0.4-0.5,0.6-1.1,0.6-1.8V27.4
		c0-0.7-0.2-1.3-0.6-1.8c-0.4-0.5-0.9-0.7-1.4-0.7H10v38.7H0V16.7z M22.2,36.6H12l6.6-10h9.9L22.2,36.6z M50.3,50
		c0,1.5-0.2,2.8-0.6,3.8c-0.4,1.3-1,2.3-1.7,3.2c-0.8,0.9-1.6,1.6-2.4,2c-1.1,0.5-2.1,0.8-3,0.8H13.2V38.6h37.1V50z M38.9,52.2
		c0.6,0,1.2-0.3,1.7-0.9c0.4-0.5,0.6-1.2,0.6-2v-3.4H22.2v6.3H38.9z M51.6,36.6h-10l-6.6-10h10L51.6,36.6z"/>
	<path class="st0" d="M90,60.7l-20.7,2.7V56l5.9-0.8V18.2h-4.4v-7.4h4.4V2.1h8.9v8.7h4.4v7.4h-4.4V54l5.9-0.7V60.7z M132.4,18.2
		l-5.3,21.2l4.5,24.2h-7.7l-1.3-6.9l-1.7,6.9h-7.2l5.9-23.1l-5.3-27.8h-13.9v9.1h14v32.1c0,1.3-0.2,2.6-0.6,3.8
		c-0.4,1.2-1,2.2-1.7,3.1c-0.7,0.9-1.6,1.6-2.5,2.1c-1,0.5-2,0.7-3.1,0.7h-5.6l2.4-6.9h0.9c0.7,0,1.2-0.3,1.6-0.8
		c0.4-0.5,0.6-1.2,0.6-2V29.2h-6v26.7l-1.9,7.7H90l1.9-7.7V5.2h21l-0.9-5h7.7l0.9,5h2.8l-0.9-5h7.3l2.4,12.5h-2.7h-4.6H122l1.9,10.5
		l1.2-4.9H132.4z"/>
	<path class="st0" d="M135.4,63.4l25.1-15.8v-6.9h12.6V47h6.9l6.9,6.1V42.5c0-0.8-0.2-1.4-0.6-2c-0.4-0.6-1-0.8-1.6-0.8h-36.6v13.4
		h-10V31.9H189c1.1,0,2.1,0.3,3.1,0.7c1,0.5,1.8,1.2,2.5,2.1s1.3,1.9,1.7,3.1c0.4,1.2,0.6,2.4,0.6,3.8v11.6H187l11.8,10.3h-15.3
		l-11.7-11.1l-17.3,11.1H135.4z M141.8,14.4h10l-4.8,14.9h-10L141.8,14.4z M151.8,11.2h-10l-4.6-10.8h9.9L151.8,11.2z M180.5,16.5
		l-3.7,3.3h8.2l12.8,9.6h-14l-9.1-7.8l-9.1,7.8h-13l15.1-12.8v-3.6h12.8V16.5z M198.7,2.8l-4,13.5h-9.4l1.9-5.4h-33.3l4-10.6h10.7
		l-0.9,2.5H198.7z"/>
	<path class="st0" d="M206.9,14.2l-5.3-14.1h11.7l5.3,14.1H206.9z M201.7,19.3h4.2h9.8h0.1v33.8c0,0.8,0.2,1.4,0.6,1.9
		c0.4,0.5,1,0.8,1.6,0.8h4.2l-2.7,7.6h-5.8c-1.1,0-2.1-0.2-3.1-0.7c-0.9-0.5-1.8-1.2-2.5-2.1c-0.7-0.9-1.3-1.9-1.7-3
		c-0.4-1.1-0.6-2.4-0.6-3.7V27.9h-4.2V19.3z M240.3,12.8l-1.4,13.3h9.5v8.6H238l-3.2,28.9h-8.9l3.2-28.9h-8v-8.6h8.9l1.5-13.3H240.3
		z M260.4,52.5c0,0.5,0.2,1,0.5,1.3c0.3,0.4,0.7,0.5,1,0.5h3l-2,8.6h-2.5h-3.5c-1.5,0-2.8-0.6-3.8-1.9c-1.1-1.3-1.6-2.8-1.6-4.6V9.1
		h-29.2V0.5h38.2V52.5z"/>
</g>
</svg>
