<?xml version="1.0" standalone="no"?><!DOCTYPE svg PUBLIC "-//W3C//DTD SVG 1.1//EN" "http://www.w3.org/Graphics/SVG/1.1/DTD/svg11.dtd"><svg t="1568218776104" class="icon" viewBox="0 0 1024 1024" version="1.1" xmlns="http://www.w3.org/2000/svg" p-id="3342" xmlns:xlink="http://www.w3.org/1999/xlink" width="64" height="64"><defs><style type="text/css"></style></defs><path d="M153.653248 454.951936h727.740416v512.65536H153.653248z" fill="#ca2437" p-id="3343"></path><path d="M153.653248 441.11872h727.740416v177.165312H153.653248z" fill="#b11426" p-id="3344"></path><path d="M930.4064 541.650944c0 16.66048-13.534208 30.158848-30.16704 30.158848H127.294464c-16.70656 0-30.1568-13.499392-30.1568-30.158848V315.466752c0-16.618496 13.45024-30.138368 30.1568-30.138368H900.23936c16.632832 0 30.16704 13.519872 30.16704 30.138368v226.184192" fill="#e64f61" p-id="3345"></path><path d="M288.325632 128.713728c57.25696-70.488064 176.434176 118.2464 176.434176 118.2464-95.218688 15.115264-165.967872-26.330112-165.967872-26.330112-64.67584-45.535232-10.46528-91.916288-10.46528-91.916288m223.536128 158.993408l-0.219136-44.700672S371.419136-7.23456 259.95264 74.238976c0 0-125.50144 108.638208-9.58976 174.5152 0 0 82.028544 36.355072 175.94368 54.914048v662.11328H593.26464V287.707136h-81.40288" fill="#f4ea29" p-id="3346"></path><path d="M724.54656 220.619776s-70.74816 41.455616-165.924864 26.330112c0 0 119.124992-188.7232 176.391168-118.2464 0 0 54.177792 46.391296-10.46528 91.916288m38.816768-146.90304c-124.21632-91.86304-252.7232 168.246272-252.7232 168.246272l-0.85504 45.838336v677.98016h83.479552V303.574016c104.348672-18.579456 177.60256-55.0912 177.60256-55.0912 108.376064-74.421248-7.503872-174.76608-7.503872-174.76608" fill="#f69d37" p-id="3347"></path></svg>