<?xml version="1.0" encoding="utf-8"?>
<!-- Generator: Adobe Illustrator 22.1.0, SVG Export Plug-In . SVG Version: 6.00 Build 0)  -->
<svg version="1.1" id="图层_1" xmlns="http://www.w3.org/2000/svg" xmlns:xlink="http://www.w3.org/1999/xlink" x="0px" y="0px"
	 viewBox="0 0 64 64" style="enable-background:new 0 0 64 64;" xml:space="preserve">
<style type="text/css">
	.st0{fill:#707070;}
</style>
<path class="st0" d="M24.4,9.1c1.4,0,2.5,1.1,2.5,2.5v12.7c0,1.4-1.1,2.5-2.5,2.5H11.6c-1.4,0-2.5-1.1-2.5-2.5V11.6
	c0-1.4,1.1-2.5,2.5-2.5H24.4 M24.4,6.5H11.6c-2.8,0-5.1,2.3-5.1,5.1v12.7c0,2.8,2.3,5.1,5.1,5.1h12.7c2.8,0,5.1-2.3,5.1-5.1V11.6
	C29.5,8.8,27.2,6.5,24.4,6.5z M52.4,9.1c1.4,0,2.5,1.1,2.5,2.5v12.7c0,1.4-1.1,2.5-2.5,2.5H39.6c-1.4,0-2.5-1.1-2.5-2.5V11.6
	c0-1.4,1.1-2.5,2.5-2.5H52.4 M52.4,6.5H39.6c-2.8,0-5.1,2.3-5.1,5.1v12.7c0,2.8,2.3,5.1,5.1,5.1h12.7c2.8,0,5.1-2.3,5.1-5.1V11.6
	C57.5,8.8,55.2,6.5,52.4,6.5z M24.4,37.1c1.4,0,2.5,1.1,2.5,2.5v12.7c0,1.4-1.1,2.5-2.5,2.5H11.6c-1.4,0-2.5-1.1-2.5-2.5V39.6
	c0-1.4,1.1-2.5,2.5-2.5H24.4 M24.4,34.5H11.6c-2.8,0-5.1,2.3-5.1,5.1v12.7c0,2.8,2.3,5.1,5.1,5.1h12.7c2.8,0,5.1-2.3,5.1-5.1V39.6
	C29.5,36.8,27.2,34.5,24.4,34.5z M46.1,56.2c-0.8,0-1.3-0.5-1.3-1.3V37.1c0-0.8,0.5-1.3,1.3-1.3c0.8,0,1.3,0.5,1.3,1.3v17.8
	C47.4,55.7,46.8,56.2,46.1,56.2z M55,56.2c-0.8,0-1.3-0.5-1.3-1.3V37.1c0-0.8,0.5-1.3,1.3-1.3s1.3,0.5,1.3,1.3v17.8
	C56.3,55.7,55.7,56.2,55,56.2z M37.2,56.2c-0.8,0-1.3-0.5-1.3-1.3V37.1c0-0.8,0.5-1.3,1.3-1.3s1.3,0.5,1.3,1.3v17.8
	C38.5,55.7,37.9,56.2,37.2,56.2z"/>
</svg>
