<?xml version="1.0" encoding="utf-8"?>
<!-- Generator: Adobe Illustrator 22.1.0, SVG Export Plug-In . SVG Version: 6.00 Build 0)  -->
<svg version="1.1" id="图层_1" xmlns="http://www.w3.org/2000/svg" xmlns:xlink="http://www.w3.org/1999/xlink" x="0px" y="0px"
	 viewBox="0 0 200 200" style="enable-background:new 0 0 200 200;" xml:space="preserve">
<style type="text/css">
	.st0{fill:#BBBBBB;}
</style>
<g>
	<path class="st0" d="M129.5,62.5c-1.5-3.4-3.6-6.2-6.1-8.4c-2.5-2.2-5.5-3.9-9.1-5.2c-3.4-1.1-7.2-1.8-11.1-1.8
		c-5.2,0-9.6,0.7-13.7,2.1c-4.1,1.3-8.1,3.4-11.8,6.3l-1.4,1.1v16.7l5.7-4.6c3.2-2.5,6.5-4.6,9.9-6c3.5-1.4,7.1-2.1,11.2-2.1
		c2.4,0,4.5,0.4,6.3,1h0.1c1.7,0.5,3.2,1.4,4.4,2.5c1.4,1.2,2.4,2.6,3,4.1c0.7,1.7,1.1,3.6,1.1,5.8c0,2.1-0.4,3.9-0.9,5.6
		s-1.4,3.3-2.4,4.9c-1.2,1.8-2.5,3.2-3.6,4.4l-0.1,0.1c-1.1,1.1-2.2,2.2-3.3,3.2c-0.4,0.4-0.7,0.6-1.1,1c-1.9,1.7-3.6,3.2-5.2,4.9
		c-1.5,1.5-2.9,3.2-4.3,5.3l-0.1,0.1c-1.2,2-2.2,4-2.9,6c-0.7,2.2-1.1,4.6-1.1,7.3c0,2.1,0.3,4.4,0.6,6.5l0.1,0.4
		c0.4,1.7,0.8,3.2,1.2,4.5v2.9h14l-1.3-4.5c-0.3-0.7-0.4-1.6-0.7-2.6c-0.2-0.5-0.3-1.1-0.4-1.8c-0.4-1.3-0.5-3.1-0.5-5.2
		c0-1.4,0.2-2.5,0.4-3.6c0.3-0.8,0.7-1.8,1.5-2.9l0.1-0.1c0.8-1.2,2.1-2.7,3.3-4c1.3-1.4,3.2-3.2,6.1-6l0.1-0.1
		c0.8-0.7,1.6-1.6,2.4-2.4c0.8-0.9,1.6-1.7,2.5-2.5c1.7-1.8,3.2-3.7,4.7-6c1.3-2,2.4-4.4,3.3-7c0.9-2.5,1.3-5.4,1.3-8.7
		C131.8,69.4,131,65.8,129.5,62.5z"/>
	<path class="st0" d="M101.1,142.6c-2.6,0-4.9,1-6.6,2.6c-1.8,1.7-2.6,3.9-2.6,6.6c0,2.5,0.9,4.7,2.5,6.5l0.1,0.1
		c1.8,1.8,3.9,2.7,6.6,2.7c2.5,0,4.6-0.9,6.6-2.5l0.1-0.1c1.9-1.7,2.9-4,2.9-6.7c0-2.6-1-4.9-2.9-6.7
		C106,143.4,103.8,142.6,101.1,142.6z"/>
	<polygon class="st0" points="109,131 109,131 109,131 	"/>
</g>
</svg>
