<?xml version="1.0" encoding="utf-8"?>
<!-- Generator: Adobe Illustrator 22.1.0, SVG Export Plug-In . SVG Version: 6.00 Build 0)  -->
<svg version="1.1" id="图层_1" xmlns="http://www.w3.org/2000/svg" xmlns:xlink="http://www.w3.org/1999/xlink" x="0px" y="0px"
	 viewBox="0 0 64 64" style="enable-background:new 0 0 64 64;" xml:space="preserve">
<style type="text/css">
	.st0{fill:#3db1b0;}
</style>
<path class="st0" d="M32,3.8C16.6,3.8,4.1,16.3,4.1,31.7C4.1,47,16.6,59.5,32,59.5S59.9,47,59.9,31.6C59.9,16.3,47.4,3.8,32,3.8z
	 M41.2,18.1c2.2,0,4,1.8,4,4c0,2.2-1.8,4-4,4s-4-1.8-4-4C37.2,19.9,39,18.1,41.2,18.1z M22.8,18.1c2.2,0,4,1.8,4,4c0,2.2-1.8,4-4,4
	s-4-1.8-4-4C18.8,19.9,20.6,18.1,22.8,18.1z M45.8,46.5L45.8,46.5c-0.6,0.5-1.5,0.4-1.9-0.2c0,0-0.1-0.1-0.1-0.1
	c-3.1-4.5-8.1-5.5-11.8-5.5c-3.7,0-8.7,1-11.8,5.5c-0.3,0.4-0.7,0.6-1.2,0.6c-0.3,0-0.6-0.1-0.9-0.3c-0.7-0.6-0.8-1.5-0.3-2.2
	c1.5-2.3,3.7-4.1,6.2-5.2c2.5-1.1,5.2-1.6,8-1.6c2.7,0,5.4,0.5,8,1.6c2.5,1.1,4.6,2.9,6.2,5.2C46.6,45,46.5,45.9,45.8,46.5z"/>
</svg>
