<?xml version="1.0" encoding="utf-8"?>
<!-- Generator: Adobe Illustrator 22.1.0, SVG Export Plug-In . SVG Version: 6.00 Build 0)  -->
<svg version="1.1" id="图层_1" xmlns="http://www.w3.org/2000/svg" xmlns:xlink="http://www.w3.org/1999/xlink" x="0px" y="0px"
	 viewBox="0 0 64 64" style="enable-background:new 0 0 64 64;" xml:space="preserve">
<style type="text/css">
	.st0{fill:#3db1b0;}
</style>
<path class="st0" d="M32,3.8C16.6,3.8,4.1,16.3,4.1,31.7C4.1,47,16.6,59.5,32,59.5c15.4,0,27.9-12.5,27.9-27.9
	C59.9,16.3,47.4,3.8,32,3.8z M41.2,18.1c2.2,0,4,1.8,4,4c0,2.2-1.8,4-4,4c-2.2,0-4-1.8-4-4C37.2,19.9,39,18.1,41.2,18.1z M22.8,18.1
	c2.2,0,4,1.8,4,4c0,2.2-1.8,4-4,4c-2.2,0-4-1.8-4-4C18.8,19.9,20.6,18.1,22.8,18.1z M32,49L32,49c-8.4,0-15.2-4.9-15.2-11
	c0-0.3,0.4-0.6,0.9-0.6h28.7c0.5,0,0.9,0.3,0.9,0.6C47.2,44.1,40.4,49,32,49z"/>
</svg>
