<?xml version="1.0" encoding="utf-8"?>
<!-- Generator: Adobe Illustrator 22.1.0, SVG Export Plug-In . SVG Version: 6.00 Build 0)  -->
<svg version="1.1" id="图层_1" xmlns="http://www.w3.org/2000/svg" xmlns:xlink="http://www.w3.org/1999/xlink" x="0px" y="0px"
	 viewBox="0 0 64 64" style="enable-background:new 0 0 64 64;" xml:space="preserve">
<style type="text/css">
	.st0{fill:#3db1b0;}
</style>
<path class="st0" d="M32,3.8C16.6,3.8,4.1,16.3,4.1,31.7C4.1,47,16.6,59.5,32,59.5S59.9,47,59.9,31.6C59.9,16.3,47.4,3.8,32,3.8z
	 M18.8,22.1c0-2.2,1.8-4,4-4s4,1.8,4,4c0,2.2-1.8,4-4,4S18.8,24.3,18.8,22.1z M42,43.9H22c-1.1,0-2-0.9-2-2c0-1.1,0.9-2,2-2h20
	c1.1,0,2,0.9,2,2C44,43,43.2,43.9,42,43.9z M41.2,26.1c-2.2,0-4-1.8-4-4c0-2.2,1.8-4,4-4s4,1.8,4,4C45.2,24.3,43.4,26.1,41.2,26.1z"
	/>
</svg>
