<?xml version="1.0" encoding="utf-8"?>
<!-- Generator: Adobe Illustrator 22.1.0, SVG Export Plug-In . SVG Version: 6.00 Build 0)  -->
<svg version="1.1" id="图层_1" xmlns="http://www.w3.org/2000/svg" xmlns:xlink="http://www.w3.org/1999/xlink" x="0px" y="0px"
	 viewBox="0 0 64 64" style="enable-background:new 0 0 64 64;" xml:space="preserve">
<style type="text/css">
	.st0{fill:#3db1b0;}
</style>
<path class="st0" d="M32,4.3C16.7,4.3,4.4,16.6,4.4,31.9S16.7,59.5,32,59.5s27.6-12.4,27.6-27.6S47.3,4.3,32,4.3z M40.6,20l1.5-2.9
	l1.5,2.9l3.1,0.6l-2.1,2.4l0.4,3.3l-2.8-1.4l-2.8,1.4l0.4-3.3l-2.1-2.4L40.6,20z M20.4,20l1.5-2.9l1.5,2.9l3.1,0.6l-2.1,2.4l0.4,3.3
	l-2.8-1.4L19,26.3l0.4-3.3l-2.1-2.4L20.4,20z M32,49.8L32,49.8c-8.3,0-15.1-6.8-15.1-15.1c0-0.5,0.4-0.9,0.9-0.9h28.4
	c0.5,0,0.9,0.4,0.9,0.9C47.1,43.1,40.3,49.8,32,49.8z"/>
</svg>
