<?xml version="1.0" standalone="no"?><!DOCTYPE svg PUBLIC "-//W3C//DTD SVG 1.1//EN" "http://www.w3.org/Graphics/SVG/1.1/DTD/svg11.dtd"><svg t="1538214988530" class="icon" style="" viewBox="0 0 1024 1024" version="1.1" xmlns="http://www.w3.org/2000/svg" p-id="32222" xmlns:xlink="http://www.w3.org/1999/xlink" width="64" height="64"><defs><style type="text/css"></style></defs><path d="M959.335 112.824L832.182 798.319a39.427 39.427 0 0 1-52.42 29.795L461.164 710.773l186.652-315.104L362.64 674.482 89.786 573.898a39.472 39.472 0 0 1-4.749-71.686L902.166 70.753a39.427 39.427 0 0 1 57.17 42.07zM444.318 804.502l2.867 109.814a23.163 23.163 0 0 0 39.651 15.636l86.202-87.412a23.163 23.163 0 0 0-10.842-38.71l-89.07-22.402a23.208 23.208 0 0 0-28.808 23.074z" p-id="32223" fill="#989898"></path></svg>