<?xml version="1.0" encoding="utf-8"?>
<!-- Generator: Adobe Illustrator 22.1.0, SVG Export Plug-In . SVG Version: 6.00 Build 0)  -->
<svg version="1.1" id="图层_1" xmlns="http://www.w3.org/2000/svg" xmlns:xlink="http://www.w3.org/1999/xlink" x="0px" y="0px"
	 viewBox="0 0 96.4 66.5" style="enable-background:new 0 0 96.4 66.5;" xml:space="preserve">
<style type="text/css">
	.st0{fill:#8492B2;}
</style>
<path class="st0" d="M0,33.2c1.2,1.1,15,12.6,15,12.6v20.7h81.4V0H15.1l0,20.9 M71.3,23.5c5.5,0,9.9,4.3,9.9,9.7
	c0,5.4-4.4,9.7-9.9,9.7c-5.5,0-10-4.3-10-9.7S65.7,23.5,71.3,23.5z M40,23.5c5.5,0,9.9,4.3,9.9,9.7s-4.4,9.7-10,9.7
	c-5.5,0-10-4.4-10-9.7C30,27.9,34.5,23.5,40,23.5z"/>
</svg>
