<?xml version="1.0" encoding="utf-8"?>
<!-- Generator: Adobe Illustrator 22.1.0, SVG Export Plug-In . SVG Version: 6.00 Build 0)  -->
<svg version="1.1" id="图层_1" xmlns="http://www.w3.org/2000/svg" xmlns:xlink="http://www.w3.org/1999/xlink" x="0px" y="0px"
	 viewBox="0 0 64 64" style="enable-background:new 0 0 64 64;" xml:space="preserve">
<style type="text/css">
	.st0{fill:#E1426F;}
</style>
<path class="st0" d="M4.7,28.6c3.3-6.4,5.5-9.8,6.5-10.4c1-0.6,5.1-0.7,12.3-0.4c1.6,0.1,3.1,1,3.9,2.4l12.9,22.4
	c1.3,2.3,0.5,5.2-1.7,6.5l-14.4,8.3c-2.3,1.3-5.2,0.5-6.5-1.7L4.8,33.2C4,31.8,3.9,30.1,4.7,28.6L4.7,28.6z M18.6,31
	c1.8-1,2.4-3.3,1.4-5.1c-1-1.8-3.3-2.4-5.1-1.3c-1.8,1-2.4,3.3-1.4,5.1C14.5,31.4,16.8,32,18.6,31C18.6,31,18.6,31,18.6,31L18.6,31z
	"/>
<path class="st0" d="M20.2,14.7c1.5-1.2,4.8-3.1,9.8-5.7c1.4-0.7,3.2-0.7,4.6,0.1l23.1,13.3c2.3,1.3,3.1,4.2,1.7,6.5c0,0,0,0,0,0
	l-8.5,14.8c-1.3,2.3-4.2,3.1-6.5,1.7l-0.4-0.2c0.9-1.5,0.9-3.3,0-4.8L30.8,17.3c-0.8-1.4-2.3-2.3-3.9-2.4
	C24.7,14.8,22.4,14.7,20.2,14.7L20.2,14.7z"/>
</svg>
