<?xml version="1.0" encoding="utf-8"?>
<!-- Generator: Adobe Illustrator 22.1.0, SVG Export Plug-In . SVG Version: 6.00 Build 0)  -->
<svg version="1.1" id="图层_1" xmlns="http://www.w3.org/2000/svg" xmlns:xlink="http://www.w3.org/1999/xlink" x="0px" y="0px"
	 viewBox="0 0 200 200" style="enable-background:new 0 0 200 200;" xml:space="preserve">
<style type="text/css">
	.st0{fill:#fff;}
</style>
<path class="st0" d="M64.3,65c0-2.2-0.7-4-2-5.3c-1.3-1.3-3.1-2-5.3-2c-2.3,0-4.3,0.7-6.1,2.2c-1.7,1.4-2.6,3.2-2.7,5.2
	c0,2.1,0.9,3.8,2.7,5.2c1.8,1.3,3.8,2,6.1,2s4-0.6,5.3-1.9C63.7,69.1,64.3,67.3,64.3,65z M124,105.8c0-1.4-0.7-2.8-2-4
	c-1.3-1.2-3.1-1.8-5.2-1.7c-1.5,0-2.9,0.6-4,1.9c-1.2,1.2-1.8,2.5-1.9,3.9c0,1.5,0.6,2.9,1.9,4c1.2,1.2,2.6,1.8,4,1.9
	c2.1,0,3.8-0.6,5.2-1.7C123.3,108.8,124,107.4,124,105.8z M105.1,65c0-2.2-0.7-4-2-5.3c-1.3-1.3-3.1-2-5.3-2c-2.3,0-4.3,0.7-6.1,2.2
	C90,61.2,89.1,63,89.1,65c0,2.1,0.9,3.8,2.6,5.2c1.7,1.3,3.7,2,6.1,2c2.2,0,4-0.6,5.3-1.9C104.4,69.1,105.1,67.3,105.1,65z
	 M156.1,105.8c0-1.4-0.7-2.8-2.2-4c-1.4-1.2-3.2-1.8-5.2-1.7c-1.4,0-2.7,0.6-3.9,1.9c-1.2,1.2-1.8,2.5-1.9,3.9c0,1.5,0.6,2.9,1.9,4
	c1.2,1.2,2.5,1.8,3.9,1.9c2.1,0,3.8-0.6,5.2-1.7C155.3,108.8,156,107.4,156.1,105.8z M134.7,73.9c-1.6-0.3-3.5-0.4-5.6-0.4
	c-9,0-17.3,2.1-24.9,6.2c-7.6,4.1-13.6,9.7-18,16.9c-4.4,7.1-6.6,14.8-6.5,23.1c0,4.2,0.6,8.3,1.9,12.2c-1.9,0.2-3.7,0.3-5.5,0.3
	c-1.4,0-2.8,0-4-0.1c-1.2-0.1-2.7-0.3-4.5-0.6c-1.7-0.3-2.9-0.5-3.6-0.6c-0.7-0.1-2.1-0.4-4.3-0.9c-2.2-0.5-3.6-0.7-4-0.7
	l-20.3,10.1l5.8-17.4c-15.6-11-23.3-24.1-23.3-39.5c0-9,2.6-17.3,7.8-24.9s12.3-13.6,21.3-18c9-4.4,18.8-6.6,29.2-6.5
	c9.4,0,18.3,1.7,26.7,5.2c8.4,3.5,15.4,8.4,21,14.7S133,66.2,134.7,73.9L134.7,73.9z M182.3,119c0,6.2-1.8,12.2-5.5,17.9
	c-3.6,5.7-8.6,10.9-15,15.6l4.5,14.6l-16-8.6c-8.1,1.9-13.9,2.9-17.6,2.9c-9,0-17.3-1.9-24.9-5.6c-7.6-3.7-13.6-8.9-18-15.4
	c-4.4-6.5-6.6-13.6-6.6-21.2c0-7.6,2.2-14.7,6.6-21.3c4.4-6.6,10.4-11.7,18-15.3c7.6-3.6,15.9-5.5,24.9-5.8c8.6,0,16.8,1.9,24.4,5.8
	c7.6,3.8,13.7,9,18.3,15.4C180,104.3,182.3,111.3,182.3,119z"/>
</svg>
