<?xml version="1.0" encoding="utf-8"?>
<!-- Generator: Adobe Illustrator 22.1.0, SVG Export Plug-In . SVG Version: 6.00 Build 0)  -->
<svg version="1.1" id="图层_1" xmlns="http://www.w3.org/2000/svg" xmlns:xlink="http://www.w3.org/1999/xlink" x="0px" y="0px"
	 viewBox="0 0 501.1 501.1" style="enable-background:new 0 0 501.1 501.1;" xml:space="preserve">
<style type="text/css">
	.st0{fill:url(#SVGID_1_);}
	.st1{fill:#DF3731;}
</style>
<g>
	<linearGradient id="SVGID_1_" gradientUnits="userSpaceOnUse" x1="250.55" y1="501.1" x2="250.55" y2="-9.094947e-13">
		<stop  offset="0" style="stop-color:#FACECE"/>
		<stop  offset="1" style="stop-color:#FFFFFF"/>
	</linearGradient>
	<rect class="st0" width="501.1" height="501.1"/>
</g>
<path class="st1" d="M205.4,383.7c-10.7,3.4-21.7,5.4-32.9,5.3c-7.5,0-10.1-2.7-9.8-10.3c0.5-10.1,1.1-20.3,1.7-30.5
	c0.1,0,0.3,0,0.4,0c0-10.3,0.1-20.7,0-31.1c0-3.5,0.6-6.8,4.9-6.8c4.2,0,4.8,3.2,4.8,6.8c0,18.8-0.1,37.5-2,56.2
	c-0.5,5,1,6.3,5.7,5.7c8.1-1.1,16.2-2.7,23.9-5c3.4-1.1,6.5-1.3,7.9,2.7C211.5,380.8,208.6,382.7,205.4,383.7z"/>
<path class="st1" d="M230.9,378.3c0.1,3.5-0.6,6.8-4.9,6.7c-3.8-0.1-4.5-3.2-4.6-6.5c-0.2-12-0.3-23.9,0.7-35.9
	c0.3-3.5,0.1-7.5,4.9-7.3c4.7,0.2,4.5,4.2,4.6,8C230.3,354.8,230.7,366.6,230.9,378.3z"/>
<path class="st1" d="M228.3,323.5c-3.1-0.1-5.4-2-5.5-5.2c-0.1-3.5,2.2-5.7,5.6-5.8c3.5-0.1,5.3,2.2,6,5.5
	C233.7,321.4,231.8,323.7,228.3,323.5z"/>
<path class="st1" d="M277.6,343.6c-1,0-2,0.1-3,0c-4.8-0.3-7.3,1-6.8,6.8c0.8,8.7,0.7,17.5,0.9,26.2c0.1,2.4-0.3,4.8-0.8,7.1
	c-0.6,2.6-2.3,4.3-5.2,3.9c-2.7-0.4-4.2-2.3-4.2-5c0-5.7,0.7-11.6-0.3-18.3c0-4.5-0.1-9.8,0.1-15.2c0.1-3.4-1.2-5.2-4.8-5
	c-1.6,0.1-3.2-0.4-4.7-0.5c-3.4-0.2-6-1.7-5.6-5.4c0.4-3.7,3.2-4.4,6.7-4.2c7.6,0.4,7.6,0.2,7.5-7.5c0-1.6-0.1-3.2,0.1-4.7
	c0.3-2.3,1.9-3.5,4-3.9c2.2-0.4,4,0.7,4.8,2.7c0.6,1.2,0.8,2.7,1.1,4c0.6,3.1-1.4,7.3,1.1,9.1c2.2,1.5,6.1,0.4,9.2,0.5
	c3.3,0.1,6,1,6,5C283.7,343,280.9,343.7,277.6,343.6z"/>
<path class="st1" d="M337.1,371.4c-2.9-2.9-4.7-0.4-6.9,1.7c-6.4,6.3-19.6,6.8-26.7,1.3c-3-2.4-4.6-4.2,0.5-6.5
	c8-3.5,16-7.4,23.6-11.6c4-2.2,6.8-5.7,6-10.8c-0.7-4.9-3.8-7.8-8.3-9.3c-9.5-3.1-18.5-3.2-26.2,4.3c-8,7.8-11.4,23.8-7,33.5
	c4.3,9.6,12.7,12.6,22.7,12.9c7.6-0.1,14.9-1.9,20.8-7.2C338.3,377.4,340,374.4,337.1,371.4z M321.3,344.4c1.2,0.4,2.9,1.1,3.3,2.2
	c0.6,1.5-1.3,2.2-2.4,2.9c-7.1,4.3-14.6,7.7-22.6,11.1C301.2,346.5,310.3,340,321.3,344.4z"/>
<g>
	<path class="st1" d="M269.8,179.5c-6,7-9.3,15.3-9.4,24.7c-0.2,5,0.6,9.9,2.9,14.5c3.2,6.6,8.1,7.9,14.1,3.5
		c1.8-1.3,3.6-2.9,4.8-4.7c7.2-10.8,9.3-22.5,4.9-34.9C283.7,173.4,276.2,172.1,269.8,179.5z"/>
	<path class="st1" d="M347.9,178.3c-9.5,9.1-13.4,26.2-8.6,38.6c3.5,9,9.8,10.5,16.8,4c7.5-7,9.4-16.2,10-24.6
		c0.1-6-0.8-10.6-2.8-14.9C360,173.9,353.8,172.8,347.9,178.3z"/>
	<path class="st1" d="M402,152.8c-0.1-17-11.9-29-29-29c-81.3,0-162.6,0-243.9,0c-17.3,0-29.1,11.9-29.1,29.3c0,30.2,0,60.4,0,90.5
		c0,18.7,11.5,30.3,30.1,30.3c35.9,0,71.6,0.1,107.5-0.1c4.7-0.1,8.7,1,12.8,3.3c15.2,8.7,30.6,17.1,46,25.7
		c0.3-0.2,0.6-0.5,0.9-0.7c-2.9-7.1-5.8-14.2-8.7-21.3c-2.8-6.8-2.8-6.8,4.8-6.8c26.7,0,53.2,0.1,79.9,0c16.8,0,28.7-11.9,28.7-28.6
		C402,214.5,402,183.7,402,152.8z M225.7,247.4c0,4.8-0.8,9.6-5.5,11.5c-4.8,1.9-9.3,0.1-13-3.9c-12.2-13-19.4-28.7-24.9-45.4
		c-0.6-1.6-0.6-3.4-2.4-5.2c-5.1,10.1-10.1,20-14.9,29.9c-3.1,6.3-6.3,12.4-10.6,17.9c-1.7,2.2-3.5,4.2-5.7,5.8
		c-3.3,2.4-7.3,1.9-9.9-1.1c-2.4-2.9-3.7-6.4-4.8-9.9c-7.9-24.3-12.1-49.4-16.5-74.5c-0.9-5.2-2.2-10.4-2.3-15.8
		c-0.1-6.4,3.2-10.3,9.6-11.1c6-0.8,10.2,2.2,11.2,8.6c3,19.3,6.3,38.5,10.7,57.6c0.4,1.9,0.9,3.7,1.8,7.1c5.3-10,10-18.8,14.6-27.6
		c3.6-6.8,7.1-13.7,10.8-20.6c1-1.8,2.1-3.7,3.3-5.3c2.4-3.2,5.5-5,9.6-4.2c4,0.7,6.2,3.5,7.1,7.1c1.6,5.9,2.7,11.9,4.1,17.9
		c1.9,8,4,16.1,7.8,25.1c1.4-8.8,2.4-16.4,3.7-23.9c2.3-13.9,5.5-27.5,11.9-40.2c2-4,4.7-7.1,10-7c7.5,0.2,12.9,7.5,10.1,14.4
		C228.9,184.3,225.6,215.6,225.7,247.4z M298.5,231.6c-8.3,11.6-19.4,17.3-33.8,14c-14.2-3.2-21.3-13.4-24-26.7
		c-3.4-17.1-0.3-33.3,9.3-48.1c9-13.9,21.2-19.5,35.1-16.3c13.7,3.2,22.9,14.4,24.9,30.4c0.4,2.9,0.4,5.7,0.6,8.6
		C310.5,207.4,306.6,220.2,298.5,231.6z M377,229.2c-8.6,13.7-20.5,19.3-34.6,16.6c-13.3-2.7-22.7-12.9-25.2-28.5
		c-2.9-18.2,0.9-34.9,11.9-49.8c8.4-11.4,19.7-16.2,33.8-12.9c12.4,3,22.8,15.5,23.6,28.2c0.2,3.7,0,7.4,0,9.6
		C387.9,207,383.7,218.5,377,229.2z"/>
</g>
</svg>
