<?xml version="1.0" encoding="utf-8"?>
<!-- Generator: Adobe Illustrator 23.0.3, SVG Export Plug-In . SVG Version: 6.00 Build 0)  -->
<svg version="1.1" id="图层_1" xmlns="http://www.w3.org/2000/svg" xmlns:xlink="http://www.w3.org/1999/xlink" x="0px" y="0px"
	 width="112px" height="112px" viewBox="0 0 112 112" style="enable-background:new 0 0 112 112;" xml:space="preserve">
<style type="text/css">
	.st0{fill:#3db1b0;}
	.st1{fill:#FFFFFF;}
</style>
<rect class="st0" width="112" height="112"/>
<g>
	<path class="st1" d="M39.9,80.4c0-1.9,0-3.9,0-5.8c0-0.7,0.1-1.3,0.9-1.3c0.8,0,0.9,0.6,0.9,1.3c0,3.5,0,7-0.4,10.5
		c-0.1,0.9,0.2,1.2,1.1,1.1c1.5-0.2,3-0.5,4.5-0.9c0.7-0.2,1.2-0.2,1.5,0.5c0.3,0.8-0.3,1.1-0.9,1.3c-2,0.6-4,1-6.2,1
		c-1.4,0-1.9-0.5-1.8-1.9C39.6,84.2,39.7,82.3,39.9,80.4C39.8,80.4,39.9,80.4,39.9,80.4z"/>
	<path class="st1" d="M57.3,83.4c0-0.8,0-1.8,0-2.8c0-0.6-0.2-1-0.9-0.9c-0.3,0-0.6-0.1-0.9-0.1c-0.7,0-1.1-0.3-1-1s0.6-0.8,1.2-0.8
		c1.4,0.1,1.4,0,1.4-1.4c0-0.3,0-0.6,0-0.9c0-0.4,0.3-0.7,0.7-0.7c0.4-0.1,0.7,0.1,0.9,0.5c0.1,0.2,0.2,0.5,0.2,0.8
		c0.1,0.6-0.3,1.4,0.2,1.7c0.4,0.3,1.1,0.1,1.7,0.1c0.6,0,1.1,0.2,1.1,0.9c0,0.8-0.5,0.9-1.2,0.9c-0.2,0-0.4,0-0.6,0
		c-0.9-0.1-1.4,0.2-1.3,1.3c0.2,1.6,0.1,3.3,0.2,4.9c0,0.4,0,0.9-0.2,1.3c-0.1,0.5-0.4,0.8-1,0.7C57.3,87.8,57,87.5,57,87
		C57.4,85.7,57.5,84.6,57.3,83.4z"/>
	<path class="st1" d="M52.3,79.5c-0.2,2.1-0.2,4.3-0.1,6.5c0,0.7-0.1,1.3-0.9,1.2c-0.7,0-0.8-0.6-0.8-1.2c0-2.2-0.1-4.5,0.1-6.7
		c0.1-0.7,0-1.4,0.9-1.4C52.4,78,52.3,78.8,52.3,79.5z"/>
	<path class="st1" d="M52.8,74.7c-0.1,0.6-0.5,1.1-1.1,1c-0.6,0-1-0.4-1-1c0-0.7,0.4-1.1,1-1.1C52.4,73.7,52.7,74.1,52.8,74.7z"/>
	<path class="st1" d="M72,84.7c-0.5-0.5-0.9-0.1-1.3,0.3c-1.2,1.2-3.7,1.3-5,0.2c-0.6-0.5-0.9-0.8,0.1-1.2c1.5-0.7,3-1.4,4.4-2.2
		c0.8-0.4,1.3-1.1,1.1-2c-0.1-0.9-0.7-1.5-1.5-1.7c-1.8-0.6-3.5-0.6-4.9,0.8c-1.5,1.4-2.1,4.4-1.3,6.3c0.8,1.8,2.4,2.3,4.2,2.4
		c1.4,0,2.8-0.4,3.9-1.3C72.3,85.8,72.6,85.3,72,84.7z M69.1,79.7c0.2,0.1,0.5,0.2,0.6,0.4c0.1,0.3-0.2,0.4-0.5,0.5
		c-1.3,0.8-2.7,1.4-4.2,2.1C65.3,80.1,67,78.8,69.1,79.7z"/>
	<g>
		<path class="st1" d="M60.4,40.9c-1.4,1.6-2.2,3.5-2.2,5.7c0,1.2,0.2,2.3,0.7,3.4c0.7,1.5,1.9,1.8,3.3,0.8c0.4-0.3,0.8-0.7,1.1-1.1
			c1.7-2.5,2.2-5.2,1.1-8.1C63.6,39.4,61.9,39.1,60.4,40.9z"/>
		<path class="st1" d="M78.4,40.6c-2.2,2.1-3.1,6.1-2,8.9c0.8,2.1,2.3,2.4,3.9,0.9c1.7-1.6,2.2-3.8,2.3-5.7c0-1.4-0.2-2.5-0.7-3.5
			C81.2,39.6,79.8,39.3,78.4,40.6z"/>
		<path class="st1" d="M84.2,28c-18.8,0-37.6,0-56.4,0c-4,0-6.7,2.8-6.7,6.8c0,7,0,14,0,20.9c0,4.3,2.7,7,7,7c8.3,0,16.6,0,24.8,0
			c1.1,0,2,0.2,3,0.8c3.5,2,7.1,4,10.6,5.9c0.1-0.1,0.1-0.1,0.2-0.2c-0.7-1.6-1.3-3.3-2-4.9c-0.6-1.6-0.6-1.6,1.1-1.6
			c6.2,0,12.3,0,18.5,0c3.9,0,6.7-2.8,6.7-6.6c0-7.1,0-14.2,0-21.4C90.9,30.8,88.2,28,84.2,28z M50.2,56.6c0,1.1-0.2,2.2-1.3,2.7
			s-2.1,0-3-0.9c-2.8-3-4.5-6.6-5.8-10.5C40,47.5,40,47,39.6,46.6c-1.2,2.3-2.3,4.6-3.5,6.9c-0.7,1.4-1.5,2.8-2.4,4.1
			c-0.4,0.5-0.8,1-1.3,1.3c-0.8,0.5-1.7,0.4-2.3-0.3c-0.6-0.7-0.9-1.5-1.1-2.3c-1.8-5.6-2.8-11.4-3.8-17.2c-0.2-1.2-0.5-2.4-0.5-3.7
			c0-1.5,0.7-2.4,2.2-2.6c1.4-0.2,2.4,0.5,2.6,2c0.7,4.5,1.4,8.9,2.4,13.3c0.1,0.4,0.2,0.9,0.4,1.6c1.2-2.3,2.3-4.3,3.4-6.4
			c0.8-1.6,1.7-3.2,2.5-4.8c0.2-0.4,0.5-0.9,0.8-1.2c0.5-0.7,1.3-1.2,2.2-1s1.4,0.8,1.6,1.7c0.4,1.4,0.6,2.8,1,4.1
			c0.5,1.9,0.9,3.7,1.8,5.8c0.3-2,0.6-3.8,0.8-5.5c0.5-3.2,1.3-6.4,2.8-9.3c0.5-0.9,1.1-1.7,2.3-1.6c1.7,0,3,1.8,2.3,3.3
			C50.9,42,50.1,49.2,50.2,56.6z M67,52.9c-1.9,2.7-4.5,4-7.8,3.3c-3.3-0.8-4.9-3.1-5.5-6.2c-0.8-4-0.1-7.7,2.1-11.1
			c2.1-3.2,4.9-4.5,8.1-3.8c3.2,0.7,5.3,3.3,5.8,7c0.1,0.7,0.1,1.3,0.1,2C69.8,47.3,68.9,50.3,67,52.9z M85.1,52.4
			c-2,3.2-4.7,4.5-8,3.8c-3.1-0.6-5.3-3-5.8-6.6c-0.7-4.2,0.2-8.1,2.8-11.5c2-2.6,4.6-3.8,7.8-3c2.9,0.7,5.3,3.6,5.5,6.5
			c0.1,0.9,0,1.7,0,2.2C87.7,47.2,86.7,49.9,85.1,52.4z"/>
	</g>
</g>
</svg>
