<?xml version="1.0" standalone="no"?><!DOCTYPE svg PUBLIC "-//W3C//DTD SVG 1.1//EN" "http://www.w3.org/Graphics/SVG/1.1/DTD/svg11.dtd"><svg t="1568942098966" class="icon" viewBox="0 0 1024 1024" version="1.1" xmlns="http://www.w3.org/2000/svg" p-id="2213" xmlns:xlink="http://www.w3.org/1999/xlink" width="64" height="64"><defs><style type="text/css"></style></defs><path d="M844.8 665.6c-99.2 3.2-179.2 83.2-176 182.4 3.2 96 80 176 176 176 99.2 0 179.2-80 179.2-179.2s-80-179.2-179.2-179.2z m105.6 166.4c-9.6 12.8-22.4 25.6-38.4 28.8h-9.6c-6.4 0-12.8-3.2-16-6.4-3.2-3.2-3.2-9.6-3.2-16 3.2-6.4 9.6-16 19.2-19.2 9.6-3.2 16-12.8 16-19.2 0-12.8-12.8-22.4-28.8-22.4s-28.8 9.6-28.8 22.4v83.2c0 22.4-12.8 41.6-32 54.4-9.6 6.4-22.4 9.6-35.2 9.6-38.4 0-67.2-28.8-67.2-60.8 0-9.6 3.2-22.4 9.6-28.8 9.6-12.8 22.4-25.6 38.4-28.8h9.6c6.4 0 12.8 3.2 16 6.4 3.2 3.2 3.2 9.6 3.2 16-3.2 6.4-9.6 12.8-19.2 16h-3.2c-9.6 3.2-16 9.6-16 19.2 0 12.8 12.8 22.4 28.8 22.4s28.8-9.6 28.8-22.4v-83.2c0-22.4 12.8-41.6 32-54.4 9.6-6.4 22.4-9.6 35.2-9.6 38.4 0 67.2 28.8 67.2 60.8 3.2 12.8 0 22.4-6.4 32zM281.6 508.8c0 124.8 102.4 227.2 227.2 227.2 124.8 0 227.2-102.4 227.2-227.2 0-124.8-102.4-227.2-227.2-227.2-124.8 0-227.2 102.4-227.2 227.2z m86.4 108.8c3.2-48 32-92.8 76.8-115.2-19.2-16-28.8-41.6-28.8-67.2 0-51.2 41.6-89.6 89.6-89.6 51.2 0 89.6 41.6 89.6 89.6 0 25.6-9.6 48-28.8 64 44.8 22.4 76.8 67.2 83.2 115.2v6.4c0 9.6-9.6 19.2-19.2 19.2-6.4 0-9.6-3.2-12.8-6.4-3.2-3.2-3.2-6.4-6.4-6.4v-6.4c-3.2-54.4-48-96-102.4-96s-99.2 41.6-102.4 96v6.4c-3.2 9.6-9.6 12.8-19.2 12.8-6.4 0-9.6-3.2-12.8-6.4s-6.4-9.6-6.4-12.8c-3.2 0-3.2 0 0-3.2z m144-128c28.8 0 51.2-22.4 51.2-51.2 0-28.8-22.4-51.2-51.2-51.2-28.8 0-51.2 22.4-51.2 51.2-3.2 25.6 22.4 51.2 51.2 51.2zM179.2 665.6c-99.2 0-179.2 80-179.2 179.2S80 1024 179.2 1024c99.2 0 179.2-80 179.2-179.2s-80-179.2-179.2-179.2z m0 316.8c-76.8 0-137.6-60.8-137.6-137.6s60.8-137.6 137.6-137.6 137.6 60.8 137.6 137.6-60.8 137.6-137.6 137.6zM128 844.8c0 28.8 22.4 51.2 51.2 51.2 28.8 0 51.2-22.4 51.2-51.2 0-28.8-22.4-51.2-51.2-51.2-28.8 0-51.2 22.4-51.2 51.2z m51.2-486.4c99.2 0 179.2-80 179.2-179.2S278.4 0 179.2 0 0 80 0 179.2s80 179.2 179.2 179.2z m0-316.8c76.8 0 137.6 60.8 137.6 137.6S256 316.8 179.2 316.8 41.6 256 41.6 179.2s60.8-137.6 137.6-137.6zM128 179.2c0 28.8 22.4 51.2 51.2 51.2 28.8 0 51.2-22.4 51.2-51.2 0-28.8-22.4-51.2-51.2-51.2C150.4 128 128 150.4 128 179.2z m716.8 179.2c99.2 0 179.2-80 179.2-179.2S944 0 844.8 0s-179.2 80-179.2 179.2 80 179.2 179.2 179.2z m0-316.8c76.8 0 137.6 60.8 137.6 137.6s-60.8 137.6-137.6 137.6-137.6-60.8-137.6-137.6 60.8-137.6 137.6-137.6z m-51.2 137.6c0 28.8 22.4 51.2 51.2 51.2 28.8 0 51.2-22.4 51.2-51.2 0-28.8-22.4-51.2-51.2-51.2-28.8 0-51.2 22.4-51.2 51.2z m-297.6 19.2c9.6 0 19.2-9.6 19.2-19.2v-160c0-12.8-9.6-19.2-19.2-19.2s-19.2 9.6-19.2 19.2v156.8c-3.2 12.8 6.4 22.4 19.2 22.4z m99.2-67.2c9.6 3.2 22.4-3.2 25.6-16l19.2-73.6c3.2-9.6-3.2-22.4-12.8-25.6-9.6-3.2-22.4 3.2-25.6 16l-19.2 76.8c-6.4 6.4 0 19.2 12.8 22.4z m-160 624c-9.6-3.2-22.4 3.2-25.6 16l-19.2 67.2c-3.2 9.6 3.2 22.4 12.8 25.6 9.6 3.2 22.4-3.2 25.6-16l19.2-67.2c6.4-9.6 0-22.4-12.8-25.6z m-35.2 134.4c-9.6-3.2-22.4 3.2-25.6 16l-19.2 67.2c-3.2 9.6 3.2 22.4 12.8 25.6 9.6 3.2 22.4-3.2 25.6-16l19.2-67.2c6.4-12.8 0-22.4-12.8-25.6z m96-131.2c-12.8 0-19.2 9.6-19.2 19.2v195.2c0 12.8 9.6 19.2 19.2 19.2s19.2-9.6 19.2-19.2v-195.2c3.2-9.6-6.4-19.2-19.2-19.2z m105.6 67.2c-3.2-9.6-12.8-16-25.6-16s-16 12.8-12.8 25.6l35.2 140.8c3.2 9.6 12.8 16 25.6 16 9.6-3.2 16-16 12.8-25.6l-35.2-140.8zM486.4 256c0 12.8 9.6 25.6 25.6 25.6 12.8 0 25.6-9.6 25.6-25.6v-3.2c0-12.8-12.8-25.6-25.6-25.6-16 6.4-25.6 16-25.6 28.8z m76.8 540.8c3.2 12.8 16 22.4 28.8 22.4 12.8-3.2 22.4-16 22.4-28.8s-16-22.4-28.8-22.4c-16 3.2-25.6 16-22.4 28.8zM252.8 451.2h6.4c9.6 0 19.2-6.4 22.4-16 3.2-9.6-3.2-22.4-16-25.6L192 393.6c-12.8-3.2-22.4 3.2-25.6 12.8-3.2 9.6 3.2 22.4 16 25.6l70.4 19.2zM115.2 416h6.4c9.6 0 19.2-6.4 22.4-16 3.2-9.6-3.2-22.4-16-25.6l-70.4-19.2c-12.8-3.2-22.4 3.2-25.6 12.8s3.2 22.4 16 25.6c-6.4 3.2 67.2 22.4 67.2 22.4z m163.2 80c0-9.6-9.6-19.2-22.4-19.2H51.2c-12.8 0-22.4 9.6-22.4 19.2s9.6 19.2 22.4 19.2H256c12.8 3.2 22.4-6.4 22.4-19.2z m-83.2 67.2l-147.2 35.2c-12.8 3.2-19.2 12.8-16 25.6 3.2 9.6 9.6 16 19.2 16h6.4l147.2-35.2c12.8-3.2 19.2-12.8 16-25.6-3.2-12.8-12.8-19.2-25.6-16z m35.2 25.6c0 12.8 9.6 25.6 25.6 25.6 12.8 0 25.6-9.6 25.6-25.6v-3.2c0-12.8-12.8-25.6-25.6-25.6-16 6.4-25.6 16-25.6 28.8z m169.6-512c-9.6 3.2-16 12.8-12.8 25.6l35.2 137.6c3.2 9.6 12.8 16 25.6 16 9.6-3.2 16-12.8 12.8-25.6l-35.2-137.6c-6.4-12.8-16-19.2-25.6-16z m-25.6-3.2c12.8 6.4 28.8 0 32-12.8 6.4-12.8 0-28.8-12.8-32s-28.8 0-32 12.8c-6.4 12.8 0 28.8 12.8 32zM563.2 256c0 12.8 9.6 25.6 25.6 25.6s25.6-9.6 25.6-25.6v-3.2c0-12.8-12.8-25.6-25.6-25.6-16 6.4-25.6 16-25.6 28.8z m25.6-73.6c3.2 12.8 16 22.4 28.8 22.4 12.8-3.2 22.4-16 22.4-28.8s-16-22.4-28.8-22.4c-16 3.2-25.6 16-22.4 28.8zM1024 508.8c0-12.8-9.6-22.4-22.4-22.4h-163.2c-12.8 0-22.4 9.6-22.4 22.4 0 12.8 9.6 22.4 22.4 22.4h163.2c12.8 0 22.4-9.6 22.4-22.4z m-108.8 92.8c-12.8-3.2-22.4 3.2-25.6 16-3.2 12.8 3.2 22.4 16 25.6l76.8 22.4c12.8 3.2 22.4-3.2 25.6-16 3.2-12.8-3.2-22.4-16-25.6l-76.8-22.4zM768 512c0 12.8 9.6 25.6 25.6 25.6s25.6-9.6 25.6-25.6v-3.2c0-12.8-12.8-25.6-25.6-25.6-16 6.4-25.6 16-25.6 28.8z m179.2-112c-3.2-9.6-12.8-16-25.6-12.8l-137.6 35.2c-9.6 3.2-16 12.8-16 25.6 3.2 9.6 9.6 16 19.2 16h6.4l137.6-35.2c12.8-6.4 19.2-19.2 16-28.8z m0-16c0 12.8 9.6 25.6 25.6 25.6s25.6-9.6 25.6-25.6v-3.2c0-12.8-12.8-25.6-25.6-25.6-16 6.4-25.6 16-25.6 28.8zM768 588.8c0 12.8 9.6 25.6 25.6 25.6s25.6-9.6 25.6-25.6v-3.2c0-12.8-12.8-25.6-25.6-25.6-16 6.4-25.6 16-25.6 28.8z m51.2 25.6c0 12.8 9.6 25.6 25.6 25.6s25.6-9.6 25.6-25.6v-3.2c0-12.8-12.8-25.6-25.6-25.6-16 6.4-25.6 16-25.6 28.8z" fill="#3db1b0" p-id="2214"></path></svg>